999
FreeCAD v1.0 Unknown
  0
SECTION
  2
HEADER
  9
$ACADVER
  1
AC1014
  9
$ACADMAINTVER
 70
     9
  9
$DWGCODEPAGE
  3
ANSI_1252
  9
$TEXTSTYLE
  7
STANDARD
  9
$DIMSTYLE
  2
STANDARD
  9
$DIMTXSTY
  7
STANDARD
  9
$CMLSTYLE
  2
STANDARD
  9
$LUNITS
 70
2
  9
$INSUNITS
 70
4
  9
$PEXTMAX
 10
50
 20
50
 30
50
  9
$PEXTMIN
 10
0
 20
0
 30
0
  9
$HANDSEED
  5
FFFF
  0
ENDSEC
  0
SECTION
  2
CLASSES
  0
CLASS
  1
ACDBDICTIONARYWDFLT
  2
AcDbDictionaryWithDefault
  3
ObjectDBX Classes
 90
        0
280
     0
281
     0
  0
CLASS
  1
XRECORD
  2
AcDbXrecord
  3
ObjectDBX Classes
 90
        0
280
     0
281
     0
  0
CLASS
  1
LWPOLYLINE
  2
AcDbPolyline
  3
ObjectDBX Classes
 90
        0
280
     0
281
     1
  0
ENDSEC
  0
SECTION
  2
TABLES
  0
TABLE
  2
VPORT
  5
20
330
0
100
AcDbSymbolTable
 70
     1
  0
VPORT
  5
21
330
20
100
AcDbSymbolTableRecord
100
AcDbViewportTableRecord
  2
*ACTIVE
 70
     0
  0
ENDTAB
  0
TABLE
  2
LTYPE
  5
22
330
0
100
AcDbSymbolTable
 70
     1
  0
LTYPE
  5
23
330
21
100
AcDbSymbolTableRecord
100
AcDbLinetypeTableRecord
  2
BYBLOCK
 70
     0
  3

 72
    65
 73
     0
 40
0.0
  0
LTYPE
  5
24
330
21
100
AcDbSymbolTableRecord
100
AcDbLinetypeTableRecord
  2
BYLAYER
 70
     0
  3

 72
    65
 73
     0
 40
0.0
  0
LTYPE
  5
25
330
21
100
AcDbSymbolTableRecord
100
AcDbLinetypeTableRecord
  2
CONTINUOUS
 70
     0
  3
Solid line
 72
    65
 73
     0
 40
0.0
  0
ENDTAB
  0
TABLE
  2
LAYER
  5
AEA
330
0
100
AcDbSymbolTable
 70
6
  0
LAYER
  5
AEB
330
AEA
100
AcDbSymbolTableRecord
100
AcDbLayerTableRecord
  2
0
 70
   0
 62
   7
  6
CONTINUOUS
  0
LAYER
  5
AEC
330
AEA
100
AcDbSymbolTableRecord
100
AcDbLayerTableRecord
  2
none
 70
    0
 62
    7
  6
CONTINUOUS
  0
LAYER
  5
AED
330
AEA
100
AcDbSymbolTableRecord
100
AcDbLayerTableRecord
  2
Fillet
 70
    0
 62
    7
  6
CONTINUOUS
  0
LAYER
  5
AEE
330
AEA
100
AcDbSymbolTableRecord
100
AcDbLayerTableRecord
  2
Sketch005
 70
    0
 62
    7
  6
CONTINUOUS
  0
LAYER
  5
AEF
330
AEA
100
AcDbSymbolTableRecord
100
AcDbLayerTableRecord
  2
Sketch006
 70
    0
 62
    7
  6
CONTINUOUS
  0
LAYER
  5
AF0
330
AEA
100
AcDbSymbolTableRecord
100
AcDbLayerTableRecord
  2
Sketch009
 70
    0
 62
    7
  6
CONTINUOUS
  0
ENDTAB
  0
TABLE
  2
STYLE
  5
70
330
0
100
AcDbSymbolTable
 70
     2
  0
STYLE
  5
71
330
70
100
AcDbSymbolTableRecord
100
AcDbTextStyleTableRecord
  2
STANDARD
 70
     0
 40
0.0
 41
1.0
 50
0.0
 71
     0
 42
2.5
  3
arial.ttf
  4

  0
STYLE
  5
72
330
70
100
AcDbSymbolTableRecord
100
AcDbTextStyleTableRecord
  2
ANNOTATIVE
 70
     0
 40
0.0
 41
1.0
 50
0.0
 71
     0
 42
2.5
  3
arial.ttf
  4

  0
ENDTAB
  0
TABLE
  2
VIEW
  5
73
330
0
100
AcDbSymbolTable
 70
     0
  0
ENDTAB
  0
TABLE
  2
UCS
  5
74
330
0
100
AcDbSymbolTable
 70
     0
  0
ENDTAB
  0
TABLE
  2
APPID
  5
75
330
0
100
AcDbSymbolTable
 70
     2
  0
APPID
  5
76
330
75
100
AcDbSymbolTableRecord
100
AcDbRegAppTableRecord
  2
ACAD
 70
     0
  0
APPID
  5
77
330
75
100
AcDbSymbolTableRecord
100
AcDbRegAppTableRecord
  2
ACADANNOTATIVE
 70
     0
  0
ENDTAB
  0
TABLE
  2
DIMSTYLE
  5
78
330
0
100
AcDbSymbolTable
 70
     2
  0
DIMSTYLE
105
79
330
78
100
AcDbSymbolTableRecord
100
AcDbDimStyleTableRecord
  2
STANDARD
 70
     0
  3

  4

  5

  6

  7

 40
0.0
 41
2.5
 42
0.625
 43
3.75
 44
1.25
 45
0.0
 46
0.0
 47
0.0
 48
0.0
140
2.5
141
2.5
142
0.0
143
0.03937007874016
144
1.0
145
0.0
146
1.0
147
0.625
 71
     0
 72
     0
 73
     0
 74
     0
 75
     0
 76
     0
 77
     1
 78
     8
170
     0
171
     3
172
     1
173
     0
174
     0
175
     0
176
     0
177
     0
178
     0
270
     2
271
     2
272
     2
273
     2
274
     3
340
71
275
     0
280
     0
281
     0
282
     0
283
     0
284
     8
285
     0
286
     0
287
     3
288
     0
  0
ENDTAB
  0
TABLE
  2
BLOCK_RECORD
  5
A01
330
0
100
AcDbSymbolTable
  70
5
  0
BLOCK_RECORD
  5
A02
330
A01
100
AcDbSymbolTableRecord
100
AcDbBlockTableRecord
  2
*MODEL_SPACE
  0
BLOCK_RECORD
  5
A03
330
A01
100
AcDbSymbolTableRecord
100
AcDbBlockTableRecord
  2
*PAPER_SPACE
  0
ENDTAB
  0
ENDSEC
  0
SECTION
  2
BLOCKS
  0
BLOCK
  5
A04
330
A02
100
AcDbEntity
  8
0
100
AcDbBlockBegin
  2
*MODEL_SPACE
 70
   0
 10
0
 20
0
 30
0
  3
*MODEL_SPACE
  1
 
  0
ENDBLK
  5
A05
330
A02
100
AcDbEntity
  8
0
100
AcDbBlockEnd
  0
BLOCK
  5
A06
330
A03
100
AcDbEntity
 67
1
  8
0
100
AcDbBlockBegin
  2
*PAPER_SPACE
 70
   0
 10
0
 20
0
 30
0
  3
*PAPER_SPACE
  1
 
  0
ENDBLK
  5
A07
330
A03
100
AcDbEntity
 67
    1
  8
0
100
AcDbBlockEnd
  0
ENDSEC
  0
SECTION
  2
ENTITIES
  0
LINE
  5
A08
330
A02
100
AcDbEntity
  8
Fillet
100
AcDbLine
 10
158.304076233
 20
1.408987526
 30
-2.000000000
 11
181.950530359
 21
42.328817680
 31
-2.000000000
  0
LINE
  5
A09
330
A02
100
AcDbEntity
  8
Fillet
100
AcDbLine
 10
181.950530359
 20
42.328817680
 30
-2.000000000
 11
181.950530359
 21
42.328817680
 31
0.000000000
  0
LINE
  5
A0A
330
A02
100
AcDbEntity
  8
Fillet
100
AcDbLine
 10
158.304076233
 20
1.408987526
 30
-2.000000000
 11
158.304076233
 21
1.408987526
 31
0.000000000
  0
LINE
  5
A0B
330
A02
100
AcDbEntity
  8
Fillet
100
AcDbLine
 10
158.304076233
 20
1.408987526
 30
0.000000000
 11
181.950530359
 21
42.328817680
 31
0.000000000
  0
LINE
  5
A0C
330
A02
100
AcDbEntity
  8
Fillet
100
AcDbLine
 10
158.304076233
 20
1.408987526
 30
-2.000000000
 11
181.950530359
 21
42.328817680
 31
-2.000000000
  0
ARC
  5
A0D
330
A02
100
AcDbEntity
  8
Fillet
100
AcDbCircle
 10
174.694879506
 20
46.521660475
 30
-2.000000000
 40
8.380000000
100
AcDbArc
 50
-30.022446192
 51
-0.000028363
  0
LINE
  5
A0E
330
A02
100
AcDbEntity
  8
Fillet
100
AcDbLine
 10
158.304076233
 20
1.408987526
 30
-2.000000000
 11
152.243311776
 21
-9.079073427
 31
-2.000000000
  0
LINE
  5
A0F
330
A02
100
AcDbEntity
  8
Fillet
100
AcDbLine
 10
183.074879506
 20
46.521656327
 30
-2.000000000
 11
183.074932536
 21
153.645271872
 31
-2.000000000
  0
ARC
  5
A10
330
A02
100
AcDbEntity
  8
Fillet
100
AcDbCircle
 10
150.182637668
 20
-7.888266046
 30
-2.000000000
 40
2.380000000
100
AcDbArc
 50
-119.942786869
 51
-30.022446192
  0
ARC
  5
A11
330
A02
100
AcDbEntity
  8
Fillet
100
AcDbCircle
 10
180.694932536
 20
153.645273051
 30
-2.000000000
 40
2.380000000
100
AcDbArc
 50
-0.000028363
 51
90.000000000
  0
LINE
  5
A12
330
A02
100
AcDbEntity
  8
Fillet
100
AcDbLine
 10
148.994696428
 20
-9.950593762
 30
-2.000000000
 11
90.361934715
 21
23.823027704
 31
-2.000000000
  0
LINE
  5
A13
330
A02
100
AcDbEntity
  8
Fillet
100
AcDbLine
 10
180.694932536
 20
156.025273051
 30
-2.000000000
 11
71.382540005
 21
156.025273051
 31
-2.000000000
  0
ARC
  5
A14
330
A02
100
AcDbEntity
  8
Fillet
100
AcDbCircle
 10
86.179183627
 20
16.561554483
 30
-2.000000000
 40
8.380000000
100
AcDbArc
 50
60.057213131
 51
90.000000000
  0
ARC
  5
A15
330
A02
100
AcDbEntity
  8
Fillet
100
AcDbCircle
 10
71.382540005
 20
153.645273051
 30
-2.000000000
 40
2.380000000
100
AcDbArc
 50
90.000000000
 51
180.000000000
  0
LINE
  5
A16
330
A02
100
AcDbEntity
  8
Fillet
100
AcDbLine
 10
76.203911608
 20
24.941554483
 30
-2.000000000
 11
86.179183627
 21
24.941554483
 31
-2.000000000
  0
LINE
  5
A17
330
A02
100
AcDbEntity
  8
Fillet
100
AcDbLine
 10
69.002540005
 20
153.645273051
 30
-2.000000000
 11
69.002540005
 21
153.643281687
 31
-2.000000000
  0
LINE
  5
A18
330
A02
100
AcDbEntity
  8
Fillet
100
AcDbLine
 10
66.734000508
 20
24.941554483
 30
-2.000000000
 11
76.203911608
 21
24.941554483
 31
-2.000000000
  0
LINE
  5
A19
330
A02
100
AcDbEntity
  8
Fillet
100
AcDbLine
 10
69.002540005
 20
153.643281687
 30
-2.000000000
 11
52.332628905
 21
153.643281687
 31
-2.000000000
  0
ARC
  5
A1A
330
A02
100
AcDbEntity
  8
Fillet
100
AcDbCircle
 10
66.734000508
 20
22.561554483
 30
-2.000000000
 40
2.380000000
100
AcDbArc
 50
90.000000000
 51
180.000000000
  0
ARC
  5
A1B
330
A02
100
AcDbEntity
  8
Fillet
100
AcDbCircle
 10
52.332628905
 20
151.263281687
 30
-2.000000000
 40
2.380000000
100
AcDbArc
 50
90.000000000
 51
180.000000000
  0
LINE
  5
A1C
330
A02
100
AcDbEntity
  8
Fillet
100
AcDbLine
 10
64.354000508
 20
20.176012192
 30
-2.000000000
 11
64.354000508
 21
22.561554483
 31
-2.000000000
  0
LINE
  5
A1D
330
A02
100
AcDbEntity
  8
Fillet
100
AcDbLine
 10
49.952628905
 20
151.263281687
 30
-2.000000000
 11
49.952628905
 21
148.880254001
 31
-2.000000000
  0
ARC
  5
A1E
330
A02
100
AcDbEntity
  8
Fillet
100
AcDbCircle
 10
61.974000508
 20
20.176012192
 30
-2.000000000
 40
2.380000000
100
AcDbArc
 50
-90.000000000
 51
-0.000000000
  0
ARC
  5
A1F
330
A02
100
AcDbEntity
  8
Fillet
100
AcDbCircle
 10
47.572628905
 20
148.880254001
 30
-2.000000000
 40
2.380000000
100
AcDbArc
 50
-90.000000000
 51
0.000000000
  0
LINE
  5
A20
330
A02
100
AcDbEntity
  8
Fillet
100
AcDbLine
 10
14.233009906
 20
17.796012192
 30
-2.000000000
 11
61.974000508
 21
17.796012192
 31
-2.000000000
  0
LINE
  5
A21
330
A02
100
AcDbEntity
  8
Fillet
100
AcDbLine
 10
47.572628905
 20
146.500254001
 30
-2.000000000
 11
14.233009906
 21
146.500254001
 31
-2.000000000
  0
ARC
  5
A22
330
A02
100
AcDbEntity
  8
Fillet
100
AcDbCircle
 10
14.233009906
 20
20.176012192
 30
-2.000000000
 40
2.380000000
100
AcDbArc
 50
180.000000000
 51
-90.000000000
  0
ARC
  5
A23
330
A02
100
AcDbEntity
  8
Fillet
100
AcDbCircle
 10
14.233009906
 20
144.120254001
 30
-2.000000000
 40
2.380000000
100
AcDbArc
 50
90.000000000
 51
180.000000000
  0
LINE
  5
A24
330
A02
100
AcDbEntity
  8
Fillet
100
AcDbLine
 10
11.853009906
 20
144.120254001
 30
-2.000000000
 11
11.853009906
 21
20.176012192
 31
-2.000000000
  0
ARC
  5
A25
330
A02
100
AcDbEntity
  8
Fillet
100
AcDbCircle
 10
174.694879506
 20
46.521660475
 30
-2.000000000
 40
8.380000000
100
AcDbArc
 50
-30.022446192
 51
-0.000028363
  0
LINE
  5
A26
330
A02
100
AcDbEntity
  8
Fillet
100
AcDbLine
 10
181.950530359
 20
42.328817680
 30
-2.000000000
 11
181.950530359
 21
42.328817680
 31
0.000000000
  0
LINE
  5
A27
330
A02
100
AcDbEntity
  8
Fillet
100
AcDbLine
 10
183.074879506
 20
46.521656327
 30
-2.000000000
 11
183.074879506
 21
46.521656327
 31
0.000000000
  0
ARC
  5
A28
330
A02
100
AcDbEntity
  8
Fillet
100
AcDbCircle
 10
174.694879506
 20
46.521660475
 30
0.000000000
 40
8.380000000
100
AcDbArc
 50
-30.022446192
 51
-0.000028363
  0
LINE
  5
A29
330
A02
100
AcDbEntity
  8
Fillet
100
AcDbLine
 10
158.304076233
 20
1.408987526
 30
-2.000000000
 11
152.243311776
 21
-9.079073427
 31
-2.000000000
  0
LINE
  5
A2A
330
A02
100
AcDbEntity
  8
Fillet
100
AcDbLine
 10
152.243311776
 20
-9.079073427
 30
-2.000000000
 11
152.243311776
 21
-9.079073427
 31
0.000000000
  0
LINE
  5
A2B
330
A02
100
AcDbEntity
  8
Fillet
100
AcDbLine
 10
158.304076233
 20
1.408987526
 30
-2.000000000
 11
158.304076233
 21
1.408987526
 31
0.000000000
  0
LINE
  5
A2C
330
A02
100
AcDbEntity
  8
Fillet
100
AcDbLine
 10
158.304076233
 20
1.408987526
 30
0.000000000
 11
152.243311776
 21
-9.079073427
 31
0.000000000
  0
LINE
  5
A2D
330
A02
100
AcDbEntity
  8
Fillet
100
AcDbLine
 10
158.304076233
 20
1.408987526
 30
0.000000000
 11
181.950530359
 21
42.328817680
 31
0.000000000
  0
ARC
  5
A2E
330
A02
100
AcDbEntity
  8
Fillet
100
AcDbCircle
 10
174.694879506
 20
46.521660475
 30
0.000000000
 40
8.380000000
100
AcDbArc
 50
-30.022446192
 51
-0.000028363
  0
LINE
  5
A2F
330
A02
100
AcDbEntity
  8
Fillet
100
AcDbLine
 10
158.304076233
 20
1.408987526
 30
0.000000000
 11
152.243311776
 21
-9.079073427
 31
0.000000000
  0
LINE
  5
A30
330
A02
100
AcDbEntity
  8
Fillet
100
AcDbLine
 10
183.074879506
 20
46.521656327
 30
0.000000000
 11
183.074932536
 21
153.645271872
 31
0.000000000
  0
ARC
  5
A31
330
A02
100
AcDbEntity
  8
Fillet
100
AcDbCircle
 10
150.182637668
 20
-7.888266046
 30
0.000000000
 40
2.380000000
100
AcDbArc
 50
-119.942786869
 51
-30.022446192
  0
ARC
  5
A32
330
A02
100
AcDbEntity
  8
Fillet
100
AcDbCircle
 10
180.694932536
 20
153.645273051
 30
0.000000000
 40
2.380000000
100
AcDbArc
 50
-0.000028363
 51
90.000000000
  0
LINE
  5
A33
330
A02
100
AcDbEntity
  8
Fillet
100
AcDbLine
 10
148.994696428
 20
-9.950593762
 30
0.000000000
 11
90.361934715
 21
23.823027704
 31
0.000000000
  0
LINE
  5
A34
330
A02
100
AcDbEntity
  8
Fillet
100
AcDbLine
 10
180.694932536
 20
156.025273051
 30
0.000000000
 11
71.382540005
 21
156.025273051
 31
0.000000000
  0
ARC
  5
A35
330
A02
100
AcDbEntity
  8
Fillet
100
AcDbCircle
 10
86.179183627
 20
16.561554483
 30
0.000000000
 40
8.380000000
100
AcDbArc
 50
60.057213131
 51
90.000000000
  0
ARC
  5
A36
330
A02
100
AcDbEntity
  8
Fillet
100
AcDbCircle
 10
71.382540005
 20
153.645273051
 30
0.000000000
 40
2.380000000
100
AcDbArc
 50
90.000000000
 51
180.000000000
  0
LINE
  5
A37
330
A02
100
AcDbEntity
  8
Fillet
100
AcDbLine
 10
76.203911608
 20
24.941554483
 30
0.000000000
 11
86.179183627
 21
24.941554483
 31
0.000000000
  0
LINE
  5
A38
330
A02
100
AcDbEntity
  8
Fillet
100
AcDbLine
 10
69.002540005
 20
153.645273051
 30
0.000000000
 11
69.002540005
 21
153.643281687
 31
0.000000000
  0
LINE
  5
A39
330
A02
100
AcDbEntity
  8
Fillet
100
AcDbLine
 10
66.734000508
 20
24.941554483
 30
0.000000000
 11
76.203911608
 21
24.941554483
 31
0.000000000
  0
LINE
  5
A3A
330
A02
100
AcDbEntity
  8
Fillet
100
AcDbLine
 10
69.002540005
 20
153.643281687
 30
0.000000000
 11
52.332628905
 21
153.643281687
 31
0.000000000
  0
ARC
  5
A3B
330
A02
100
AcDbEntity
  8
Fillet
100
AcDbCircle
 10
66.734000508
 20
22.561554483
 30
0.000000000
 40
2.380000000
100
AcDbArc
 50
90.000000000
 51
180.000000000
  0
ARC
  5
A3C
330
A02
100
AcDbEntity
  8
Fillet
100
AcDbCircle
 10
52.332628905
 20
151.263281687
 30
0.000000000
 40
2.380000000
100
AcDbArc
 50
90.000000000
 51
180.000000000
  0
LINE
  5
A3D
330
A02
100
AcDbEntity
  8
Fillet
100
AcDbLine
 10
64.354000508
 20
20.176012192
 30
0.000000000
 11
64.354000508
 21
22.561554483
 31
0.000000000
  0
LINE
  5
A3E
330
A02
100
AcDbEntity
  8
Fillet
100
AcDbLine
 10
49.952628905
 20
151.263281687
 30
0.000000000
 11
49.952628905
 21
148.880254001
 31
0.000000000
  0
ARC
  5
A3F
330
A02
100
AcDbEntity
  8
Fillet
100
AcDbCircle
 10
61.974000508
 20
20.176012192
 30
0.000000000
 40
2.380000000
100
AcDbArc
 50
-90.000000000
 51
-0.000000000
  0
ARC
  5
A40
330
A02
100
AcDbEntity
  8
Fillet
100
AcDbCircle
 10
47.572628905
 20
148.880254001
 30
0.000000000
 40
2.380000000
100
AcDbArc
 50
-90.000000000
 51
0.000000000
  0
LINE
  5
A41
330
A02
100
AcDbEntity
  8
Fillet
100
AcDbLine
 10
14.233009906
 20
17.796012192
 30
0.000000000
 11
61.974000508
 21
17.796012192
 31
0.000000000
  0
LINE
  5
A42
330
A02
100
AcDbEntity
  8
Fillet
100
AcDbLine
 10
47.572628905
 20
146.500254001
 30
0.000000000
 11
14.233009906
 21
146.500254001
 31
0.000000000
  0
ARC
  5
A43
330
A02
100
AcDbEntity
  8
Fillet
100
AcDbCircle
 10
14.233009906
 20
20.176012192
 30
0.000000000
 40
2.380000000
100
AcDbArc
 50
180.000000000
 51
-90.000000000
  0
ARC
  5
A44
330
A02
100
AcDbEntity
  8
Fillet
100
AcDbCircle
 10
14.233009906
 20
144.120254001
 30
0.000000000
 40
2.380000000
100
AcDbArc
 50
90.000000000
 51
180.000000000
  0
LINE
  5
A45
330
A02
100
AcDbEntity
  8
Fillet
100
AcDbLine
 10
11.853009906
 20
144.120254001
 30
0.000000000
 11
11.853009906
 21
20.176012192
 31
0.000000000
  0
LINE
  5
A46
330
A02
100
AcDbEntity
  8
Fillet
100
AcDbLine
 10
183.074879506
 20
46.521656327
 30
-2.000000000
 11
183.074932536
 21
153.645271872
 31
-2.000000000
  0
LINE
  5
A47
330
A02
100
AcDbEntity
  8
Fillet
100
AcDbLine
 10
183.074879506
 20
46.521656327
 30
-2.000000000
 11
183.074879506
 21
46.521656327
 31
0.000000000
  0
LINE
  5
A48
330
A02
100
AcDbEntity
  8
Fillet
100
AcDbLine
 10
183.074932536
 20
153.645271872
 30
-2.000000000
 11
183.074932536
 21
153.645271872
 31
0.000000000
  0
LINE
  5
A49
330
A02
100
AcDbEntity
  8
Fillet
100
AcDbLine
 10
183.074879506
 20
46.521656327
 30
0.000000000
 11
183.074932536
 21
153.645271872
 31
0.000000000
  0
ARC
  5
A4A
330
A02
100
AcDbEntity
  8
Fillet
100
AcDbCircle
 10
150.182637668
 20
-7.888266046
 30
-2.000000000
 40
2.380000000
100
AcDbArc
 50
-119.942786869
 51
-30.022446192
  0
LINE
  5
A4B
330
A02
100
AcDbEntity
  8
Fillet
100
AcDbLine
 10
148.994696428
 20
-9.950593762
 30
-2.000000000
 11
148.994696428
 21
-9.950593762
 31
0.000000000
  0
LINE
  5
A4C
330
A02
100
AcDbEntity
  8
Fillet
100
AcDbLine
 10
152.243311776
 20
-9.079073427
 30
-2.000000000
 11
152.243311776
 21
-9.079073427
 31
0.000000000
  0
ARC
  5
A4D
330
A02
100
AcDbEntity
  8
Fillet
100
AcDbCircle
 10
150.182637668
 20
-7.888266046
 30
0.000000000
 40
2.380000000
100
AcDbArc
 50
-119.942786869
 51
-30.022446192
  0
ARC
  5
A4E
330
A02
100
AcDbEntity
  8
Fillet
100
AcDbCircle
 10
180.694932536
 20
153.645273051
 30
-2.000000000
 40
2.380000000
100
AcDbArc
 50
-0.000028363
 51
90.000000000
  0
LINE
  5
A4F
330
A02
100
AcDbEntity
  8
Fillet
100
AcDbLine
 10
183.074932536
 20
153.645271872
 30
-2.000000000
 11
183.074932536
 21
153.645271872
 31
0.000000000
  0
LINE
  5
A50
330
A02
100
AcDbEntity
  8
Fillet
100
AcDbLine
 10
180.694932536
 20
156.025273051
 30
-2.000000000
 11
180.694932536
 21
156.025273051
 31
0.000000000
  0
ARC
  5
A51
330
A02
100
AcDbEntity
  8
Fillet
100
AcDbCircle
 10
180.694932536
 20
153.645273051
 30
0.000000000
 40
2.380000000
100
AcDbArc
 50
-0.000028363
 51
90.000000000
  0
LINE
  5
A52
330
A02
100
AcDbEntity
  8
Fillet
100
AcDbLine
 10
148.994696428
 20
-9.950593762
 30
-2.000000000
 11
90.361934715
 21
23.823027704
 31
-2.000000000
  0
LINE
  5
A53
330
A02
100
AcDbEntity
  8
Fillet
100
AcDbLine
 10
148.994696428
 20
-9.950593762
 30
-2.000000000
 11
148.994696428
 21
-9.950593762
 31
0.000000000
  0
LINE
  5
A54
330
A02
100
AcDbEntity
  8
Fillet
100
AcDbLine
 10
90.361934715
 20
23.823027704
 30
-2.000000000
 11
90.361934715
 21
23.823027704
 31
0.000000000
  0
LINE
  5
A55
330
A02
100
AcDbEntity
  8
Fillet
100
AcDbLine
 10
148.994696428
 20
-9.950593762
 30
0.000000000
 11
90.361934715
 21
23.823027704
 31
0.000000000
  0
LINE
  5
A56
330
A02
100
AcDbEntity
  8
Fillet
100
AcDbLine
 10
180.694932536
 20
156.025273051
 30
-2.000000000
 11
71.382540005
 21
156.025273051
 31
-2.000000000
  0
LINE
  5
A57
330
A02
100
AcDbEntity
  8
Fillet
100
AcDbLine
 10
180.694932536
 20
156.025273051
 30
-2.000000000
 11
180.694932536
 21
156.025273051
 31
0.000000000
  0
LINE
  5
A58
330
A02
100
AcDbEntity
  8
Fillet
100
AcDbLine
 10
71.382540005
 20
156.025273051
 30
-2.000000000
 11
71.382540005
 21
156.025273051
 31
0.000000000
  0
LINE
  5
A59
330
A02
100
AcDbEntity
  8
Fillet
100
AcDbLine
 10
180.694932536
 20
156.025273051
 30
0.000000000
 11
71.382540005
 21
156.025273051
 31
0.000000000
  0
ARC
  5
A5A
330
A02
100
AcDbEntity
  8
Fillet
100
AcDbCircle
 10
86.179183627
 20
16.561554483
 30
-2.000000000
 40
8.380000000
100
AcDbArc
 50
60.057213131
 51
90.000000000
  0
LINE
  5
A5B
330
A02
100
AcDbEntity
  8
Fillet
100
AcDbLine
 10
86.179183627
 20
24.941554483
 30
-2.000000000
 11
86.179183627
 21
24.941554483
 31
0.000000000
  0
LINE
  5
A5C
330
A02
100
AcDbEntity
  8
Fillet
100
AcDbLine
 10
90.361934715
 20
23.823027704
 30
-2.000000000
 11
90.361934715
 21
23.823027704
 31
0.000000000
  0
ARC
  5
A5D
330
A02
100
AcDbEntity
  8
Fillet
100
AcDbCircle
 10
86.179183627
 20
16.561554483
 30
0.000000000
 40
8.380000000
100
AcDbArc
 50
60.057213131
 51
90.000000000
  0
ARC
  5
A5E
330
A02
100
AcDbEntity
  8
Fillet
100
AcDbCircle
 10
71.382540005
 20
153.645273051
 30
-2.000000000
 40
2.380000000
100
AcDbArc
 50
90.000000000
 51
180.000000000
  0
LINE
  5
A5F
330
A02
100
AcDbEntity
  8
Fillet
100
AcDbLine
 10
71.382540005
 20
156.025273051
 30
-2.000000000
 11
71.382540005
 21
156.025273051
 31
0.000000000
  0
LINE
  5
A60
330
A02
100
AcDbEntity
  8
Fillet
100
AcDbLine
 10
69.002540005
 20
153.645273051
 30
-2.000000000
 11
69.002540005
 21
153.645273051
 31
0.000000000
  0
ARC
  5
A61
330
A02
100
AcDbEntity
  8
Fillet
100
AcDbCircle
 10
71.382540005
 20
153.645273051
 30
0.000000000
 40
2.380000000
100
AcDbArc
 50
90.000000000
 51
180.000000000
  0
LINE
  5
A62
330
A02
100
AcDbEntity
  8
Fillet
100
AcDbLine
 10
76.203911608
 20
24.941554483
 30
-2.000000000
 11
86.179183627
 21
24.941554483
 31
-2.000000000
  0
LINE
  5
A63
330
A02
100
AcDbEntity
  8
Fillet
100
AcDbLine
 10
86.179183627
 20
24.941554483
 30
-2.000000000
 11
86.179183627
 21
24.941554483
 31
0.000000000
  0
LINE
  5
A64
330
A02
100
AcDbEntity
  8
Fillet
100
AcDbLine
 10
76.203911608
 20
24.941554483
 30
-2.000000000
 11
76.203911608
 21
24.941554483
 31
0.000000000
  0
LINE
  5
A65
330
A02
100
AcDbEntity
  8
Fillet
100
AcDbLine
 10
76.203911608
 20
24.941554483
 30
0.000000000
 11
86.179183627
 21
24.941554483
 31
0.000000000
  0
LINE
  5
A66
330
A02
100
AcDbEntity
  8
Fillet
100
AcDbLine
 10
69.002540005
 20
153.645273051
 30
-2.000000000
 11
69.002540005
 21
153.643281687
 31
-2.000000000
  0
LINE
  5
A67
330
A02
100
AcDbEntity
  8
Fillet
100
AcDbLine
 10
69.002540005
 20
153.645273051
 30
-2.000000000
 11
69.002540005
 21
153.645273051
 31
0.000000000
  0
LINE
  5
A68
330
A02
100
AcDbEntity
  8
Fillet
100
AcDbLine
 10
69.002540005
 20
153.643281687
 30
-2.000000000
 11
69.002540005
 21
153.643281687
 31
0.000000000
  0
LINE
  5
A69
330
A02
100
AcDbEntity
  8
Fillet
100
AcDbLine
 10
69.002540005
 20
153.645273051
 30
0.000000000
 11
69.002540005
 21
153.643281687
 31
0.000000000
  0
LINE
  5
A6A
330
A02
100
AcDbEntity
  8
Fillet
100
AcDbLine
 10
66.734000508
 20
24.941554483
 30
-2.000000000
 11
76.203911608
 21
24.941554483
 31
-2.000000000
  0
LINE
  5
A6B
330
A02
100
AcDbEntity
  8
Fillet
100
AcDbLine
 10
66.734000508
 20
24.941554483
 30
-2.000000000
 11
66.734000508
 21
24.941554483
 31
0.000000000
  0
LINE
  5
A6C
330
A02
100
AcDbEntity
  8
Fillet
100
AcDbLine
 10
76.203911608
 20
24.941554483
 30
-2.000000000
 11
76.203911608
 21
24.941554483
 31
0.000000000
  0
LINE
  5
A6D
330
A02
100
AcDbEntity
  8
Fillet
100
AcDbLine
 10
66.734000508
 20
24.941554483
 30
0.000000000
 11
76.203911608
 21
24.941554483
 31
0.000000000
  0
LINE
  5
A6E
330
A02
100
AcDbEntity
  8
Fillet
100
AcDbLine
 10
69.002540005
 20
153.643281687
 30
-2.000000000
 11
52.332628905
 21
153.643281687
 31
-2.000000000
  0
LINE
  5
A6F
330
A02
100
AcDbEntity
  8
Fillet
100
AcDbLine
 10
52.332628905
 20
153.643281687
 30
-2.000000000
 11
52.332628905
 21
153.643281687
 31
0.000000000
  0
LINE
  5
A70
330
A02
100
AcDbEntity
  8
Fillet
100
AcDbLine
 10
69.002540005
 20
153.643281687
 30
-2.000000000
 11
69.002540005
 21
153.643281687
 31
0.000000000
  0
LINE
  5
A71
330
A02
100
AcDbEntity
  8
Fillet
100
AcDbLine
 10
69.002540005
 20
153.643281687
 30
0.000000000
 11
52.332628905
 21
153.643281687
 31
0.000000000
  0
ARC
  5
A72
330
A02
100
AcDbEntity
  8
Fillet
100
AcDbCircle
 10
66.734000508
 20
22.561554483
 30
-2.000000000
 40
2.380000000
100
AcDbArc
 50
90.000000000
 51
180.000000000
  0
LINE
  5
A73
330
A02
100
AcDbEntity
  8
Fillet
100
AcDbLine
 10
64.354000508
 20
22.561554483
 30
-2.000000000
 11
64.354000508
 21
22.561554483
 31
0.000000000
  0
LINE
  5
A74
330
A02
100
AcDbEntity
  8
Fillet
100
AcDbLine
 10
66.734000508
 20
24.941554483
 30
-2.000000000
 11
66.734000508
 21
24.941554483
 31
0.000000000
  0
ARC
  5
A75
330
A02
100
AcDbEntity
  8
Fillet
100
AcDbCircle
 10
66.734000508
 20
22.561554483
 30
0.000000000
 40
2.380000000
100
AcDbArc
 50
90.000000000
 51
180.000000000
  0
ARC
  5
A76
330
A02
100
AcDbEntity
  8
Fillet
100
AcDbCircle
 10
52.332628905
 20
151.263281687
 30
-2.000000000
 40
2.380000000
100
AcDbArc
 50
90.000000000
 51
180.000000000
  0
LINE
  5
A77
330
A02
100
AcDbEntity
  8
Fillet
100
AcDbLine
 10
52.332628905
 20
153.643281687
 30
-2.000000000
 11
52.332628905
 21
153.643281687
 31
0.000000000
  0
LINE
  5
A78
330
A02
100
AcDbEntity
  8
Fillet
100
AcDbLine
 10
49.952628905
 20
151.263281687
 30
-2.000000000
 11
49.952628905
 21
151.263281687
 31
0.000000000
  0
ARC
  5
A79
330
A02
100
AcDbEntity
  8
Fillet
100
AcDbCircle
 10
52.332628905
 20
151.263281687
 30
0.000000000
 40
2.380000000
100
AcDbArc
 50
90.000000000
 51
180.000000000
  0
LINE
  5
A7A
330
A02
100
AcDbEntity
  8
Fillet
100
AcDbLine
 10
64.354000508
 20
20.176012192
 30
-2.000000000
 11
64.354000508
 21
22.561554483
 31
-2.000000000
  0
LINE
  5
A7B
330
A02
100
AcDbEntity
  8
Fillet
100
AcDbLine
 10
64.354000508
 20
20.176012192
 30
-2.000000000
 11
64.354000508
 21
20.176012192
 31
0.000000000
  0
LINE
  5
A7C
330
A02
100
AcDbEntity
  8
Fillet
100
AcDbLine
 10
64.354000508
 20
22.561554483
 30
-2.000000000
 11
64.354000508
 21
22.561554483
 31
0.000000000
  0
LINE
  5
A7D
330
A02
100
AcDbEntity
  8
Fillet
100
AcDbLine
 10
64.354000508
 20
20.176012192
 30
0.000000000
 11
64.354000508
 21
22.561554483
 31
0.000000000
  0
LINE
  5
A7E
330
A02
100
AcDbEntity
  8
Fillet
100
AcDbLine
 10
49.952628905
 20
151.263281687
 30
-2.000000000
 11
49.952628905
 21
148.880254001
 31
-2.000000000
  0
LINE
  5
A7F
330
A02
100
AcDbEntity
  8
Fillet
100
AcDbLine
 10
49.952628905
 20
151.263281687
 30
-2.000000000
 11
49.952628905
 21
151.263281687
 31
0.000000000
  0
LINE
  5
A80
330
A02
100
AcDbEntity
  8
Fillet
100
AcDbLine
 10
49.952628905
 20
148.880254001
 30
-2.000000000
 11
49.952628905
 21
148.880254001
 31
0.000000000
  0
LINE
  5
A81
330
A02
100
AcDbEntity
  8
Fillet
100
AcDbLine
 10
49.952628905
 20
151.263281687
 30
0.000000000
 11
49.952628905
 21
148.880254001
 31
0.000000000
  0
ARC
  5
A82
330
A02
100
AcDbEntity
  8
Fillet
100
AcDbCircle
 10
61.974000508
 20
20.176012192
 30
-2.000000000
 40
2.380000000
100
AcDbArc
 50
-90.000000000
 51
-0.000000000
  0
LINE
  5
A83
330
A02
100
AcDbEntity
  8
Fillet
100
AcDbLine
 10
61.974000508
 20
17.796012192
 30
-2.000000000
 11
61.974000508
 21
17.796012192
 31
0.000000000
  0
LINE
  5
A84
330
A02
100
AcDbEntity
  8
Fillet
100
AcDbLine
 10
64.354000508
 20
20.176012192
 30
-2.000000000
 11
64.354000508
 21
20.176012192
 31
0.000000000
  0
ARC
  5
A85
330
A02
100
AcDbEntity
  8
Fillet
100
AcDbCircle
 10
61.974000508
 20
20.176012192
 30
0.000000000
 40
2.380000000
100
AcDbArc
 50
-90.000000000
 51
-0.000000000
  0
ARC
  5
A86
330
A02
100
AcDbEntity
  8
Fillet
100
AcDbCircle
 10
47.572628905
 20
148.880254001
 30
-2.000000000
 40
2.380000000
100
AcDbArc
 50
-90.000000000
 51
0.000000000
  0
LINE
  5
A87
330
A02
100
AcDbEntity
  8
Fillet
100
AcDbLine
 10
49.952628905
 20
148.880254001
 30
-2.000000000
 11
49.952628905
 21
148.880254001
 31
0.000000000
  0
LINE
  5
A88
330
A02
100
AcDbEntity
  8
Fillet
100
AcDbLine
 10
47.572628905
 20
146.500254001
 30
-2.000000000
 11
47.572628905
 21
146.500254001
 31
0.000000000
  0
ARC
  5
A89
330
A02
100
AcDbEntity
  8
Fillet
100
AcDbCircle
 10
47.572628905
 20
148.880254001
 30
0.000000000
 40
2.380000000
100
AcDbArc
 50
-90.000000000
 51
0.000000000
  0
LINE
  5
A8A
330
A02
100
AcDbEntity
  8
Fillet
100
AcDbLine
 10
14.233009906
 20
17.796012192
 30
-2.000000000
 11
61.974000508
 21
17.796012192
 31
-2.000000000
  0
LINE
  5
A8B
330
A02
100
AcDbEntity
  8
Fillet
100
AcDbLine
 10
14.233009906
 20
17.796012192
 30
-2.000000000
 11
14.233009906
 21
17.796012192
 31
0.000000000
  0
LINE
  5
A8C
330
A02
100
AcDbEntity
  8
Fillet
100
AcDbLine
 10
61.974000508
 20
17.796012192
 30
-2.000000000
 11
61.974000508
 21
17.796012192
 31
0.000000000
  0
LINE
  5
A8D
330
A02
100
AcDbEntity
  8
Fillet
100
AcDbLine
 10
14.233009906
 20
17.796012192
 30
0.000000000
 11
61.974000508
 21
17.796012192
 31
0.000000000
  0
LINE
  5
A8E
330
A02
100
AcDbEntity
  8
Fillet
100
AcDbLine
 10
47.572628905
 20
146.500254001
 30
-2.000000000
 11
14.233009906
 21
146.500254001
 31
-2.000000000
  0
LINE
  5
A8F
330
A02
100
AcDbEntity
  8
Fillet
100
AcDbLine
 10
47.572628905
 20
146.500254001
 30
-2.000000000
 11
47.572628905
 21
146.500254001
 31
0.000000000
  0
LINE
  5
A90
330
A02
100
AcDbEntity
  8
Fillet
100
AcDbLine
 10
14.233009906
 20
146.500254001
 30
-2.000000000
 11
14.233009906
 21
146.500254001
 31
0.000000000
  0
LINE
  5
A91
330
A02
100
AcDbEntity
  8
Fillet
100
AcDbLine
 10
47.572628905
 20
146.500254001
 30
0.000000000
 11
14.233009906
 21
146.500254001
 31
0.000000000
  0
ARC
  5
A92
330
A02
100
AcDbEntity
  8
Fillet
100
AcDbCircle
 10
14.233009906
 20
20.176012192
 30
-2.000000000
 40
2.380000000
100
AcDbArc
 50
180.000000000
 51
-90.000000000
  0
LINE
  5
A93
330
A02
100
AcDbEntity
  8
Fillet
100
AcDbLine
 10
11.853009906
 20
20.176012192
 30
-2.000000000
 11
11.853009906
 21
20.176012192
 31
0.000000000
  0
LINE
  5
A94
330
A02
100
AcDbEntity
  8
Fillet
100
AcDbLine
 10
14.233009906
 20
17.796012192
 30
-2.000000000
 11
14.233009906
 21
17.796012192
 31
0.000000000
  0
ARC
  5
A95
330
A02
100
AcDbEntity
  8
Fillet
100
AcDbCircle
 10
14.233009906
 20
20.176012192
 30
0.000000000
 40
2.380000000
100
AcDbArc
 50
180.000000000
 51
-90.000000000
  0
ARC
  5
A96
330
A02
100
AcDbEntity
  8
Fillet
100
AcDbCircle
 10
14.233009906
 20
144.120254001
 30
-2.000000000
 40
2.380000000
100
AcDbArc
 50
90.000000000
 51
180.000000000
  0
LINE
  5
A97
330
A02
100
AcDbEntity
  8
Fillet
100
AcDbLine
 10
14.233009906
 20
146.500254001
 30
-2.000000000
 11
14.233009906
 21
146.500254001
 31
0.000000000
  0
LINE
  5
A98
330
A02
100
AcDbEntity
  8
Fillet
100
AcDbLine
 10
11.853009906
 20
144.120254001
 30
-2.000000000
 11
11.853009906
 21
144.120254001
 31
0.000000000
  0
ARC
  5
A99
330
A02
100
AcDbEntity
  8
Fillet
100
AcDbCircle
 10
14.233009906
 20
144.120254001
 30
0.000000000
 40
2.380000000
100
AcDbArc
 50
90.000000000
 51
180.000000000
  0
LINE
  5
A9A
330
A02
100
AcDbEntity
  8
Fillet
100
AcDbLine
 10
11.853009906
 20
144.120254001
 30
-2.000000000
 11
11.853009906
 21
20.176012192
 31
-2.000000000
  0
LINE
  5
A9B
330
A02
100
AcDbEntity
  8
Fillet
100
AcDbLine
 10
11.853009906
 20
144.120254001
 30
-2.000000000
 11
11.853009906
 21
144.120254001
 31
0.000000000
  0
LINE
  5
A9C
330
A02
100
AcDbEntity
  8
Fillet
100
AcDbLine
 10
11.853009906
 20
20.176012192
 30
-2.000000000
 11
11.853009906
 21
20.176012192
 31
0.000000000
  0
LINE
  5
A9D
330
A02
100
AcDbEntity
  8
Fillet
100
AcDbLine
 10
11.853009906
 20
144.120254001
 30
0.000000000
 11
11.853009906
 21
20.176012192
 31
0.000000000
  0
CIRCLE
  5
A9E
330
A02
100
AcDbEntity
  8
Sketch005
100
AcDbCircle
 10
150.175313960
 20
-7.860966731
 30
0.000000000
 40
1.000000000
  0
CIRCLE
  5
A9F
330
A02
100
AcDbEntity
  8
Sketch005
100
AcDbCircle
 10
180.674878713
 20
44.918067402
 30
0.000000000
 40
1.000000000
  0
CIRCLE
  5
AA0
330
A02
100
AcDbEntity
  8
Sketch005
100
AcDbCircle
 10
180.674905619
 20
99.271670226
 30
0.000000000
 40
1.000000000
  0
CIRCLE
  5
AA1
330
A02
100
AcDbEntity
  8
Sketch005
100
AcDbCircle
 10
180.674932526
 20
153.625273051
 30
0.000000000
 40
1.000000000
  0
CIRCLE
  5
AA2
330
A02
100
AcDbEntity
  8
Sketch005
100
AcDbCircle
 10
107.524948000
 20
153.625273051
 30
0.000000000
 40
1.000000000
  0
CIRCLE
  5
AA3
330
A02
100
AcDbEntity
  8
Sketch005
100
AcDbCircle
 10
143.930008000
 20
153.625273051
 30
0.000000000
 40
1.000000000
  0
CIRCLE
  5
AA4
330
A02
100
AcDbEntity
  8
Sketch005
100
AcDbCircle
 10
71.402540005
 20
153.625273051
 30
0.000000000
 40
1.000000000
  0
CIRCLE
  5
AA5
330
A02
100
AcDbEntity
  8
Sketch005
100
AcDbCircle
 10
52.352628905
 20
151.243281687
 30
0.000000000
 40
1.000000000
  0
CIRCLE
  5
AA6
330
A02
100
AcDbEntity
  8
Sketch005
100
AcDbCircle
 10
14.253009906
 20
144.100254001
 30
0.000000000
 40
1.000000000
  0
CIRCLE
  5
AA7
330
A02
100
AcDbEntity
  8
Sketch005
100
AcDbCircle
 10
14.253009906
 20
91.468437000
 30
0.000000000
 40
1.000000000
  0
CIRCLE
  5
AA8
330
A02
100
AcDbEntity
  8
Sketch005
100
AcDbCircle
 10
14.253009906
 20
53.019207000
 30
0.000000000
 40
1.000000000
  0
CIRCLE
  5
AA9
330
A02
100
AcDbEntity
  8
Sketch005
100
AcDbCircle
 10
14.253009906
 20
20.196012192
 30
0.000000000
 40
1.000000000
  0
CIRCLE
  5
AAA
330
A02
100
AcDbEntity
  8
Sketch005
100
AcDbCircle
 10
61.954000508
 20
20.196012192
 30
0.000000000
 40
1.000000000
  0
CIRCLE
  5
AAB
330
A02
100
AcDbEntity
  8
Sketch005
100
AcDbCircle
 10
89.061908041
 20
27.341554483
 30
0.000000000
 40
1.000000000
  0
CIRCLE
  5
AAC
330
A02
100
AcDbEntity
  8
Sketch005
100
AcDbCircle
 10
112.020186233
 20
14.117135668
 30
0.000000000
 40
1.000000000
  0
CIRCLE
  5
AAD
330
A02
100
AcDbEntity
  8
Sketch006
100
AcDbCircle
 10
172.875031750
 20
145.824993650
 30
0.000000000
 40
1.000000000
  0
CIRCLE
  5
AAE
330
A02
100
AcDbEntity
  8
Sketch006
100
AcDbCircle
 10
76.203454407
 20
32.133604267
 30
0.000000000
 40
1.000000000
  0
CIRCLE
  5
AAF
330
A02
100
AcDbEntity
  8
Sketch006
100
AcDbCircle
 10
19.052578105
 20
24.995935992
 30
0.000000000
 40
1.000000000
  0
CIRCLE
  5
AB0
330
A02
100
AcDbEntity
  8
Sketch006
100
AcDbCircle
 10
38.101346203
 20
24.996189992
 30
0.000000000
 40
1.000000000
  0
CIRCLE
  5
AB1
330
A02
100
AcDbEntity
  8
Sketch006
100
AcDbCircle
 10
57.154178308
 20
24.989331979
 30
0.000000000
 40
1.000000000
  0
CIRCLE
  5
AB2
330
A02
100
AcDbEntity
  8
Sketch006
100
AcDbCircle
 10
98.851409703
 20
32.020828042
 30
0.000000000
 40
1.000000000
  0
CIRCLE
  5
AB3
330
A02
100
AcDbEntity
  8
Sketch006
100
AcDbCircle
 10
117.182880366
 20
27.101600203
 30
0.000000000
 40
1.000000000
  0
CIRCLE
  5
AB4
330
A02
100
AcDbEntity
  8
Sketch006
100
AcDbCircle
 10
19.052832106
 20
44.037846076
 30
0.000000000
 40
1.000000000
  0
CIRCLE
  5
AB5
330
A02
100
AcDbEntity
  8
Sketch006
100
AcDbCircle
 10
38.103632207
 20
44.047244094
 30
0.000000000
 40
1.000000000
  0
CIRCLE
  5
AB6
330
A02
100
AcDbEntity
  8
Sketch006
100
AcDbCircle
 10
55.249174498
 20
44.039370079
 30
0.000000000
 40
1.000000000
  0
CIRCLE
  5
AB7
330
A02
100
AcDbEntity
  8
Sketch006
100
AcDbCircle
 10
76.202692405
 20
53.563119126
 30
0.000000000
 40
1.000000000
  0
CIRCLE
  5
AB8
330
A02
100
AcDbEntity
  8
Sketch006
100
AcDbCircle
 10
95.252730505
 20
53.563119126
 30
0.000000000
 40
1.000000000
  0
CIRCLE
  5
AB9
330
A02
100
AcDbEntity
  8
Sketch006
100
AcDbCircle
 10
114.305054610
 20
51.182880366
 30
0.000000000
 40
1.000000000
  0
CIRCLE
  5
ABA
330
A02
100
AcDbEntity
  8
Sketch006
100
AcDbCircle
 10
133.353060706
 20
48.811023622
 30
0.000000000
 40
1.000000000
  0
CIRCLE
  5
ABB
330
A02
100
AcDbEntity
  8
Sketch006
100
AcDbCircle
 10
154.000000000
 20
48.811023622
 30
0.000000000
 40
1.000000000
  0
CIRCLE
  5
ABC
330
A02
100
AcDbEntity
  8
Sketch006
100
AcDbCircle
 10
172.974345949
 20
65.582931166
 30
0.000000000
 40
1.000000000
  0
CIRCLE
  5
ABD
330
A02
100
AcDbEntity
  8
Sketch006
100
AcDbCircle
 10
154.299974600
 20
65.899923800
 30
0.000000000
 40
1.000000000
  0
CIRCLE
  5
ABE
330
A02
100
AcDbEntity
  8
Sketch006
100
AcDbCircle
 10
133.354330709
 20
67.851663703
 30
0.000000000
 40
1.000000000
  0
CIRCLE
  5
ABF
330
A02
100
AcDbEntity
  8
Sketch006
100
AcDbCircle
 10
116.209296419
 20
67.852425705
 30
0.000000000
 40
1.000000000
  0
CIRCLE
  5
AC0
330
A02
100
AcDbEntity
  8
Sketch006
100
AcDbCircle
 10
95.252984506
 20
72.622047244
 30
0.000000000
 40
1.000000000
  0
CIRCLE
  5
AC1
330
A02
100
AcDbEntity
  8
Sketch006
100
AcDbCircle
 10
76.203962408
 20
72.622047244
 30
0.000000000
 40
1.000000000
  0
CIRCLE
  5
AC2
330
A02
100
AcDbEntity
  8
Sketch006
100
AcDbCircle
 10
55.249174498
 20
63.088646177
 30
0.000000000
 40
1.000000000
  0
CIRCLE
  5
AC3
330
A02
100
AcDbEntity
  8
Sketch006
100
AcDbCircle
 10
38.103632207
 20
63.097282195
 30
0.000000000
 40
1.000000000
  0
CIRCLE
  5
AC4
330
A02
100
AcDbEntity
  8
Sketch006
100
AcDbCircle
 10
19.052832106
 20
63.073152146
 30
0.000000000
 40
1.000000000
  0
CIRCLE
  5
AC5
330
A02
100
AcDbEntity
  8
Sketch006
100
AcDbCircle
 10
19.052832106
 20
82.143510287
 30
0.000000000
 40
1.000000000
  0
CIRCLE
  5
AC6
330
A02
100
AcDbEntity
  8
Sketch006
100
AcDbCircle
 10
38.104648209
 20
82.137922276
 30
0.000000000
 40
1.000000000
  0
CIRCLE
  5
AC7
330
A02
100
AcDbEntity
  8
Sketch006
100
AcDbCircle
 10
55.249174498
 20
82.137922276
 30
0.000000000
 40
1.000000000
  0
CIRCLE
  5
AC8
330
A02
100
AcDbEntity
  8
Sketch006
100
AcDbCircle
 10
76.202692405
 20
91.664719329
 30
0.000000000
 40
1.000000000
  0
CIRCLE
  5
AC9
330
A02
100
AcDbEntity
  8
Sketch006
100
AcDbCircle
 10
95.252984506
 20
91.673101346
 30
0.000000000
 40
1.000000000
  0
CIRCLE
  5
ACA
330
A02
100
AcDbEntity
  8
Sketch006
100
AcDbCircle
 10
114.305054610
 20
89.281432563
 30
0.000000000
 40
1.000000000
  0
CIRCLE
  5
ACB
330
A02
100
AcDbEntity
  8
Sketch006
100
AcDbCircle
 10
133.354330709
 20
86.901701803
 30
0.000000000
 40
1.000000000
  0
CIRCLE
  5
ACC
330
A02
100
AcDbEntity
  8
Sketch006
100
AcDbCircle
 10
152.403098806
 20
86.911099822
 30
0.000000000
 40
1.000000000
  0
CIRCLE
  5
ACD
330
A02
100
AcDbEntity
  8
Sketch006
100
AcDbCircle
 10
172.974345949
 20
83.870967742
 30
0.000000000
 40
1.000000000
  0
CIRCLE
  5
ACE
330
A02
100
AcDbEntity
  8
Sketch006
100
AcDbCircle
 10
151.000000000
 20
105.950215900
 30
0.000000000
 40
1.000000000
  0
CIRCLE
  5
ACF
330
A02
100
AcDbEntity
  8
Sketch006
100
AcDbCircle
 10
133.353568707
 20
105.950977902
 30
0.000000000
 40
1.000000000
  0
CIRCLE
  5
AD0
330
A02
100
AcDbEntity
  8
Sketch006
100
AcDbCircle
 10
114.305054610
 20
108.331470663
 30
0.000000000
 40
1.000000000
  0
CIRCLE
  5
AD1
330
A02
100
AcDbEntity
  8
Sketch006
100
AcDbCircle
 10
95.252730505
 20
110.713995428
 30
0.000000000
 40
1.000000000
  0
CIRCLE
  5
AD2
330
A02
100
AcDbEntity
  8
Sketch006
100
AcDbCircle
 10
76.202692405
 20
110.713995428
 30
0.000000000
 40
1.000000000
  0
CIRCLE
  5
AD3
330
A02
100
AcDbEntity
  8
Sketch006
100
AcDbCircle
 10
55.249174498
 20
101.189230378
 30
0.000000000
 40
1.000000000
  0
CIRCLE
  5
AD4
330
A02
100
AcDbEntity
  8
Sketch006
100
AcDbCircle
 10
38.103886208
 20
101.197866396
 30
0.000000000
 40
1.000000000
  0
CIRCLE
  5
AD5
330
A02
100
AcDbEntity
  8
Sketch006
100
AcDbCircle
 10
19.052832106
 20
101.196088392
 30
0.000000000
 40
1.000000000
  0
CIRCLE
  5
AD6
330
A02
100
AcDbEntity
  8
Sketch006
100
AcDbCircle
 10
19.053086106
 20
120.234188468
 30
0.000000000
 40
1.000000000
  0
CIRCLE
  5
AD7
330
A02
100
AcDbEntity
  8
Sketch006
100
AcDbCircle
 10
38.103886208
 20
120.247904496
 30
0.000000000
 40
1.000000000
  0
CIRCLE
  5
AD8
330
A02
100
AcDbEntity
  8
Sketch006
100
AcDbCircle
 10
55.249174498
 20
120.239268479
 30
0.000000000
 40
1.000000000
  0
CIRCLE
  5
AD9
330
A02
100
AcDbEntity
  8
Sketch006
100
AcDbCircle
 10
76.202692405
 20
129.764033528
 30
0.000000000
 40
1.000000000
  0
CIRCLE
  5
ADA
330
A02
100
AcDbEntity
  8
Sketch006
100
AcDbCircle
 10
95.252730505
 20
129.764033528
 30
0.000000000
 40
1.000000000
  0
CIRCLE
  5
ADB
330
A02
100
AcDbEntity
  8
Sketch006
100
AcDbCircle
 10
114.303022606
 20
127.391922784
 30
0.000000000
 40
1.000000000
  0
CIRCLE
  5
ADC
330
A02
100
AcDbEntity
  8
Sketch006
100
AcDbCircle
 10
133.353060706
 20
125.010922022
 30
0.000000000
 40
1.000000000
  0
CIRCLE
  5
ADD
330
A02
100
AcDbEntity
  8
Sketch006
100
AcDbCircle
 10
151.000000000
 20
125.002540005
 30
0.000000000
 40
1.000000000
  0
CIRCLE
  5
ADE
330
A02
100
AcDbEntity
  8
Sketch006
100
AcDbCircle
 10
19.054864110
 20
139.288544577
 30
0.000000000
 40
1.000000000
  0
CIRCLE
  5
ADF
330
A02
100
AcDbEntity
  8
Sketch006
100
AcDbCircle
 10
38.121920244
 20
139.300228600
 30
0.000000000
 40
1.000000000
  0
CIRCLE
  5
AE0
330
A02
100
AcDbEntity
  8
Sketch006
100
AcDbCircle
 10
57.153416307
 20
146.432816866
 30
0.000000000
 40
1.000000000
  0
CIRCLE
  5
AE1
330
A02
100
AcDbEntity
  8
Sketch006
100
AcDbCircle
 10
76.202692405
 20
148.813309627
 30
0.000000000
 40
1.000000000
  0
CIRCLE
  5
AE2
330
A02
100
AcDbEntity
  8
Sketch006
100
AcDbCircle
 10
95.246126492
 20
148.825247650
 30
0.000000000
 40
1.000000000
  0
CIRCLE
  5
AE3
330
A02
100
AcDbEntity
  8
Sketch006
100
AcDbCircle
 10
114.305054610
 20
146.432816866
 30
0.000000000
 40
1.000000000
  0
CIRCLE
  5
AE4
330
A02
100
AcDbEntity
  8
Sketch006
100
AcDbCircle
 10
133.354330709
 20
144.052578105
 30
0.000000000
 40
1.000000000
  0
CIRCLE
  5
AE5
330
A02
100
AcDbEntity
  8
Sketch006
100
AcDbCircle
 10
152.403606807
 20
144.052578105
 30
0.000000000
 40
1.000000000
  0
CIRCLE
  5
AE6
330
A02
100
AcDbEntity
  8
Sketch009
100
AcDbCircle
 10
152.070557000
 20
5.011988000
 30
0.000000000
 40
1.000000000
  0
CIRCLE
  5
AE7
330
A02
100
AcDbEntity
  8
Sketch009
100
AcDbCircle
 10
161.601532000
 20
21.505316000
 30
0.000000000
 40
1.000000000
  0
CIRCLE
  5
AE8
330
A02
100
AcDbEntity
  8
Sketch009
100
AcDbCircle
 10
135.566681000
 20
14.518166000
 30
0.000000000
 40
1.000000000
  0
CIRCLE
  5
AE9
330
A02
100
AcDbEntity
  8
Sketch009
100
AcDbCircle
 10
145.095963000
 20
31.033747000
 30
0.000000000
 40
1.000000000
  0
ENDSEC
  0
SECTION
  2
OBJECTS
  0
DICTIONARY
  5
F000
330
0
100
AcDbDictionary
  3
ACAD_GROUP
350
F001
  0
DICTIONARY
  5
F001
330
F000
100
AcDbDictionary
  0
ENDSEC
  0
EOF