999
dxfrw 0.6.3
  0
SECTION
  2
HEADER
  9
$ACADVER
  1
AC1021
  9
$DWGCODEPAGE
  3
ANSI_1252
  9
$INSBASE
 10
0
 20
0
 30
0
  9
$EXTMIN
 10
11.853009906
 20
-10.268266046
 30
0
  9
$EXTMAX
 10
183.074932536
 20
156.025273051
 30
0
  9
$LIMMIN
 10
0
 20
0
  9
$LIMMAX
 10
420
 20
297
  9
$ORTHOMODE
 70
    0
  9
$REGENMODE
 70
    1
  9
$FILLMODE
 70
    1
  9
$QTEXTMODE
 70
    0
  9
$MIRRTEXT
 70
    0
  9
$LTSCALE
 40
1
  9
$ATTMODE
 70
    0
  9
$TEXTSIZE
 40
2.5
  9
$TRACEWID
 40
15.68
  9
$TEXTSTYLE
  7
STANDARD
  9
$CLAYER
  8
0
  9
$CELTYPE
  6
BYLAYER
  9
$CECOLOR
 62
  256
  9
$CELTSCALE
 40
1
  9
$DISPSILH
 70
    0
  9
$DIMSCALE
 40
2.5
  9
$DIMASZ
 40
2.5
  9
$DIMEXO
 40
0.625
  9
$DIMDLI
 40
3.75
  9
$DIMRND
 40
0
  9
$DIMDLE
 40
0
  9
$DIMEXE
 40
1.25
  9
$DIMTP
 40
0
  9
$DIMTM
 40
0
  9
$DIMTXT
 40
2.5
  9
$DIMCEN
 40
2.5
  9
$DIMTSZ
 40
0
  9
$DIMTOL
 70
    0
  9
$DIMLIM
 70
    0
  9
$DIMTIH
 70
    0
  9
$DIMTOH
 70
    0
  9
$DIMSE1
 70
    0
  9
$DIMSE2
 70
    0
  9
$DIMTAD
 70
    1
  9
$DIMZIN
 70
    8
  9
$DIMBLK
  1

  9
$DIMASO
 70
    1
  9
$DIMSHO
 70
    1
  9
$DIMPOST
  1

  9
$DIMAPOST
  1

  9
$DIMALT
 70
    0
  9
$DIMALTD
 70
    3
  9
$DIMALTF
 40
0.03937
  9
$DIMLFAC
 40
1
  9
$DIMTOFL
 70
    1
  9
$DIMTVP
 40
0
  9
$DIMTIX
 70
    0
  9
$DIMSOXD
 70
    0
  9
$DIMSAH
 70
    0
  9
$DIMBLK1
  1

  9
$DIMBLK2
  1

  9
$DIMSTYLE
  2
STANDARD
  9
$DIMCLRD
 70
    0
  9
$DIMCLRE
 70
    0
  9
$DIMCLRT
 70
    0
  9
$DIMTFAC
 40
1
  9
$DIMGAP
 40
0.625
  9
$DIMJUST
 70
    0
  9
$DIMSD1
 70
    0
  9
$DIMSD2
 70
    0
  9
$DIMTOLJ
 70
    0
  9
$DIMTZIN
 70
    8
  9
$DIMALTZ
 70
    0
  9
$DIMALTTZ
 70
    0
  9
$DIMUPT
 70
    0
  9
$DIMDEC
 70
    2
  9
$DIMTDEC
 70
    2
  9
$DIMALTU
 70
    2
  9
$DIMALTTD
 70
    3
  9
$DIMTXSTY
  7
STANDARD
  9
$DIMAUNIT
 70
    0
  9
$DIMADEC
 70
    0
  9
$DIMALTRND
 40
0
  9
$DIMAZIN
 70
    0
  9
$DIMDSEP
 70
   44
  9
$DIMATFIT
 70
    3
  9
$DIMFRAC
 70
    0
  9
$DIMLDRBLK
  1
STANDARD
  9
$DIMLUNIT
 70
    2
  9
$DIMLWD
 70
   -2
  9
$DIMLWE
 70
   -2
  9
$DIMTMOVE
 70
    0
  9
$DIMFXL
 40
1
  9
$DIMFXLON
 70
    0
  9
$DIMJOGANG
 40
0.7854
  9
$DIMTFILL
 70
    0
  9
$DIMTFILLCLR
 70
    0
  9
$DIMARCSYM
 70
    0
  9
$DIMLTYPE
  6

  9
$DIMLTEX1
  6

  9
$DIMLTEX2
  6

  9
$LUNITS
 70
    2
  9
$LUPREC
 70
    4
  9
$SKETCHINC
 40
1
  9
$FILLETRAD
 40
0
  9
$AUNITS
 70
    0
  9
$AUPREC
 70
    2
  9
$MENU
  1
.
  9
$ELEVATION
 40
0
  9
$PELEVATION
 40
0
  9
$THICKNESS
 40
0
  9
$LIMCHECK
 70
    0
  9
$CHAMFERA
 40
0
  9
$CHAMFERB
 40
0
  9
$CHAMFERC
 40
0
  9
$CHAMFERD
 40
0
  9
$SKPOLY
 70
    0
  9
$USRTIMER
 70
    1
  9
$ANGBASE
 50
0
  9
$ANGDIR
 70
    0
  9
$PDMODE
 70
   34
  9
$PDSIZE
 40
0
  9
$PLINEWID
 40
0
  9
$SPLFRAME
 70
    0
  9
$SPLINETYPE
 70
    2
  9
$SPLINESEGS
 70
    8
  9
$HANDSEED
  5
20000
  9
$SURFTAB1
 70
    6
  9
$SURFTAB2
 70
    6
  9
$SURFTYPE
 70
    6
  9
$SURFU
 70
    6
  9
$SURFV
 70
    6
  9
$UCSBASE
  2

  9
$UCSNAME
  2

  9
$UCSORG
 10
0
 20
0
 30
0
  9
$UCSXDIR
 10
1
 20
0
 30
0
  9
$UCSYDIR
 10
0
 20
1
 30
0
  9
$UCSORTHOREF
  2

  9
$UCSORTHOVIEW
 70
    0
  9
$UCSORGTOP
 10
0
 20
0
 30
0
  9
$UCSORGBOTTOM
 10
0
 20
0
 30
0
  9
$UCSORGLEFT
 10
0
 20
0
 30
0
  9
$UCSORGRIGHT
 10
0
 20
0
 30
0
  9
$UCSORGFRONT
 10
0
 20
0
 30
0
  9
$UCSORGBACK
 10
0
 20
0
 30
0
  9
$PUCSBASE
  2

  9
$PUCSNAME
  2

  9
$PUCSORG
 10
0
 20
0
 30
0
  9
$PUCSXDIR
 10
1
 20
0
 30
0
  9
$PUCSYDIR
 10
0
 20
1
 30
0
  9
$PUCSORTHOREF
  2

  9
$PUCSORTHOVIEW
 70
    0
  9
$PUCSORGTOP
 10
0
 20
0
 30
0
  9
$PUCSORGBOTTOM
 10
0
 20
0
 30
0
  9
$PUCSORGLEFT
 10
0
 20
0
 30
0
  9
$PUCSORGRIGHT
 10
0
 20
0
 30
0
  9
$PUCSORGFRONT
 10
0
 20
0
 30
0
  9
$PUCSORGBACK
 10
0
 20
0
 30
0
  9
$USERI1
 70
    0
  9
$USERI2
 70
    0
  9
$USERI3
 70
    0
  9
$USERI4
 70
    0
  9
$USERI5
 70
    0
  9
$USERR1
 40
0
  9
$USERR2
 40
0
  9
$USERR3
 40
0
  9
$USERR4
 40
0
  9
$USERR5
 40
0
  9
$WORLDVIEW
 70
    1
  9
$SHADEDGE
 70
    3
  9
$SHADEDIF
 70
   70
  9
$TILEMODE
 70
    1
  9
$MAXACTVP
 70
   64
  9
$PINSBASE
 10
0
 20
0
 30
0
  9
$PLIMCHECK
 70
    0
  9
$PEXTMIN
 10
0
 20
0
 30
0
  9
$PEXTMAX
 10
50
 20
50
 30
50
  9
$GRIDMODE
 70
    0
  9
$SNAPSTYLE
 70
    0
  9
$PLIMMIN
 10
0
 20
0
  9
$PLIMMAX
 10
210
 20
297
  9
$UNITMODE
 70
    0
  9
$VISRETAIN
 70
    1
  9
$PLINEGEN
 70
    0
  9
$PSLTSCALE
 70
    1
  9
$TREEDEPTH
 70
 3020
  9
$CMLSTYLE
  2
STANDARD
  9
$CMLJUST
 70
    0
  9
$CMLSCALE
 40
20
  9
$PROXYGRAPHICS
 70
    1
  9
$MEASUREMENT
 70
    1
  9
$CELWEIGHT
370
   -1
  9
$ENDCAPS
280
    0
  9
$JOINSTYLE
280
    0
  9
$LWDISPLAY
290
    0
  9
$INSUNITS
 70
    4
  9
$HYPERLINKBASE
  1

  9
$STYLESHEET
  1

  9
$XEDIT
290
    1
  9
$CEPSNTYPE
380
    0
  9
$PSTYLEMODE
290
    1
  9
$EXTNAMES
290
    1
  9
$PSVPSCALE
 40
1
  9
$OLESTARTUP
290
    0
  9
$SORTENTS
280
  127
  9
$INDEXCTL
280
    0
  9
$HIDETEXT
280
    1
  9
$XCLIPFRAME
290
    0
  9
$HALOGAP
280
    0
  9
$OBSCOLOR
 70
  257
  9
$OBSLTYPE
280
    0
  9
$INTERSECTIONDISPLAY
280
    0
  9
$INTERSECTIONCOLOR
 70
  257
  9
$DIMASSOC
280
    1
  9
$PROJECTNAME
  1

  9
$CAMERADISPLAY
290
    0
  9
$LENSLENGTH
 40
50
  9
$CAMERAHEIGHT
 40
0
  9
$STEPSPERSEC
 40
2
  9
$STEPSIZE
 40
50
  9
$3DDWFPREC
 40
2
  9
$PSOLWIDTH
 40
5
  9
$PSOLHEIGHT
 40
80
  9
$LOFTANG1
 40
1.570796326794897
  9
$LOFTANG2
 40
1.570796326794897
  9
$LOFTMAG1
 40
0
  9
$LOFTMAG2
 40
0
  9
$LOFTPARAM
 70
    7
  9
$LOFTNORMALS
280
    1
  9
$LATITUDE
 40
1
  9
$LONGITUDE
 40
1
  9
$NORTHDIRECTION
 40
0
  9
$TIMEZONE
 70
-8000
  9
$LIGHTGLYPHDISPLAY
280
    1
  9
$TILEMODELIGHTSYNCH
280
    1
  9
$SOLIDHIST
280
    1
  9
$SHOWHIST
280
    1
  9
$DWFFRAME
280
    2
  9
$DGNFRAME
280
    0
  9
$REALWORLDSCALE
290
    1
  9
$INTERFERECOLOR
 62
    1
  9
$CSHADOW
280
    0
  9
$SHADOWPLANELOCATION
 40
0
  0
ENDSEC
  0
SECTION
  2
CLASSES
  0
ENDSEC
  0
SECTION
  2
TABLES
  0
TABLE
  2
VPORT
  5
8
330
0
100
AcDbSymbolTable
 70
    1
  0
VPORT
  5
31
330
2
100
AcDbSymbolTableRecord
100
AcDbViewportTableRecord
  2
*ACTIVE
 70
    0
 10
0
 20
0
 11
1
 21
1
 12
94.0913069834038
 22
23.16757369898804
 13
0
 23
0
 14
10
 24
10
 15
10
 25
10
 16
0
 26
0
 36
1
 17
0
 27
0
 37
0
 40
60.74827101355682
 41
1.611528822055138
 42
50
 43
0
 44
0
 50
0
 51
0
 71
    0
 72
  100
 73
    1
 74
    3
 75
    0
 76
    0
 77
    0
 78
    0
281
    0
 65
    1
110
0
120
0
130
0
111
1
121
0
131
0
112
0
122
1
132
0
 79
    0
146
0
348
10020
 60
    7
 61
    5
292
1
282
    1
141
0
142
0
 63
  250
421
3358443
  0
ENDTAB
  0
TABLE
  2
LTYPE
  5
5
330
0
100
AcDbSymbolTable
 70
    4
  0
LTYPE
  5
14
330
5
100
AcDbSymbolTableRecord
100
AcDbLinetypeTableRecord
  2
ByBlock
 70
    0
  3

 72
   65
 73
    0
 40
0
  0
LTYPE
  5
15
330
5
100
AcDbSymbolTableRecord
100
AcDbLinetypeTableRecord
  2
ByLayer
 70
    0
  3

 72
   65
 73
    0
 40
0
  0
LTYPE
  5
16
330
5
100
AcDbSymbolTableRecord
100
AcDbLinetypeTableRecord
  2
Continuous
 70
    0
  3
Solid line
 72
   65
 73
    0
 40
0
  0
LTYPE
  5
32
330
5
100
AcDbSymbolTableRecord
100
AcDbLinetypeTableRecord
  2
DOT
 70
    0
  3
Dot . . . . . . . . . . . . . . . . . . . . . .
 72
   65
 73
    2
 40
6.35
 49
0
 74
    0
 49
-6.35
 74
    0
  0
LTYPE
  5
33
330
5
100
AcDbSymbolTableRecord
100
AcDbLinetypeTableRecord
  2
DOTTINY
 70
    0
  3
Dot (.15x) .....................................
 72
   65
 73
    2
 40
0.9525
 49
0
 74
    0
 49
-0.9525
 74
    0
  0
LTYPE
  5
34
330
5
100
AcDbSymbolTableRecord
100
AcDbLinetypeTableRecord
  2
DOT2
 70
    0
  3
Dot (.5x) .....................................
 72
   65
 73
    2
 40
3.175
 49
0
 74
    0
 49
-3.175
 74
    0
  0
LTYPE
  5
35
330
5
100
AcDbSymbolTableRecord
100
AcDbLinetypeTableRecord
  2
DOTX2
 70
    0
  3
Dot (2x) .  .  .  .  .  .  .  .  .  .  .  .  .
 72
   65
 73
    2
 40
12.7
 49
0
 74
    0
 49
-12.7
 74
    0
  0
LTYPE
  5
36
330
5
100
AcDbSymbolTableRecord
100
AcDbLinetypeTableRecord
  2
DASHED
 70
    0
  3
Dashed _ _ _ _ _ _ _ _ _ _ _ _ _ _ _ _ _
 72
   65
 73
    2
 40
19.05
 49
12.7
 74
    0
 49
-6.35
 74
    0
  0
LTYPE
  5
37
330
5
100
AcDbSymbolTableRecord
100
AcDbLinetypeTableRecord
  2
DASHEDTINY
 70
    0
  3
Dashed (.15x) _ _ _ _ _ _ _ _ _ _ _ _ _ _ _ _ _
 72
   65
 73
    2
 40
2.8575
 49
1.905
 74
    0
 49
-0.9525
 74
    0
  0
LTYPE
  5
38
330
5
100
AcDbSymbolTableRecord
100
AcDbLinetypeTableRecord
  2
DASHED2
 70
    0
  3
Dashed (.5x) _ _ _ _ _ _ _ _ _ _ _ _ _ _ _ _ _
 72
   65
 73
    2
 40
9.524999999999999
 49
6.35
 74
    0
 49
-3.175
 74
    0
  0
LTYPE
  5
39
330
5
100
AcDbSymbolTableRecord
100
AcDbLinetypeTableRecord
  2
DASHEDX2
 70
    0
  3
Dashed (2x) ____  ____  ____  ____  ____  ___
 72
   65
 73
    2
 40
38.09999999999999
 49
25.4
 74
    0
 49
-12.7
 74
    0
  0
LTYPE
  5
3A
330
5
100
AcDbSymbolTableRecord
100
AcDbLinetypeTableRecord
  2
DASHDOT
 70
    0
  3
Dash dot __ . __ . __ . __ . __ . __ . __ . __
 72
   65
 73
    4
 40
25.4
 49
12.7
 74
    0
 49
-6.35
 74
    0
 49
0
 74
    0
 49
-6.35
 74
    0
  0
LTYPE
  5
3B
330
5
100
AcDbSymbolTableRecord
100
AcDbLinetypeTableRecord
  2
DASHDOTTINY
 70
    0
  3
Dash dot (.15x) _._._._._._._._._._._._._._._.
 72
   65
 73
    4
 40
3.81
 49
1.905
 74
    0
 49
-0.9525
 74
    0
 49
0
 74
    0
 49
-0.9525
 74
    0
  0
LTYPE
  5
3C
330
5
100
AcDbSymbolTableRecord
100
AcDbLinetypeTableRecord
  2
DASHDOT2
 70
    0
  3
Dash dot (.5x) _._._._._._._._._._._._._._._.
 72
   65
 73
    4
 40
12.7
 49
6.35
 74
    0
 49
-3.175
 74
    0
 49
0
 74
    0
 49
-3.175
 74
    0
  0
LTYPE
  5
3D
330
5
100
AcDbSymbolTableRecord
100
AcDbLinetypeTableRecord
  2
DASHDOTX2
 70
    0
  3
Dash dot (2x) ____  .  ____  .  ____  .  ___
 72
   65
 73
    4
 40
50.8
 49
25.4
 74
    0
 49
-12.7
 74
    0
 49
0
 74
    0
 49
-12.7
 74
    0
  0
LTYPE
  5
3E
330
5
100
AcDbSymbolTableRecord
100
AcDbLinetypeTableRecord
  2
DIVIDE
 70
    0
  3
Divide ____ . . ____ . . ____ . . ____ . . ____
 72
   65
 73
    6
 40
31.75
 49
12.7
 74
    0
 49
-6.35
 74
    0
 49
0
 74
    0
 49
-6.35
 74
    0
 49
0
 74
    0
 49
-6.35
 74
    0
  0
LTYPE
  5
3F
330
5
100
AcDbSymbolTableRecord
100
AcDbLinetypeTableRecord
  2
DIVIDETINY
 70
    0
  3
Divide (.15x) __..__..__..__..__..__..__..__.._
 72
   65
 73
    6
 40
4.7625
 49
1.905
 74
    0
 49
-0.9525
 74
    0
 49
0
 74
    0
 49
-0.9525
 74
    0
 49
0
 74
    0
 49
-0.9525
 74
    0
  0
LTYPE
  5
40
330
5
100
AcDbSymbolTableRecord
100
AcDbLinetypeTableRecord
  2
DIVIDE2
 70
    0
  3
Divide (.5x) __..__..__..__..__..__..__..__.._
 72
   65
 73
    6
 40
15.875
 49
6.35
 74
    0
 49
-3.175
 74
    0
 49
0
 74
    0
 49
-3.175
 74
    0
 49
0
 74
    0
 49
-3.175
 74
    0
  0
LTYPE
  5
41
330
5
100
AcDbSymbolTableRecord
100
AcDbLinetypeTableRecord
  2
DIVIDEX2
 70
    0
  3
Divide (2x) ________  .  .  ________  .  .  _
 72
   65
 73
    6
 40
63.5
 49
25.4
 74
    0
 49
-12.7
 74
    0
 49
0
 74
    0
 49
-12.7
 74
    0
 49
0
 74
    0
 49
-12.7
 74
    0
  0
LTYPE
  5
42
330
5
100
AcDbSymbolTableRecord
100
AcDbLinetypeTableRecord
  2
BORDER
 70
    0
  3
Border __ __ . __ __ . __ __ . __ __ . __ __ .
 72
   65
 73
    6
 40
44.45
 49
12.7
 74
    0
 49
-6.35
 74
    0
 49
12.7
 74
    0
 49
-6.35
 74
    0
 49
0
 74
    0
 49
-6.35
 74
    0
  0
LTYPE
  5
43
330
5
100
AcDbSymbolTableRecord
100
AcDbLinetypeTableRecord
  2
BORDERTINY
 70
    0
  3
Border (.15x) __.__.__.__.__.__.__.__.__.__.__.
 72
   65
 73
    6
 40
6.6675
 49
1.905
 74
    0
 49
-0.9525
 74
    0
 49
1.905
 74
    0
 49
-0.9525
 74
    0
 49
0
 74
    0
 49
-0.9525
 74
    0
  0
LTYPE
  5
44
330
5
100
AcDbSymbolTableRecord
100
AcDbLinetypeTableRecord
  2
BORDER2
 70
    0
  3
Border (.5x) __.__.__.__.__.__.__.__.__.__.__.
 72
   65
 73
    6
 40
22.225
 49
6.35
 74
    0
 49
-3.175
 74
    0
 49
6.35
 74
    0
 49
-3.175
 74
    0
 49
0
 74
    0
 49
-3.175
 74
    0
  0
LTYPE
  5
45
330
5
100
AcDbSymbolTableRecord
100
AcDbLinetypeTableRecord
  2
BORDERX2
 70
    0
  3
Border (2x) ____  ____  .  ____  ____  .  ___
 72
   65
 73
    6
 40
88.89999999999999
 49
25.4
 74
    0
 49
-12.7
 74
    0
 49
25.4
 74
    0
 49
-12.7
 74
    0
 49
0
 74
    0
 49
-12.7
 74
    0
  0
LTYPE
  5
46
330
5
100
AcDbSymbolTableRecord
100
AcDbLinetypeTableRecord
  2
CENTER
 70
    0
  3
Center ____ _ ____ _ ____ _ ____ _ ____ _ ____
 72
   65
 73
    4
 40
50.8
 49
31.75
 74
    0
 49
-6.35
 74
    0
 49
6.35
 74
    0
 49
-6.35
 74
    0
  0
LTYPE
  5
47
330
5
100
AcDbSymbolTableRecord
100
AcDbLinetypeTableRecord
  2
CENTERTINY
 70
    0
  3
Center (.15x) ___ _ ___ _ ___ _ ___ _ ___ _ ___
 72
   65
 73
    4
 40
7.619999999999999
 49
4.7625
 74
    0
 49
-0.9525
 74
    0
 49
0.9525
 74
    0
 49
-0.9525
 74
    0
  0
LTYPE
  5
48
330
5
100
AcDbSymbolTableRecord
100
AcDbLinetypeTableRecord
  2
CENTER2
 70
    0
  3
Center (.5x) ___ _ ___ _ ___ _ ___ _ ___ _ ___
 72
   65
 73
    4
 40
28.575
 49
19.05
 74
    0
 49
-3.175
 74
    0
 49
3.175
 74
    0
 49
-3.175
 74
    0
  0
LTYPE
  5
49
330
5
100
AcDbSymbolTableRecord
100
AcDbLinetypeTableRecord
  2
CENTERX2
 70
    0
  3
Center (2x) ________  __  ________  __  _____
 72
   65
 73
    4
 40
101.6
 49
63.5
 74
    0
 49
-12.7
 74
    0
 49
12.7
 74
    0
 49
-12.7
 74
    0
  0
ENDTAB
  0
TABLE
  2
LAYER
  5
2
330
0
100
AcDbSymbolTable
 70
    1
  0
LAYER
  5
10
330
2
100
AcDbSymbolTableRecord
100
AcDbLayerTableRecord
  2
0
 70
    0
 62
    7
  6
CONTINUOUS
370
   -3
390
F
  0
LAYER
  5
4A
330
2
100
AcDbSymbolTableRecord
100
AcDbLayerTableRecord
  2
Fillet
 70
    0
 62
    7
  6
CONTINUOUS
370
   -3
390
F
  0
LAYER
  5
4B
330
2
100
AcDbSymbolTableRecord
100
AcDbLayerTableRecord
  2
Sketch005
 70
    0
 62
    7
  6
CONTINUOUS
370
   -3
390
F
  0
LAYER
  5
4C
330
2
100
AcDbSymbolTableRecord
100
AcDbLayerTableRecord
  2
Sketch010
 70
    0
 62
    7
  6
CONTINUOUS
370
   -3
390
F
  0
LAYER
  5
4D
330
2
100
AcDbSymbolTableRecord
100
AcDbLayerTableRecord
  2
none
 70
    0
 62
    7
  6
CONTINUOUS
370
   -3
390
F
  0
ENDTAB
  0
TABLE
  2
STYLE
  5
3
330
0
100
AcDbSymbolTable
 70
    3
  0
STYLE
  5
4E
330
2
100
AcDbSymbolTableRecord
100
AcDbTextStyleTableRecord
  2
Standard
 70
    0
 40
0
 41
1
 50
0
 71
    0
 42
1
  3
txt
  4

  0
ENDTAB
  0
TABLE
  2
VIEW
  5
6
330
0
100
AcDbSymbolTable
 70
    0
  0
ENDTAB
  0
TABLE
  2
UCS
  5
7
330
0
100
AcDbSymbolTable
 70
    0
  0
ENDTAB
  0
TABLE
  2
APPID
  5
9
330
0
100
AcDbSymbolTable
 70
    1
  0
APPID
  5
12
330
9
100
AcDbSymbolTableRecord
100
AcDbRegAppTableRecord
  2
ACAD
 70
    0
  0
APPID
  5
4F
330
9
100
AcDbSymbolTableRecord
100
AcDbRegAppTableRecord
  2
LibreCad
 70
    0
  0
ENDTAB
  0
TABLE
  2
DIMSTYLE
  5
A
330
0
100
AcDbSymbolTable
 70
    1
100
AcDbDimStyleTable
 71
    1
  0
DIMSTYLE
105
50
330
A
100
AcDbSymbolTableRecord
100
AcDbDimStyleTableRecord
  2
Standard
 70
    0
 40
1
 41
2.5
 42
0.625
 43
0.38
 44
1.25
 45
0
 46
0
 47
0
 48
0
 49
1
140
2.5
141
0.09
142
2.5
143
25.4
144
1
145
0
146
1
147
0.625
148
0
 71
    0
 72
    0
 73
    0
 74
    1
 75
    0
 76
    0
 77
    0
 78
    1
 79
    0
170
    0
171
    2
172
    0
173
    0
174
    0
175
    0
176
    0
177
    0
178
    0
179
    0
271
    2
272
    4
273
    2
274
    2
275
    0
276
    0
277
    2
278
    0
279
    0
280
    0
281
    0
282
    0
283
    1
284
    0
285
    0
286
    0
288
    0
289
    3
340
STANDARD
341

371
   -2
372
   -2
  0
ENDTAB
  0
TABLE
  2
BLOCK_RECORD
  5
1
330
0
100
AcDbSymbolTable
 70
    2
  0
BLOCK_RECORD
  5
1F
330
1
100
AcDbSymbolTableRecord
100
AcDbBlockTableRecord
  2
*Model_Space
 70
    0
280
    1
281
    0
  0
BLOCK_RECORD
  5
1E
330
1
100
AcDbSymbolTableRecord
100
AcDbBlockTableRecord
  2
*Paper_Space
 70
    0
280
    1
281
    0
  0
ENDTAB
  0
ENDSEC
  0
SECTION
  2
BLOCKS
  0
BLOCK
  5
20
330
1F
100
AcDbEntity
  8
0
100
AcDbBlockBegin
  2
*Model_Space
 70
    0
 10
0
 20
0
 30
0
  3
*Model_Space
  1

  0
ENDBLK
  5
21
330
1F
100
AcDbEntity
  8
0
100
AcDbBlockEnd
  0
BLOCK
  5
1C
330
1B
100
AcDbEntity
  8
0
100
AcDbBlockBegin
  2
*Paper_Space
 70
    0
 10
0
 20
0
 30
0
  3
*Paper_Space
  1

  0
ENDBLK
  5
1D
330
1F
100
AcDbEntity
  8
0
100
AcDbBlockEnd
  0
ENDSEC
  0
SECTION
  2
ENTITIES
  0
LINE
  5
51
100
AcDbEntity
  8
Fillet
  6
ByLayer
 62
  256
370
   -1
100
AcDbLine
 10
158.304076233
 20
1.408987526
 11
181.950530359
 21
42.32881768
  0
LINE
  5
52
100
AcDbEntity
  8
Fillet
  6
ByLayer
 62
  256
370
   -1
100
AcDbLine
 10
181.950530359
 20
42.32881768
 11
181.950530359
 21
42.32881768
  0
LINE
  5
53
100
AcDbEntity
  8
Fillet
  6
ByLayer
 62
  256
370
   -1
100
AcDbLine
 10
158.304076233
 20
1.408987526
 11
158.304076233
 21
1.408987526
  0
LINE
  5
54
100
AcDbEntity
  8
Fillet
  6
ByLayer
 62
  256
370
   -1
100
AcDbLine
 10
158.304076233
 20
1.408987526
 11
181.950530359
 21
42.32881768
  0
LINE
  5
55
100
AcDbEntity
  8
Fillet
  6
ByLayer
 62
  256
370
   -1
100
AcDbLine
 10
158.304076233
 20
1.408987526
 11
181.950530359
 21
42.32881768
  0
ARC
  5
56
100
AcDbEntity
  8
Fillet
  6
ByLayer
 62
  256
370
   -1
100
AcDbCircle
 10
174.694879506
 20
46.521660475
 40
8.380000000000001
100
AcDbArc
 50
-30.022446192
 51
-2.8363e-05
  0
LINE
  5
57
100
AcDbEntity
  8
Fillet
  6
ByLayer
 62
  256
370
   -1
100
AcDbLine
 10
158.304076233
 20
1.408987526
 11
152.243311776
 21
-9.079073427000001
  0
LINE
  5
58
100
AcDbEntity
  8
Fillet
  6
ByLayer
 62
  256
370
   -1
100
AcDbLine
 10
183.074879506
 20
46.521656327
 11
183.074932536
 21
153.645271872
  0
ARC
  5
59
100
AcDbEntity
  8
Fillet
  6
ByLayer
 62
  256
370
   -1
100
AcDbCircle
 10
150.182637668
 20
-7.888266046
 40
2.38
100
AcDbArc
 50
-119.942786869
 51
-30.022446192
  0
ARC
  5
5A
100
AcDbEntity
  8
Fillet
  6
ByLayer
 62
  256
370
   -1
100
AcDbCircle
 10
180.694932536
 20
153.645273051
 40
2.38
100
AcDbArc
 50
-2.8363e-05
 51
90
  0
LINE
  5
5B
100
AcDbEntity
  8
Fillet
  6
ByLayer
 62
  256
370
   -1
100
AcDbLine
 10
148.994696428
 20
-9.950593762
 11
90.361934715
 21
23.823027704
  0
LINE
  5
5C
100
AcDbEntity
  8
Fillet
  6
ByLayer
 62
  256
370
   -1
100
AcDbLine
 10
180.694932536
 20
156.025273051
 11
71.382540005
 21
156.025273051
  0
ARC
  5
5D
100
AcDbEntity
  8
Fillet
  6
ByLayer
 62
  256
370
   -1
100
AcDbCircle
 10
86.179183627
 20
16.561554483
 40
8.380000000000001
100
AcDbArc
 50
60.057213131
 51
90
  0
ARC
  5
5E
100
AcDbEntity
  8
Fillet
  6
ByLayer
 62
  256
370
   -1
100
AcDbCircle
 10
71.382540005
 20
153.645273051
 40
2.38
100
AcDbArc
 50
90
 51
180
  0
LINE
  5
5F
100
AcDbEntity
  8
Fillet
  6
ByLayer
 62
  256
370
   -1
100
AcDbLine
 10
76.203911608
 20
24.941554483
 11
86.179183627
 21
24.941554483
  0
LINE
  5
60
100
AcDbEntity
  8
Fillet
  6
ByLayer
 62
  256
370
   -1
100
AcDbLine
 10
69.002540005
 20
153.645273051
 11
69.002540005
 21
153.643281687
  0
LINE
  5
61
100
AcDbEntity
  8
Fillet
  6
ByLayer
 62
  256
370
   -1
100
AcDbLine
 10
66.73400050799999
 20
24.941554483
 11
76.203911608
 21
24.941554483
  0
LINE
  5
62
100
AcDbEntity
  8
Fillet
  6
ByLayer
 62
  256
370
   -1
100
AcDbLine
 10
69.002540005
 20
153.643281687
 11
52.332628905
 21
153.643281687
  0
ARC
  5
63
100
AcDbEntity
  8
Fillet
  6
ByLayer
 62
  256
370
   -1
100
AcDbCircle
 10
66.73400050799999
 20
22.561554483
 40
2.38
100
AcDbArc
 50
90
 51
180
  0
ARC
  5
64
100
AcDbEntity
  8
Fillet
  6
ByLayer
 62
  256
370
   -1
100
AcDbCircle
 10
52.332628905
 20
151.263281687
 40
2.38
100
AcDbArc
 50
90
 51
180
  0
LINE
  5
65
100
AcDbEntity
  8
Fillet
  6
ByLayer
 62
  256
370
   -1
100
AcDbLine
 10
64.354000508
 20
20.176012192
 11
64.354000508
 21
22.561554483
  0
LINE
  5
66
100
AcDbEntity
  8
Fillet
  6
ByLayer
 62
  256
370
   -1
100
AcDbLine
 10
49.952628905
 20
151.263281687
 11
49.952628905
 21
148.880254001
  0
ARC
  5
67
100
AcDbEntity
  8
Fillet
  6
ByLayer
 62
  256
370
   -1
100
AcDbCircle
 10
61.974000508
 20
20.176012192
 40
2.38
100
AcDbArc
 50
-90
 51
-0
  0
ARC
  5
68
100
AcDbEntity
  8
Fillet
  6
ByLayer
 62
  256
370
   -1
100
AcDbCircle
 10
47.572628905
 20
148.880254001
 40
2.38
100
AcDbArc
 50
-90
 51
0
  0
LINE
  5
69
100
AcDbEntity
  8
Fillet
  6
ByLayer
 62
  256
370
   -1
100
AcDbLine
 10
14.233009906
 20
17.796012192
 11
61.974000508
 21
17.796012192
  0
LINE
  5
6A
100
AcDbEntity
  8
Fillet
  6
ByLayer
 62
  256
370
   -1
100
AcDbLine
 10
47.572628905
 20
146.500254001
 11
14.233009906
 21
146.500254001
  0
ARC
  5
6B
100
AcDbEntity
  8
Fillet
  6
ByLayer
 62
  256
370
   -1
100
AcDbCircle
 10
14.233009906
 20
20.176012192
 40
2.38
100
AcDbArc
 50
180
 51
-90
  0
ARC
  5
6C
100
AcDbEntity
  8
Fillet
  6
ByLayer
 62
  256
370
   -1
100
AcDbCircle
 10
14.233009906
 20
144.120254001
 40
2.38
100
AcDbArc
 50
90
 51
180
  0
LINE
  5
6D
100
AcDbEntity
  8
Fillet
  6
ByLayer
 62
  256
370
   -1
100
AcDbLine
 10
11.853009906
 20
144.120254001
 11
11.853009906
 21
20.176012192
  0
ARC
  5
6E
100
AcDbEntity
  8
Fillet
  6
ByLayer
 62
  256
370
   -1
100
AcDbCircle
 10
174.694879506
 20
46.521660475
 40
8.380000000000001
100
AcDbArc
 50
-30.022446192
 51
-2.8363e-05
  0
LINE
  5
6F
100
AcDbEntity
  8
Fillet
  6
ByLayer
 62
  256
370
   -1
100
AcDbLine
 10
181.950530359
 20
42.32881768
 11
181.950530359
 21
42.32881768
  0
LINE
  5
70
100
AcDbEntity
  8
Fillet
  6
ByLayer
 62
  256
370
   -1
100
AcDbLine
 10
183.074879506
 20
46.521656327
 11
183.074879506
 21
46.521656327
  0
ARC
  5
71
100
AcDbEntity
  8
Fillet
  6
ByLayer
 62
  256
370
   -1
100
AcDbCircle
 10
174.694879506
 20
46.521660475
 40
8.380000000000001
100
AcDbArc
 50
-30.022446192
 51
-2.8363e-05
  0
LINE
  5
72
100
AcDbEntity
  8
Fillet
  6
ByLayer
 62
  256
370
   -1
100
AcDbLine
 10
158.304076233
 20
1.408987526
 11
152.243311776
 21
-9.079073427000001
  0
LINE
  5
73
100
AcDbEntity
  8
Fillet
  6
ByLayer
 62
  256
370
   -1
100
AcDbLine
 10
152.243311776
 20
-9.079073427000001
 11
152.243311776
 21
-9.079073427000001
  0
LINE
  5
74
100
AcDbEntity
  8
Fillet
  6
ByLayer
 62
  256
370
   -1
100
AcDbLine
 10
158.304076233
 20
1.408987526
 11
158.304076233
 21
1.408987526
  0
LINE
  5
75
100
AcDbEntity
  8
Fillet
  6
ByLayer
 62
  256
370
   -1
100
AcDbLine
 10
158.304076233
 20
1.408987526
 11
152.243311776
 21
-9.079073427000001
  0
LINE
  5
76
100
AcDbEntity
  8
Fillet
  6
ByLayer
 62
  256
370
   -1
100
AcDbLine
 10
158.304076233
 20
1.408987526
 11
181.950530359
 21
42.32881768
  0
ARC
  5
77
100
AcDbEntity
  8
Fillet
  6
ByLayer
 62
  256
370
   -1
100
AcDbCircle
 10
174.694879506
 20
46.521660475
 40
8.380000000000001
100
AcDbArc
 50
-30.022446192
 51
-2.8363e-05
  0
LINE
  5
78
100
AcDbEntity
  8
Fillet
  6
ByLayer
 62
  256
370
   -1
100
AcDbLine
 10
158.304076233
 20
1.408987526
 11
152.243311776
 21
-9.079073427000001
  0
LINE
  5
79
100
AcDbEntity
  8
Fillet
  6
ByLayer
 62
  256
370
   -1
100
AcDbLine
 10
183.074879506
 20
46.521656327
 11
183.074932536
 21
153.645271872
  0
ARC
  5
7A
100
AcDbEntity
  8
Fillet
  6
ByLayer
 62
  256
370
   -1
100
AcDbCircle
 10
150.182637668
 20
-7.888266046
 40
2.38
100
AcDbArc
 50
-119.942786869
 51
-30.022446192
  0
ARC
  5
7B
100
AcDbEntity
  8
Fillet
  6
ByLayer
 62
  256
370
   -1
100
AcDbCircle
 10
180.694932536
 20
153.645273051
 40
2.38
100
AcDbArc
 50
-2.8363e-05
 51
90
  0
LINE
  5
7C
100
AcDbEntity
  8
Fillet
  6
ByLayer
 62
  256
370
   -1
100
AcDbLine
 10
148.994696428
 20
-9.950593762
 11
90.361934715
 21
23.823027704
  0
LINE
  5
7D
100
AcDbEntity
  8
Fillet
  6
ByLayer
 62
  256
370
   -1
100
AcDbLine
 10
180.694932536
 20
156.025273051
 11
71.382540005
 21
156.025273051
  0
ARC
  5
7E
100
AcDbEntity
  8
Fillet
  6
ByLayer
 62
  256
370
   -1
100
AcDbCircle
 10
86.179183627
 20
16.561554483
 40
8.380000000000001
100
AcDbArc
 50
60.057213131
 51
90
  0
ARC
  5
7F
100
AcDbEntity
  8
Fillet
  6
ByLayer
 62
  256
370
   -1
100
AcDbCircle
 10
71.382540005
 20
153.645273051
 40
2.38
100
AcDbArc
 50
90
 51
180
  0
LINE
  5
80
100
AcDbEntity
  8
Fillet
  6
ByLayer
 62
  256
370
   -1
100
AcDbLine
 10
76.203911608
 20
24.941554483
 11
86.179183627
 21
24.941554483
  0
LINE
  5
81
100
AcDbEntity
  8
Fillet
  6
ByLayer
 62
  256
370
   -1
100
AcDbLine
 10
69.002540005
 20
153.645273051
 11
69.002540005
 21
153.643281687
  0
LINE
  5
82
100
AcDbEntity
  8
Fillet
  6
ByLayer
 62
  256
370
   -1
100
AcDbLine
 10
66.73400050799999
 20
24.941554483
 11
76.203911608
 21
24.941554483
  0
LINE
  5
83
100
AcDbEntity
  8
Fillet
  6
ByLayer
 62
  256
370
   -1
100
AcDbLine
 10
69.002540005
 20
153.643281687
 11
52.332628905
 21
153.643281687
  0
ARC
  5
84
100
AcDbEntity
  8
Fillet
  6
ByLayer
 62
  256
370
   -1
100
AcDbCircle
 10
66.73400050799999
 20
22.561554483
 40
2.38
100
AcDbArc
 50
90
 51
180
  0
ARC
  5
85
100
AcDbEntity
  8
Fillet
  6
ByLayer
 62
  256
370
   -1
100
AcDbCircle
 10
52.332628905
 20
151.263281687
 40
2.38
100
AcDbArc
 50
90
 51
180
  0
LINE
  5
86
100
AcDbEntity
  8
Fillet
  6
ByLayer
 62
  256
370
   -1
100
AcDbLine
 10
64.354000508
 20
20.176012192
 11
64.354000508
 21
22.561554483
  0
LINE
  5
87
100
AcDbEntity
  8
Fillet
  6
ByLayer
 62
  256
370
   -1
100
AcDbLine
 10
49.952628905
 20
151.263281687
 11
49.952628905
 21
148.880254001
  0
ARC
  5
88
100
AcDbEntity
  8
Fillet
  6
ByLayer
 62
  256
370
   -1
100
AcDbCircle
 10
61.974000508
 20
20.176012192
 40
2.38
100
AcDbArc
 50
-90
 51
-0
  0
ARC
  5
89
100
AcDbEntity
  8
Fillet
  6
ByLayer
 62
  256
370
   -1
100
AcDbCircle
 10
47.572628905
 20
148.880254001
 40
2.38
100
AcDbArc
 50
-90
 51
0
  0
LINE
  5
8A
100
AcDbEntity
  8
Fillet
  6
ByLayer
 62
  256
370
   -1
100
AcDbLine
 10
14.233009906
 20
17.796012192
 11
61.974000508
 21
17.796012192
  0
LINE
  5
8B
100
AcDbEntity
  8
Fillet
  6
ByLayer
 62
  256
370
   -1
100
AcDbLine
 10
47.572628905
 20
146.500254001
 11
14.233009906
 21
146.500254001
  0
ARC
  5
8C
100
AcDbEntity
  8
Fillet
  6
ByLayer
 62
  256
370
   -1
100
AcDbCircle
 10
14.233009906
 20
20.176012192
 40
2.38
100
AcDbArc
 50
180
 51
-90
  0
ARC
  5
8D
100
AcDbEntity
  8
Fillet
  6
ByLayer
 62
  256
370
   -1
100
AcDbCircle
 10
14.233009906
 20
144.120254001
 40
2.38
100
AcDbArc
 50
90
 51
180
  0
LINE
  5
8E
100
AcDbEntity
  8
Fillet
  6
ByLayer
 62
  256
370
   -1
100
AcDbLine
 10
11.853009906
 20
144.120254001
 11
11.853009906
 21
20.176012192
  0
LINE
  5
8F
100
AcDbEntity
  8
Fillet
  6
ByLayer
 62
  256
370
   -1
100
AcDbLine
 10
183.074879506
 20
46.521656327
 11
183.074932536
 21
153.645271872
  0
LINE
  5
90
100
AcDbEntity
  8
Fillet
  6
ByLayer
 62
  256
370
   -1
100
AcDbLine
 10
183.074879506
 20
46.521656327
 11
183.074879506
 21
46.521656327
  0
LINE
  5
91
100
AcDbEntity
  8
Fillet
  6
ByLayer
 62
  256
370
   -1
100
AcDbLine
 10
183.074932536
 20
153.645271872
 11
183.074932536
 21
153.645271872
  0
LINE
  5
92
100
AcDbEntity
  8
Fillet
  6
ByLayer
 62
  256
370
   -1
100
AcDbLine
 10
183.074879506
 20
46.521656327
 11
183.074932536
 21
153.645271872
  0
ARC
  5
93
100
AcDbEntity
  8
Fillet
  6
ByLayer
 62
  256
370
   -1
100
AcDbCircle
 10
150.182637668
 20
-7.888266046
 40
2.38
100
AcDbArc
 50
-119.942786869
 51
-30.022446192
  0
LINE
  5
94
100
AcDbEntity
  8
Fillet
  6
ByLayer
 62
  256
370
   -1
100
AcDbLine
 10
148.994696428
 20
-9.950593762
 11
148.994696428
 21
-9.950593762
  0
LINE
  5
95
100
AcDbEntity
  8
Fillet
  6
ByLayer
 62
  256
370
   -1
100
AcDbLine
 10
152.243311776
 20
-9.079073427000001
 11
152.243311776
 21
-9.079073427000001
  0
ARC
  5
96
100
AcDbEntity
  8
Fillet
  6
ByLayer
 62
  256
370
   -1
100
AcDbCircle
 10
150.182637668
 20
-7.888266046
 40
2.38
100
AcDbArc
 50
-119.942786869
 51
-30.022446192
  0
ARC
  5
97
100
AcDbEntity
  8
Fillet
  6
ByLayer
 62
  256
370
   -1
100
AcDbCircle
 10
180.694932536
 20
153.645273051
 40
2.38
100
AcDbArc
 50
-2.8363e-05
 51
90
  0
LINE
  5
98
100
AcDbEntity
  8
Fillet
  6
ByLayer
 62
  256
370
   -1
100
AcDbLine
 10
183.074932536
 20
153.645271872
 11
183.074932536
 21
153.645271872
  0
LINE
  5
99
100
AcDbEntity
  8
Fillet
  6
ByLayer
 62
  256
370
   -1
100
AcDbLine
 10
180.694932536
 20
156.025273051
 11
180.694932536
 21
156.025273051
  0
ARC
  5
9A
100
AcDbEntity
  8
Fillet
  6
ByLayer
 62
  256
370
   -1
100
AcDbCircle
 10
180.694932536
 20
153.645273051
 40
2.38
100
AcDbArc
 50
-2.8363e-05
 51
90
  0
LINE
  5
9B
100
AcDbEntity
  8
Fillet
  6
ByLayer
 62
  256
370
   -1
100
AcDbLine
 10
148.994696428
 20
-9.950593762
 11
90.361934715
 21
23.823027704
  0
LINE
  5
9C
100
AcDbEntity
  8
Fillet
  6
ByLayer
 62
  256
370
   -1
100
AcDbLine
 10
148.994696428
 20
-9.950593762
 11
148.994696428
 21
-9.950593762
  0
LINE
  5
9D
100
AcDbEntity
  8
Fillet
  6
ByLayer
 62
  256
370
   -1
100
AcDbLine
 10
90.361934715
 20
23.823027704
 11
90.361934715
 21
23.823027704
  0
LINE
  5
9E
100
AcDbEntity
  8
Fillet
  6
ByLayer
 62
  256
370
   -1
100
AcDbLine
 10
148.994696428
 20
-9.950593762
 11
90.361934715
 21
23.823027704
  0
LINE
  5
9F
100
AcDbEntity
  8
Fillet
  6
ByLayer
 62
  256
370
   -1
100
AcDbLine
 10
180.694932536
 20
156.025273051
 11
71.382540005
 21
156.025273051
  0
LINE
  5
A0
100
AcDbEntity
  8
Fillet
  6
ByLayer
 62
  256
370
   -1
100
AcDbLine
 10
180.694932536
 20
156.025273051
 11
180.694932536
 21
156.025273051
  0
LINE
  5
A1
100
AcDbEntity
  8
Fillet
  6
ByLayer
 62
  256
370
   -1
100
AcDbLine
 10
71.382540005
 20
156.025273051
 11
71.382540005
 21
156.025273051
  0
LINE
  5
A2
100
AcDbEntity
  8
Fillet
  6
ByLayer
 62
  256
370
   -1
100
AcDbLine
 10
180.694932536
 20
156.025273051
 11
71.382540005
 21
156.025273051
  0
ARC
  5
A3
100
AcDbEntity
  8
Fillet
  6
ByLayer
 62
  256
370
   -1
100
AcDbCircle
 10
86.179183627
 20
16.561554483
 40
8.380000000000001
100
AcDbArc
 50
60.057213131
 51
90
  0
LINE
  5
A4
100
AcDbEntity
  8
Fillet
  6
ByLayer
 62
  256
370
   -1
100
AcDbLine
 10
86.179183627
 20
24.941554483
 11
86.179183627
 21
24.941554483
  0
LINE
  5
A5
100
AcDbEntity
  8
Fillet
  6
ByLayer
 62
  256
370
   -1
100
AcDbLine
 10
90.361934715
 20
23.823027704
 11
90.361934715
 21
23.823027704
  0
ARC
  5
A6
100
AcDbEntity
  8
Fillet
  6
ByLayer
 62
  256
370
   -1
100
AcDbCircle
 10
86.179183627
 20
16.561554483
 40
8.380000000000001
100
AcDbArc
 50
60.057213131
 51
90
  0
ARC
  5
A7
100
AcDbEntity
  8
Fillet
  6
ByLayer
 62
  256
370
   -1
100
AcDbCircle
 10
71.382540005
 20
153.645273051
 40
2.38
100
AcDbArc
 50
90
 51
180
  0
LINE
  5
A8
100
AcDbEntity
  8
Fillet
  6
ByLayer
 62
  256
370
   -1
100
AcDbLine
 10
71.382540005
 20
156.025273051
 11
71.382540005
 21
156.025273051
  0
LINE
  5
A9
100
AcDbEntity
  8
Fillet
  6
ByLayer
 62
  256
370
   -1
100
AcDbLine
 10
69.002540005
 20
153.645273051
 11
69.002540005
 21
153.645273051
  0
ARC
  5
AA
100
AcDbEntity
  8
Fillet
  6
ByLayer
 62
  256
370
   -1
100
AcDbCircle
 10
71.382540005
 20
153.645273051
 40
2.38
100
AcDbArc
 50
90
 51
180
  0
LINE
  5
AB
100
AcDbEntity
  8
Fillet
  6
ByLayer
 62
  256
370
   -1
100
AcDbLine
 10
76.203911608
 20
24.941554483
 11
86.179183627
 21
24.941554483
  0
LINE
  5
AC
100
AcDbEntity
  8
Fillet
  6
ByLayer
 62
  256
370
   -1
100
AcDbLine
 10
86.179183627
 20
24.941554483
 11
86.179183627
 21
24.941554483
  0
LINE
  5
AD
100
AcDbEntity
  8
Fillet
  6
ByLayer
 62
  256
370
   -1
100
AcDbLine
 10
76.203911608
 20
24.941554483
 11
76.203911608
 21
24.941554483
  0
LINE
  5
AE
100
AcDbEntity
  8
Fillet
  6
ByLayer
 62
  256
370
   -1
100
AcDbLine
 10
76.203911608
 20
24.941554483
 11
86.179183627
 21
24.941554483
  0
LINE
  5
AF
100
AcDbEntity
  8
Fillet
  6
ByLayer
 62
  256
370
   -1
100
AcDbLine
 10
69.002540005
 20
153.645273051
 11
69.002540005
 21
153.643281687
  0
LINE
  5
B0
100
AcDbEntity
  8
Fillet
  6
ByLayer
 62
  256
370
   -1
100
AcDbLine
 10
69.002540005
 20
153.645273051
 11
69.002540005
 21
153.645273051
  0
LINE
  5
B1
100
AcDbEntity
  8
Fillet
  6
ByLayer
 62
  256
370
   -1
100
AcDbLine
 10
69.002540005
 20
153.643281687
 11
69.002540005
 21
153.643281687
  0
LINE
  5
B2
100
AcDbEntity
  8
Fillet
  6
ByLayer
 62
  256
370
   -1
100
AcDbLine
 10
69.002540005
 20
153.645273051
 11
69.002540005
 21
153.643281687
  0
LINE
  5
B3
100
AcDbEntity
  8
Fillet
  6
ByLayer
 62
  256
370
   -1
100
AcDbLine
 10
66.73400050799999
 20
24.941554483
 11
76.203911608
 21
24.941554483
  0
LINE
  5
B4
100
AcDbEntity
  8
Fillet
  6
ByLayer
 62
  256
370
   -1
100
AcDbLine
 10
66.73400050799999
 20
24.941554483
 11
66.73400050799999
 21
24.941554483
  0
LINE
  5
B5
100
AcDbEntity
  8
Fillet
  6
ByLayer
 62
  256
370
   -1
100
AcDbLine
 10
76.203911608
 20
24.941554483
 11
76.203911608
 21
24.941554483
  0
LINE
  5
B6
100
AcDbEntity
  8
Fillet
  6
ByLayer
 62
  256
370
   -1
100
AcDbLine
 10
66.73400050799999
 20
24.941554483
 11
76.203911608
 21
24.941554483
  0
LINE
  5
B7
100
AcDbEntity
  8
Fillet
  6
ByLayer
 62
  256
370
   -1
100
AcDbLine
 10
69.002540005
 20
153.643281687
 11
52.332628905
 21
153.643281687
  0
LINE
  5
B8
100
AcDbEntity
  8
Fillet
  6
ByLayer
 62
  256
370
   -1
100
AcDbLine
 10
52.332628905
 20
153.643281687
 11
52.332628905
 21
153.643281687
  0
LINE
  5
B9
100
AcDbEntity
  8
Fillet
  6
ByLayer
 62
  256
370
   -1
100
AcDbLine
 10
69.002540005
 20
153.643281687
 11
69.002540005
 21
153.643281687
  0
LINE
  5
BA
100
AcDbEntity
  8
Fillet
  6
ByLayer
 62
  256
370
   -1
100
AcDbLine
 10
69.002540005
 20
153.643281687
 11
52.332628905
 21
153.643281687
  0
ARC
  5
BB
100
AcDbEntity
  8
Fillet
  6
ByLayer
 62
  256
370
   -1
100
AcDbCircle
 10
66.73400050799999
 20
22.561554483
 40
2.38
100
AcDbArc
 50
90
 51
180
  0
LINE
  5
BC
100
AcDbEntity
  8
Fillet
  6
ByLayer
 62
  256
370
   -1
100
AcDbLine
 10
64.354000508
 20
22.561554483
 11
64.354000508
 21
22.561554483
  0
LINE
  5
BD
100
AcDbEntity
  8
Fillet
  6
ByLayer
 62
  256
370
   -1
100
AcDbLine
 10
66.73400050799999
 20
24.941554483
 11
66.73400050799999
 21
24.941554483
  0
ARC
  5
BE
100
AcDbEntity
  8
Fillet
  6
ByLayer
 62
  256
370
   -1
100
AcDbCircle
 10
66.73400050799999
 20
22.561554483
 40
2.38
100
AcDbArc
 50
90
 51
180
  0
ARC
  5
BF
100
AcDbEntity
  8
Fillet
  6
ByLayer
 62
  256
370
   -1
100
AcDbCircle
 10
52.332628905
 20
151.263281687
 40
2.38
100
AcDbArc
 50
90
 51
180
  0
LINE
  5
C0
100
AcDbEntity
  8
Fillet
  6
ByLayer
 62
  256
370
   -1
100
AcDbLine
 10
52.332628905
 20
153.643281687
 11
52.332628905
 21
153.643281687
  0
LINE
  5
C1
100
AcDbEntity
  8
Fillet
  6
ByLayer
 62
  256
370
   -1
100
AcDbLine
 10
49.952628905
 20
151.263281687
 11
49.952628905
 21
151.263281687
  0
ARC
  5
C2
100
AcDbEntity
  8
Fillet
  6
ByLayer
 62
  256
370
   -1
100
AcDbCircle
 10
52.332628905
 20
151.263281687
 40
2.38
100
AcDbArc
 50
90
 51
180
  0
LINE
  5
C3
100
AcDbEntity
  8
Fillet
  6
ByLayer
 62
  256
370
   -1
100
AcDbLine
 10
64.354000508
 20
20.176012192
 11
64.354000508
 21
22.561554483
  0
LINE
  5
C4
100
AcDbEntity
  8
Fillet
  6
ByLayer
 62
  256
370
   -1
100
AcDbLine
 10
64.354000508
 20
20.176012192
 11
64.354000508
 21
20.176012192
  0
LINE
  5
C5
100
AcDbEntity
  8
Fillet
  6
ByLayer
 62
  256
370
   -1
100
AcDbLine
 10
64.354000508
 20
22.561554483
 11
64.354000508
 21
22.561554483
  0
LINE
  5
C6
100
AcDbEntity
  8
Fillet
  6
ByLayer
 62
  256
370
   -1
100
AcDbLine
 10
64.354000508
 20
20.176012192
 11
64.354000508
 21
22.561554483
  0
LINE
  5
C7
100
AcDbEntity
  8
Fillet
  6
ByLayer
 62
  256
370
   -1
100
AcDbLine
 10
49.952628905
 20
151.263281687
 11
49.952628905
 21
148.880254001
  0
LINE
  5
C8
100
AcDbEntity
  8
Fillet
  6
ByLayer
 62
  256
370
   -1
100
AcDbLine
 10
49.952628905
 20
151.263281687
 11
49.952628905
 21
151.263281687
  0
LINE
  5
C9
100
AcDbEntity
  8
Fillet
  6
ByLayer
 62
  256
370
   -1
100
AcDbLine
 10
49.952628905
 20
148.880254001
 11
49.952628905
 21
148.880254001
  0
LINE
  5
CA
100
AcDbEntity
  8
Fillet
  6
ByLayer
 62
  256
370
   -1
100
AcDbLine
 10
49.952628905
 20
151.263281687
 11
49.952628905
 21
148.880254001
  0
ARC
  5
CB
100
AcDbEntity
  8
Fillet
  6
ByLayer
 62
  256
370
   -1
100
AcDbCircle
 10
61.974000508
 20
20.176012192
 40
2.38
100
AcDbArc
 50
-90
 51
-0
  0
LINE
  5
CC
100
AcDbEntity
  8
Fillet
  6
ByLayer
 62
  256
370
   -1
100
AcDbLine
 10
61.974000508
 20
17.796012192
 11
61.974000508
 21
17.796012192
  0
LINE
  5
CD
100
AcDbEntity
  8
Fillet
  6
ByLayer
 62
  256
370
   -1
100
AcDbLine
 10
64.354000508
 20
20.176012192
 11
64.354000508
 21
20.176012192
  0
ARC
  5
CE
100
AcDbEntity
  8
Fillet
  6
ByLayer
 62
  256
370
   -1
100
AcDbCircle
 10
61.974000508
 20
20.176012192
 40
2.38
100
AcDbArc
 50
-90
 51
-0
  0
ARC
  5
CF
100
AcDbEntity
  8
Fillet
  6
ByLayer
 62
  256
370
   -1
100
AcDbCircle
 10
47.572628905
 20
148.880254001
 40
2.38
100
AcDbArc
 50
-90
 51
0
  0
LINE
  5
D0
100
AcDbEntity
  8
Fillet
  6
ByLayer
 62
  256
370
   -1
100
AcDbLine
 10
49.952628905
 20
148.880254001
 11
49.952628905
 21
148.880254001
  0
LINE
  5
D1
100
AcDbEntity
  8
Fillet
  6
ByLayer
 62
  256
370
   -1
100
AcDbLine
 10
47.572628905
 20
146.500254001
 11
47.572628905
 21
146.500254001
  0
ARC
  5
D2
100
AcDbEntity
  8
Fillet
  6
ByLayer
 62
  256
370
   -1
100
AcDbCircle
 10
47.572628905
 20
148.880254001
 40
2.38
100
AcDbArc
 50
-90
 51
0
  0
LINE
  5
D3
100
AcDbEntity
  8
Fillet
  6
ByLayer
 62
  256
370
   -1
100
AcDbLine
 10
14.233009906
 20
17.796012192
 11
61.974000508
 21
17.796012192
  0
LINE
  5
D4
100
AcDbEntity
  8
Fillet
  6
ByLayer
 62
  256
370
   -1
100
AcDbLine
 10
14.233009906
 20
17.796012192
 11
14.233009906
 21
17.796012192
  0
LINE
  5
D5
100
AcDbEntity
  8
Fillet
  6
ByLayer
 62
  256
370
   -1
100
AcDbLine
 10
61.974000508
 20
17.796012192
 11
61.974000508
 21
17.796012192
  0
LINE
  5
D6
100
AcDbEntity
  8
Fillet
  6
ByLayer
 62
  256
370
   -1
100
AcDbLine
 10
14.233009906
 20
17.796012192
 11
61.974000508
 21
17.796012192
  0
LINE
  5
D7
100
AcDbEntity
  8
Fillet
  6
ByLayer
 62
  256
370
   -1
100
AcDbLine
 10
47.572628905
 20
146.500254001
 11
14.233009906
 21
146.500254001
  0
LINE
  5
D8
100
AcDbEntity
  8
Fillet
  6
ByLayer
 62
  256
370
   -1
100
AcDbLine
 10
47.572628905
 20
146.500254001
 11
47.572628905
 21
146.500254001
  0
LINE
  5
D9
100
AcDbEntity
  8
Fillet
  6
ByLayer
 62
  256
370
   -1
100
AcDbLine
 10
14.233009906
 20
146.500254001
 11
14.233009906
 21
146.500254001
  0
LINE
  5
DA
100
AcDbEntity
  8
Fillet
  6
ByLayer
 62
  256
370
   -1
100
AcDbLine
 10
47.572628905
 20
146.500254001
 11
14.233009906
 21
146.500254001
  0
ARC
  5
DB
100
AcDbEntity
  8
Fillet
  6
ByLayer
 62
  256
370
   -1
100
AcDbCircle
 10
14.233009906
 20
20.176012192
 40
2.38
100
AcDbArc
 50
180
 51
-90
  0
LINE
  5
DC
100
AcDbEntity
  8
Fillet
  6
ByLayer
 62
  256
370
   -1
100
AcDbLine
 10
11.853009906
 20
20.176012192
 11
11.853009906
 21
20.176012192
  0
LINE
  5
DD
100
AcDbEntity
  8
Fillet
  6
ByLayer
 62
  256
370
   -1
100
AcDbLine
 10
14.233009906
 20
17.796012192
 11
14.233009906
 21
17.796012192
  0
ARC
  5
DE
100
AcDbEntity
  8
Fillet
  6
ByLayer
 62
  256
370
   -1
100
AcDbCircle
 10
14.233009906
 20
20.176012192
 40
2.38
100
AcDbArc
 50
180
 51
-90
  0
ARC
  5
DF
100
AcDbEntity
  8
Fillet
  6
ByLayer
 62
  256
370
   -1
100
AcDbCircle
 10
14.233009906
 20
144.120254001
 40
2.38
100
AcDbArc
 50
90
 51
180
  0
LINE
  5
E0
100
AcDbEntity
  8
Fillet
  6
ByLayer
 62
  256
370
   -1
100
AcDbLine
 10
14.233009906
 20
146.500254001
 11
14.233009906
 21
146.500254001
  0
LINE
  5
E1
100
AcDbEntity
  8
Fillet
  6
ByLayer
 62
  256
370
   -1
100
AcDbLine
 10
11.853009906
 20
144.120254001
 11
11.853009906
 21
144.120254001
  0
ARC
  5
E2
100
AcDbEntity
  8
Fillet
  6
ByLayer
 62
  256
370
   -1
100
AcDbCircle
 10
14.233009906
 20
144.120254001
 40
2.38
100
AcDbArc
 50
90
 51
180
  0
LINE
  5
E3
100
AcDbEntity
  8
Fillet
  6
ByLayer
 62
  256
370
   -1
100
AcDbLine
 10
11.853009906
 20
144.120254001
 11
11.853009906
 21
20.176012192
  0
LINE
  5
E4
100
AcDbEntity
  8
Fillet
  6
ByLayer
 62
  256
370
   -1
100
AcDbLine
 10
11.853009906
 20
144.120254001
 11
11.853009906
 21
144.120254001
  0
LINE
  5
E5
100
AcDbEntity
  8
Fillet
  6
ByLayer
 62
  256
370
   -1
100
AcDbLine
 10
11.853009906
 20
20.176012192
 11
11.853009906
 21
20.176012192
  0
LINE
  5
E6
100
AcDbEntity
  8
Fillet
  6
ByLayer
 62
  256
370
   -1
100
AcDbLine
 10
11.853009906
 20
144.120254001
 11
11.853009906
 21
20.176012192
  0
CIRCLE
  5
E7
100
AcDbEntity
  8
Sketch005
  6
ByLayer
 62
  256
370
   -1
100
AcDbCircle
 10
150.17531396
 20
-7.860966731
 40
1
  0
CIRCLE
  5
E8
100
AcDbEntity
  8
Sketch005
  6
ByLayer
 62
  256
370
   -1
100
AcDbCircle
 10
180.674878713
 20
44.918067402
 40
1
  0
CIRCLE
  5
E9
100
AcDbEntity
  8
Sketch005
  6
ByLayer
 62
  256
370
   -1
100
AcDbCircle
 10
180.674905619
 20
99.271670226
 40
1
  0
CIRCLE
  5
EA
100
AcDbEntity
  8
Sketch005
  6
ByLayer
 62
  256
370
   -1
100
AcDbCircle
 10
180.674932526
 20
153.625273051
 40
1
  0
CIRCLE
  5
EB
100
AcDbEntity
  8
Sketch005
  6
ByLayer
 62
  256
370
   -1
100
AcDbCircle
 10
107.524948
 20
153.625273051
 40
1
  0
CIRCLE
  5
EC
100
AcDbEntity
  8
Sketch005
  6
ByLayer
 62
  256
370
   -1
100
AcDbCircle
 10
143.930008
 20
153.625273051
 40
1
  0
CIRCLE
  5
ED
100
AcDbEntity
  8
Sketch005
  6
ByLayer
 62
  256
370
   -1
100
AcDbCircle
 10
71.40254000500001
 20
153.625273051
 40
1
  0
CIRCLE
  5
EE
100
AcDbEntity
  8
Sketch005
  6
ByLayer
 62
  256
370
   -1
100
AcDbCircle
 10
52.352628905
 20
151.243281687
 40
1
  0
CIRCLE
  5
EF
100
AcDbEntity
  8
Sketch005
  6
ByLayer
 62
  256
370
   -1
100
AcDbCircle
 10
14.253009906
 20
144.100254001
 40
1
  0
CIRCLE
  5
F0
100
AcDbEntity
  8
Sketch005
  6
ByLayer
 62
  256
370
   -1
100
AcDbCircle
 10
14.253009906
 20
91.46843699999999
 40
1
  0
CIRCLE
  5
F1
100
AcDbEntity
  8
Sketch005
  6
ByLayer
 62
  256
370
   -1
100
AcDbCircle
 10
14.253009906
 20
53.019207
 40
1
  0
CIRCLE
  5
F2
100
AcDbEntity
  8
Sketch005
  6
ByLayer
 62
  256
370
   -1
100
AcDbCircle
 10
14.253009906
 20
20.196012192
 40
1
  0
CIRCLE
  5
F3
100
AcDbEntity
  8
Sketch005
  6
ByLayer
 62
  256
370
   -1
100
AcDbCircle
 10
61.954000508
 20
20.196012192
 40
1
  0
CIRCLE
  5
F4
100
AcDbEntity
  8
Sketch005
  6
ByLayer
 62
  256
370
   -1
100
AcDbCircle
 10
89.061908041
 20
27.341554483
 40
1
  0
CIRCLE
  5
F5
100
AcDbEntity
  8
Sketch005
  6
ByLayer
 62
  256
370
   -1
100
AcDbCircle
 10
112.020186233
 20
14.117135668
 40
1
  0
LINE
  5
F6
100
AcDbEntity
  8
Sketch010
  6
ByLayer
 62
  256
370
   -1
100
AcDbLine
 10
40.628829058
 20
41.522961646
 11
54.628016256
 21
41.522961646
  0
LINE
  5
F7
100
AcDbEntity
  8
Sketch010
  6
ByLayer
 62
  256
370
   -1
100
AcDbLine
 10
54.628016256
 20
41.522961646
 11
54.628016256
 21
27.522301245
  0
LINE
  5
F8
100
AcDbEntity
  8
Sketch010
  6
ByLayer
 62
  256
370
   -1
100
AcDbLine
 10
54.628016256
 20
27.522301245
 11
40.628829058
 21
27.522301245
  0
LINE
  5
F9
100
AcDbEntity
  8
Sketch010
  6
ByLayer
 62
  256
370
   -1
100
AcDbLine
 10
40.628829058
 20
27.522301245
 11
40.628829058
 21
41.522961646
  0
LINE
  5
FA
100
AcDbEntity
  8
Sketch010
  6
ByLayer
 62
  256
370
   -1
100
AcDbLine
 10
59.678740157
 20
48.666725933
 11
73.677927356
 21
48.666725933
  0
LINE
  5
FB
100
AcDbEntity
  8
Sketch010
  6
ByLayer
 62
  256
370
   -1
100
AcDbLine
 10
73.677927356
 20
48.666725933
 11
73.677927356
 21
34.667487935
  0
LINE
  5
FC
100
AcDbEntity
  8
Sketch010
  6
ByLayer
 62
  256
370
   -1
100
AcDbLine
 10
73.677927356
 20
34.667487935
 11
59.678740157
 21
34.667487935
  0
LINE
  5
FD
100
AcDbEntity
  8
Sketch010
  6
ByLayer
 62
  256
370
   -1
100
AcDbLine
 10
59.678740157
 20
34.667487935
 11
59.678740157
 21
48.666725933
  0
LINE
  5
FE
100
AcDbEntity
  8
Sketch010
  6
ByLayer
 62
  256
370
   -1
100
AcDbLine
 10
78.72877825800001
 20
51.047980696
 11
92.72796545600001
 21
51.047980696
  0
LINE
  5
FF
100
AcDbEntity
  8
Sketch010
  6
ByLayer
 62
  256
370
   -1
100
AcDbLine
 10
92.72796545600001
 20
51.047980696
 11
92.72796545600001
 21
37.047320295
  0
LINE
  5
100
100
AcDbEntity
  8
Sketch010
  6
ByLayer
 62
  256
370
   -1
100
AcDbLine
 10
92.72796545600001
 20
37.047320295
 11
78.72877825800001
 21
37.047320295
  0
LINE
  5
101
100
AcDbEntity
  8
Sketch010
  6
ByLayer
 62
  256
370
   -1
100
AcDbLine
 10
78.72877825800001
 20
37.047320295
 11
78.72877825800001
 21
51.047980696
  0
LINE
  5
102
100
AcDbEntity
  8
Sketch010
  6
ByLayer
 62
  256
370
   -1
100
AcDbLine
 10
101.876936754
 20
33.825374651
 11
115.3999746
 21
30.202692405
  0
LINE
  5
103
100
AcDbEntity
  8
Sketch010
  6
ByLayer
 62
  256
370
   -1
100
AcDbLine
 10
115.3999746
 20
30.202692405
 11
119.021971044
 21
43.725374651
  0
LINE
  5
104
100
AcDbEntity
  8
Sketch010
  6
ByLayer
 62
  256
370
   -1
100
AcDbLine
 10
119.021971044
 20
43.725374651
 11
105.4999238
 21
47.349479299
  0
LINE
  5
105
100
AcDbEntity
  8
Sketch010
  6
ByLayer
 62
  256
370
   -1
100
AcDbLine
 10
105.4999238
 20
47.349479299
 11
101.876936754
 21
33.825374651
  0
LINE
  5
106
100
AcDbEntity
  8
Sketch010
  6
ByLayer
 62
  256
370
   -1
100
AcDbLine
 10
132.412928626
 20
39.191516383
 11
131.5498603
 21
37.699187198
  0
LINE
  5
107
100
AcDbEntity
  8
Sketch010
  6
ByLayer
 62
  256
370
   -1
100
AcDbLine
 10
131.5498603
 20
37.699187198
 11
134.348945898
 21
36.083896368
  0
LINE
  5
108
100
AcDbEntity
  8
Sketch010
  6
ByLayer
 62
  256
370
   -1
100
AcDbLine
 10
134.348945898
 20
36.083896368
 11
133.585953772
 21
34.762306325
  0
LINE
  5
109
100
AcDbEntity
  8
Sketch010
  6
ByLayer
 62
  256
370
   -1
100
AcDbLine
 10
133.585953772
 20
34.762306325
 11
129.51498603
 21
37.113309627
  0
LINE
  5
10A
100
AcDbEntity
  8
Sketch010
  6
ByLayer
 62
  256
370
   -1
100
AcDbLine
 10
129.51498603
 20
37.113309627
 11
122.515849632
 21
24.989306579
  0
LINE
  5
10B
100
AcDbEntity
  8
Sketch010
  6
ByLayer
 62
  256
370
   -1
100
AcDbLine
 10
122.515849632
 20
24.989306579
 11
126.586918974
 21
22.638506477
  0
LINE
  5
10C
100
AcDbEntity
  8
Sketch010
  6
ByLayer
 62
  256
370
   -1
100
AcDbLine
 10
126.586918974
 20
22.638506477
 11
125.822936246
 21
21.318262637
  0
LINE
  5
10D
100
AcDbEntity
  8
Sketch010
  6
ByLayer
 62
  256
370
   -1
100
AcDbLine
 10
125.822936246
 20
21.318262637
 11
123.025958852
 21
22.933426467
  0
LINE
  5
10E
100
AcDbEntity
  8
Sketch010
  6
ByLayer
 62
  256
370
   -1
100
AcDbLine
 10
120.513970028
 20
18.58018796
 11
119.651028702
 21
17.086385573
  0
LINE
  5
10F
100
AcDbEntity
  8
Sketch010
  6
ByLayer
 62
  256
370
   -1
100
AcDbLine
 10
119.651028702
 20
17.086385573
 11
122.448006096
 21
15.471297943
  0
LINE
  5
110
100
AcDbEntity
  8
Sketch010
  6
ByLayer
 62
  256
370
   -1
100
AcDbLine
 10
122.448006096
 20
15.471297943
 11
122.03500127
 21
14.757480315
  0
LINE
  5
111
100
AcDbEntity
  8
Sketch010
  6
ByLayer
 62
  256
370
   -1
100
AcDbLine
 10
122.03500127
 20
14.757480315
 11
124.45991872
 21
13.357378715
  0
LINE
  5
112
100
AcDbEntity
  8
Sketch010
  6
ByLayer
 62
  256
370
   -1
100
AcDbLine
 10
124.45991872
 20
13.357378715
 11
124.871932944
 21
14.071196342
  0
LINE
  5
113
100
AcDbEntity
  8
Sketch010
  6
ByLayer
 62
  256
370
   -1
100
AcDbLine
 10
124.871932944
 20
14.071196342
 11
130.302921006
 21
10.936195072
  0
LINE
  5
114
100
AcDbEntity
  8
Sketch010
  6
ByLayer
 62
  256
370
   -1
100
AcDbLine
 10
130.302921006
 20
10.936195072
 11
131.165989332
 21
12.431419863
  0
LINE
  5
115
100
AcDbEntity
  8
Sketch010
  6
ByLayer
 62
  256
370
   -1
100
AcDbLine
 10
133.677978156
 20
16.783210566
 11
129.806832614
 21
19.018364237
  0
LINE
  5
116
100
AcDbEntity
  8
Sketch010
  6
ByLayer
 62
  256
370
   -1
100
AcDbLine
 10
129.806832614
 20
19.018364237
 11
130.568834138
 21
20.338608077
  0
LINE
  5
117
100
AcDbEntity
  8
Sketch010
  6
ByLayer
 62
  256
370
   -1
100
AcDbLine
 10
130.568834138
 20
20.338608077
 11
134.64003048
 21
17.988976378
  0
LINE
  5
118
100
AcDbEntity
  8
Sketch010
  6
ByLayer
 62
  256
370
   -1
100
AcDbLine
 10
134.64003048
 20
17.988976378
 11
141.638938278
 21
30.113106426
  0
LINE
  5
119
100
AcDbEntity
  8
Sketch010
  6
ByLayer
 62
  256
370
   -1
100
AcDbLine
 10
141.638938278
 20
30.113106426
 11
137.567970536
 21
32.462611125
  0
LINE
  5
11A
100
AcDbEntity
  8
Sketch010
  6
ByLayer
 62
  256
370
   -1
100
AcDbLine
 10
137.567970536
 20
32.462611125
 11
138.331851664
 21
33.785496571
  0
LINE
  5
11B
100
AcDbEntity
  8
Sketch010
  6
ByLayer
 62
  256
370
   -1
100
AcDbLine
 10
138.331851664
 20
33.785496571
 11
142.202006604
 21
31.548920498
  0
LINE
  5
11C
100
AcDbEntity
  8
Sketch010
  6
ByLayer
 62
  256
370
   -1
100
AcDbLine
 10
142.202006604
 20
31.548920498
 11
143.06494793
 21
33.041122682
  0
LINE
  5
11D
100
AcDbEntity
  8
Sketch010
  6
ByLayer
 62
  256
370
   -1
100
AcDbLine
 10
145.576936754
 20
37.392989586
 11
140.147929896
 21
40.528168656
  0
LINE
  5
11E
100
AcDbEntity
  8
Sketch010
  6
ByLayer
 62
  256
370
   -1
100
AcDbLine
 10
140.147929896
 20
40.528168656
 11
140.55991872
 21
41.243180086
  0
LINE
  5
11F
100
AcDbEntity
  8
Sketch010
  6
ByLayer
 62
  256
370
   -1
100
AcDbLine
 10
140.55991872
 20
41.243180086
 11
138.135890272
 21
42.643408687
  0
LINE
  5
120
100
AcDbEntity
  8
Sketch010
  6
ByLayer
 62
  256
370
   -1
100
AcDbLine
 10
138.135890272
 20
42.643408687
 11
137.724003048
 21
41.928270257
  0
LINE
  5
121
100
AcDbEntity
  8
Sketch010
  6
ByLayer
 62
  256
370
   -1
100
AcDbLine
 10
137.724003048
 20
41.928270257
 11
134.92491745
 21
43.543307087
  0
LINE
  5
122
100
AcDbEntity
  8
Sketch010
  6
ByLayer
 62
  256
370
   -1
100
AcDbLine
 10
148.911811024
 20
29.666497333
 11
148.047980696
 21
28.174168148
  0
LINE
  5
123
100
AcDbEntity
  8
Sketch010
  6
ByLayer
 62
  256
370
   -1
100
AcDbLine
 10
148.047980696
 20
28.174168148
 11
150.84495809
 21
26.558877318
  0
LINE
  5
124
100
AcDbEntity
  8
Sketch010
  6
ByLayer
 62
  256
370
   -1
100
AcDbLine
 10
150.84495809
 20
26.558877318
 11
150.081965964
 21
25.237414275
  0
LINE
  5
125
100
AcDbEntity
  8
Sketch010
  6
ByLayer
 62
  256
370
   -1
100
AcDbLine
 10
150.081965964
 20
25.237414275
 11
146.013004826
 21
27.588290577
  0
LINE
  5
126
100
AcDbEntity
  8
Sketch010
  6
ByLayer
 62
  256
370
   -1
100
AcDbLine
 10
146.013004826
 20
27.588290577
 11
139.011988824
 21
15.464465329
  0
LINE
  5
127
100
AcDbEntity
  8
Sketch010
  6
ByLayer
 62
  256
370
   -1
100
AcDbLine
 10
139.011988824
 20
15.464465329
 11
143.082931166
 21
13.113487427
  0
LINE
  5
128
100
AcDbEntity
  8
Sketch010
  6
ByLayer
 62
  256
370
   -1
100
AcDbLine
 10
143.082931166
 20
13.113487427
 11
142.320929642
 21
11.793319787
  0
LINE
  5
129
100
AcDbEntity
  8
Sketch010
  6
ByLayer
 62
  256
370
   -1
100
AcDbLine
 10
142.320929642
 20
11.793319787
 11
139.523952248
 21
13.408407417
  0
LINE
  5
12A
100
AcDbEntity
  8
Sketch010
  6
ByLayer
 62
  256
370
   -1
100
AcDbLine
 10
137.011861824
 20
9.055168910000001
 11
136.149022098
 21
7.561366523
  0
LINE
  5
12B
100
AcDbEntity
  8
Sketch010
  6
ByLayer
 62
  256
370
   -1
100
AcDbLine
 10
136.149022098
 20
7.561366523
 11
138.945999492
 21
5.946278893
  0
LINE
  5
12C
100
AcDbEntity
  8
Sketch010
  6
ByLayer
 62
  256
370
   -1
100
AcDbLine
 10
138.945999492
 20
5.946278893
 11
138.533883668
 21
5.232512065
  0
LINE
  5
12D
100
AcDbEntity
  8
Sketch010
  6
ByLayer
 62
  256
370
   -1
100
AcDbLine
 10
138.533883668
 20
5.232512065
 11
140.957912116
 21
3.832410465
  0
LINE
  5
12E
100
AcDbEntity
  8
Sketch010
  6
ByLayer
 62
  256
370
   -1
100
AcDbLine
 10
140.957912116
 20
3.832410465
 11
141.36992634
 21
4.546177292
  0
LINE
  5
12F
100
AcDbEntity
  8
Sketch010
  6
ByLayer
 62
  256
370
   -1
100
AcDbLine
 10
141.36992634
 20
4.546177292
 11
146.800914402
 21
1.411176022
  0
LINE
  5
130
100
AcDbEntity
  8
Sketch010
  6
ByLayer
 62
  256
370
   -1
100
AcDbLine
 10
146.800914402
 20
1.411176022
 11
147.664008128
 21
2.906400813
  0
LINE
  5
131
100
AcDbEntity
  8
Sketch010
  6
ByLayer
 62
  256
370
   -1
100
AcDbLine
 10
150.175971552
 20
7.258191516
 11
146.30495301
 21
9.493421387
  0
LINE
  5
132
100
AcDbEntity
  8
Sketch010
  6
ByLayer
 62
  256
370
   -1
100
AcDbLine
 10
146.30495301
 20
9.493421387
 11
147.066954534
 21
10.813589027
  0
LINE
  5
133
100
AcDbEntity
  8
Sketch010
  6
ByLayer
 62
  256
370
   -1
100
AcDbLine
 10
147.066954534
 20
10.813589027
 11
151.138023876
 21
8.463957327999999
  0
LINE
  5
134
100
AcDbEntity
  8
Sketch010
  6
ByLayer
 62
  256
370
   -1
100
AcDbLine
 10
151.138023876
 20
8.463957327999999
 11
158.137922276
 21
20.588011176
  0
LINE
  5
135
100
AcDbEntity
  8
Sketch010
  6
ByLayer
 62
  256
370
   -1
100
AcDbLine
 10
158.137922276
 20
20.588011176
 11
154.065862332
 21
22.937515875
  0
LINE
  5
136
100
AcDbEntity
  8
Sketch010
  6
ByLayer
 62
  256
370
   -1
100
AcDbLine
 10
154.065862332
 20
22.937515875
 11
154.828981458
 21
24.259055118
  0
LINE
  5
137
100
AcDbEntity
  8
Sketch010
  6
ByLayer
 62
  256
370
   -1
100
AcDbLine
 10
154.828981458
 20
24.259055118
 11
158.7
 21
22.023901448
  0
LINE
  5
138
100
AcDbEntity
  8
Sketch010
  6
ByLayer
 62
  256
370
   -1
100
AcDbLine
 10
158.7
 20
22.023901448
 11
159.562966726
 21
23.516281433
  0
LINE
  5
139
100
AcDbEntity
  8
Sketch010
  6
ByLayer
 62
  256
370
   -1
100
AcDbLine
 10
162.07493015
 20
27.868021336
 11
156.645923292
 21
31.004572009
  0
LINE
  5
13A
100
AcDbEntity
  8
Sketch010
  6
ByLayer
 62
  256
370
   -1
100
AcDbLine
 10
156.645923292
 20
31.004572009
 11
157.058928118
 21
31.718211836
  0
LINE
  5
13B
100
AcDbEntity
  8
Sketch010
  6
ByLayer
 62
  256
370
   -1
100
AcDbLine
 10
157.058928118
 20
31.718211836
 11
154.634010668
 21
33.118389637
  0
LINE
  5
13C
100
AcDbEntity
  8
Sketch010
  6
ByLayer
 62
  256
370
   -1
100
AcDbLine
 10
154.634010668
 20
33.118389637
 11
154.22001524
 21
32.403251207
  0
LINE
  5
13D
100
AcDbEntity
  8
Sketch010
  6
ByLayer
 62
  256
370
   -1
100
AcDbLine
 10
154.22001524
 20
32.403251207
 11
151.422910846
 21
34.018288037
  0
LINE
  5
13E
100
AcDbEntity
  8
Sketch010
  6
ByLayer
 62
  256
370
   -1
100
AcDbLine
 10
135.879019558
 20
65.33550927100001
 11
149.877952756
 21
65.33550927100001
  0
LINE
  5
13F
100
AcDbEntity
  8
Sketch010
  6
ByLayer
 62
  256
370
   -1
100
AcDbLine
 10
149.877952756
 20
65.33550927100001
 11
149.877952756
 21
51.336220472
  0
LINE
  5
140
100
AcDbEntity
  8
Sketch010
  6
ByLayer
 62
  256
370
   -1
100
AcDbLine
 10
149.877952756
 20
51.336220472
 11
135.879019558
 21
51.336220472
  0
LINE
  5
141
100
AcDbEntity
  8
Sketch010
  6
ByLayer
 62
  256
370
   -1
100
AcDbLine
 10
135.879019558
 20
51.336220472
 11
135.879019558
 21
65.33550927100001
  0
LINE
  5
142
100
AcDbEntity
  8
Sketch010
  6
ByLayer
 62
  256
370
   -1
100
AcDbLine
 10
116.828981458
 20
65.33550927100001
 11
130.827914656
 21
65.33550927100001
  0
LINE
  5
143
100
AcDbEntity
  8
Sketch010
  6
ByLayer
 62
  256
370
   -1
100
AcDbLine
 10
130.827914656
 20
65.33550927100001
 11
130.827914656
 21
51.336220472
  0
LINE
  5
144
100
AcDbEntity
  8
Sketch010
  6
ByLayer
 62
  256
370
   -1
100
AcDbLine
 10
130.827914656
 20
51.336220472
 11
116.828981458
 21
51.336220472
  0
LINE
  5
145
100
AcDbEntity
  8
Sketch010
  6
ByLayer
 62
  256
370
   -1
100
AcDbLine
 10
116.828981458
 20
51.336220472
 11
116.828981458
 21
65.33550927100001
  0
LINE
  5
146
100
AcDbEntity
  8
Sketch010
  6
ByLayer
 62
  256
370
   -1
100
AcDbLine
 10
97.77894335800001
 20
67.71671323299999
 11
111.778003556
 21
67.71671323299999
  0
LINE
  5
147
100
AcDbEntity
  8
Sketch010
  6
ByLayer
 62
  256
370
   -1
100
AcDbLine
 10
111.778003556
 20
67.71671323299999
 11
111.778003556
 21
53.717526035
  0
LINE
  5
148
100
AcDbEntity
  8
Sketch010
  6
ByLayer
 62
  256
370
   -1
100
AcDbLine
 10
111.778003556
 20
53.717526035
 11
97.77894335800001
 21
53.717526035
  0
LINE
  5
149
100
AcDbEntity
  8
Sketch010
  6
ByLayer
 62
  256
370
   -1
100
AcDbLine
 10
97.77894335800001
 20
53.717526035
 11
97.77894335800001
 21
67.71671323299999
  0
LINE
  5
14A
100
AcDbEntity
  8
Sketch010
  6
ByLayer
 62
  256
370
   -1
100
AcDbLine
 10
78.72877825800001
 20
70.09801879600001
 11
92.72796545600001
 21
70.09801879600001
  0
LINE
  5
14B
100
AcDbEntity
  8
Sketch010
  6
ByLayer
 62
  256
370
   -1
100
AcDbLine
 10
92.72796545600001
 20
70.09801879600001
 11
92.72796545600001
 21
56.097307595
  0
LINE
  5
14C
100
AcDbEntity
  8
Sketch010
  6
ByLayer
 62
  256
370
   -1
100
AcDbLine
 10
92.72796545600001
 20
56.097307595
 11
78.72877825800001
 21
56.097307595
  0
LINE
  5
14D
100
AcDbEntity
  8
Sketch010
  6
ByLayer
 62
  256
370
   -1
100
AcDbLine
 10
78.72877825800001
 20
56.097307595
 11
78.72877825800001
 21
70.09801879600001
  0
LINE
  5
14E
100
AcDbEntity
  8
Sketch010
  6
ByLayer
 62
  256
370
   -1
100
AcDbLine
 10
21.580543561
 20
79.62298704600001
 11
35.581203962
 21
79.62298704600001
  0
LINE
  5
14F
100
AcDbEntity
  8
Sketch010
  6
ByLayer
 62
  256
370
   -1
100
AcDbLine
 10
35.581203962
 20
79.62298704600001
 11
35.581203962
 21
65.62225044500001
  0
LINE
  5
150
100
AcDbEntity
  8
Sketch010
  6
ByLayer
 62
  256
370
   -1
100
AcDbLine
 10
35.581203962
 20
65.62225044500001
 11
21.580543561
 21
65.62225044500001
  0
LINE
  5
151
100
AcDbEntity
  8
Sketch010
  6
ByLayer
 62
  256
370
   -1
100
AcDbLine
 10
21.580543561
 20
65.62225044500001
 11
21.580543561
 21
79.62298704600001
  0
LINE
  5
152
100
AcDbEntity
  8
Sketch010
  6
ByLayer
 62
  256
370
   -1
100
AcDbLine
 10
40.628829058
 20
60.572999746
 11
54.628016256
 21
60.572999746
  0
LINE
  5
153
100
AcDbEntity
  8
Sketch010
  6
ByLayer
 62
  256
370
   -1
100
AcDbLine
 10
54.628016256
 20
60.572999746
 11
54.628016256
 21
46.572288545
  0
LINE
  5
154
100
AcDbEntity
  8
Sketch010
  6
ByLayer
 62
  256
370
   -1
100
AcDbLine
 10
54.628016256
 20
46.572288545
 11
40.628829058
 21
46.572288545
  0
LINE
  5
155
100
AcDbEntity
  8
Sketch010
  6
ByLayer
 62
  256
370
   -1
100
AcDbLine
 10
40.628829058
 20
46.572288545
 11
40.628829058
 21
60.572999746
  0
LINE
  5
156
100
AcDbEntity
  8
Sketch010
  6
ByLayer
 62
  256
370
   -1
100
AcDbLine
 10
59.678740157
 20
67.71671323299999
 11
73.677927356
 21
67.71671323299999
  0
LINE
  5
157
100
AcDbEntity
  8
Sketch010
  6
ByLayer
 62
  256
370
   -1
100
AcDbLine
 10
73.677927356
 20
67.71671323299999
 11
73.677927356
 21
53.717526035
  0
LINE
  5
158
100
AcDbEntity
  8
Sketch010
  6
ByLayer
 62
  256
370
   -1
100
AcDbLine
 10
73.677927356
 20
53.717526035
 11
59.678740157
 21
53.717526035
  0
LINE
  5
159
100
AcDbEntity
  8
Sketch010
  6
ByLayer
 62
  256
370
   -1
100
AcDbLine
 10
59.678740157
 20
53.717526035
 11
59.678740157
 21
67.71671323299999
  0
LINE
  5
15A
100
AcDbEntity
  8
Sketch010
  6
ByLayer
 62
  256
370
   -1
100
AcDbLine
 10
40.628829058
 20
79.62298704600001
 11
54.628016256
 21
79.62298704600001
  0
LINE
  5
15B
100
AcDbEntity
  8
Sketch010
  6
ByLayer
 62
  256
370
   -1
100
AcDbLine
 10
54.628016256
 20
79.62298704600001
 11
54.628016256
 21
65.62225044500001
  0
LINE
  5
15C
100
AcDbEntity
  8
Sketch010
  6
ByLayer
 62
  256
370
   -1
100
AcDbLine
 10
54.628016256
 20
65.62225044500001
 11
40.628829058
 21
65.62225044500001
  0
LINE
  5
15D
100
AcDbEntity
  8
Sketch010
  6
ByLayer
 62
  256
370
   -1
100
AcDbLine
 10
40.628829058
 20
65.62225044500001
 11
40.628829058
 21
79.62298704600001
  0
LINE
  5
15E
100
AcDbEntity
  8
Sketch010
  6
ByLayer
 62
  256
370
   -1
100
AcDbLine
 10
59.678740157
 20
86.76667513300001
 11
73.677927356
 21
86.76667513300001
  0
LINE
  5
15F
100
AcDbEntity
  8
Sketch010
  6
ByLayer
 62
  256
370
   -1
100
AcDbLine
 10
73.677927356
 20
86.76667513300001
 11
73.677927356
 21
72.767513335
  0
LINE
  5
160
100
AcDbEntity
  8
Sketch010
  6
ByLayer
 62
  256
370
   -1
100
AcDbLine
 10
73.677927356
 20
72.767513335
 11
59.678740157
 21
72.767513335
  0
LINE
  5
161
100
AcDbEntity
  8
Sketch010
  6
ByLayer
 62
  256
370
   -1
100
AcDbLine
 10
59.678740157
 20
72.767513335
 11
59.678740157
 21
86.76667513300001
  0
LINE
  5
162
100
AcDbEntity
  8
Sketch010
  6
ByLayer
 62
  256
370
   -1
100
AcDbLine
 10
78.72877825800001
 20
89.148310897
 11
92.72796545600001
 21
89.148310897
  0
LINE
  5
163
100
AcDbEntity
  8
Sketch010
  6
ByLayer
 62
  256
370
   -1
100
AcDbLine
 10
92.72796545600001
 20
89.148310897
 11
92.72796545600001
 21
75.147269495
  0
LINE
  5
164
100
AcDbEntity
  8
Sketch010
  6
ByLayer
 62
  256
370
   -1
100
AcDbLine
 10
92.72796545600001
 20
75.147269495
 11
78.72877825800001
 21
75.147269495
  0
LINE
  5
165
100
AcDbEntity
  8
Sketch010
  6
ByLayer
 62
  256
370
   -1
100
AcDbLine
 10
78.72877825800001
 20
75.147269495
 11
78.72877825800001
 21
89.148310897
  0
LINE
  5
166
100
AcDbEntity
  8
Sketch010
  6
ByLayer
 62
  256
370
   -1
100
AcDbLine
 10
97.77894335800001
 20
86.76667513300001
 11
111.778003556
 21
86.76667513300001
  0
LINE
  5
167
100
AcDbEntity
  8
Sketch010
  6
ByLayer
 62
  256
370
   -1
100
AcDbLine
 10
111.778003556
 20
86.76667513300001
 11
111.778003556
 21
72.767513335
  0
LINE
  5
168
100
AcDbEntity
  8
Sketch010
  6
ByLayer
 62
  256
370
   -1
100
AcDbLine
 10
111.778003556
 20
72.767513335
 11
97.77894335800001
 21
72.767513335
  0
LINE
  5
169
100
AcDbEntity
  8
Sketch010
  6
ByLayer
 62
  256
370
   -1
100
AcDbLine
 10
97.77894335800001
 20
72.767513335
 11
97.77894335800001
 21
86.76667513300001
  0
LINE
  5
16A
100
AcDbEntity
  8
Sketch010
  6
ByLayer
 62
  256
370
   -1
100
AcDbLine
 10
116.828981458
 20
84.385496571
 11
130.827914656
 21
84.385496571
  0
LINE
  5
16B
100
AcDbEntity
  8
Sketch010
  6
ByLayer
 62
  256
370
   -1
100
AcDbLine
 10
130.827914656
 20
84.385496571
 11
130.827914656
 21
70.38618237199999
  0
LINE
  5
16C
100
AcDbEntity
  8
Sketch010
  6
ByLayer
 62
  256
370
   -1
100
AcDbLine
 10
130.827914656
 20
70.38618237199999
 11
116.828981458
 21
70.38618237199999
  0
LINE
  5
16D
100
AcDbEntity
  8
Sketch010
  6
ByLayer
 62
  256
370
   -1
100
AcDbLine
 10
116.828981458
 20
70.38618237199999
 11
116.828981458
 21
84.385496571
  0
LINE
  5
16E
100
AcDbEntity
  8
Sketch010
  6
ByLayer
 62
  256
370
   -1
100
AcDbLine
 10
135.879019558
 20
84.385496571
 11
149.877952756
 21
84.385496571
  0
LINE
  5
16F
100
AcDbEntity
  8
Sketch010
  6
ByLayer
 62
  256
370
   -1
100
AcDbLine
 10
149.877952756
 20
84.385496571
 11
149.877952756
 21
70.38618237199999
  0
LINE
  5
170
100
AcDbEntity
  8
Sketch010
  6
ByLayer
 62
  256
370
   -1
100
AcDbLine
 10
149.877952756
 20
70.38618237199999
 11
135.879019558
 21
70.38618237199999
  0
LINE
  5
171
100
AcDbEntity
  8
Sketch010
  6
ByLayer
 62
  256
370
   -1
100
AcDbLine
 10
135.879019558
 20
70.38618237199999
 11
135.879019558
 21
84.385496571
  0
LINE
  5
172
100
AcDbEntity
  8
Sketch010
  6
ByLayer
 62
  256
370
   -1
100
AcDbLine
 10
135.879019558
 20
103.435280671
 11
149.877952756
 21
103.435280671
  0
LINE
  5
173
100
AcDbEntity
  8
Sketch010
  6
ByLayer
 62
  256
370
   -1
100
AcDbLine
 10
149.877952756
 20
103.435280671
 11
149.877952756
 21
89.436296673
  0
LINE
  5
174
100
AcDbEntity
  8
Sketch010
  6
ByLayer
 62
  256
370
   -1
100
AcDbLine
 10
149.877952756
 20
89.436296673
 11
135.879019558
 21
89.436296673
  0
LINE
  5
175
100
AcDbEntity
  8
Sketch010
  6
ByLayer
 62
  256
370
   -1
100
AcDbLine
 10
135.879019558
 20
89.436296673
 11
135.879019558
 21
103.435280671
  0
LINE
  5
176
100
AcDbEntity
  8
Sketch010
  6
ByLayer
 62
  256
370
   -1
100
AcDbLine
 10
116.828981458
 20
103.435280671
 11
130.827914656
 21
103.435280671
  0
LINE
  5
177
100
AcDbEntity
  8
Sketch010
  6
ByLayer
 62
  256
370
   -1
100
AcDbLine
 10
130.827914656
 20
103.435280671
 11
130.827914656
 21
89.436296673
  0
LINE
  5
178
100
AcDbEntity
  8
Sketch010
  6
ByLayer
 62
  256
370
   -1
100
AcDbLine
 10
130.827914656
 20
89.436296673
 11
116.828981458
 21
89.436296673
  0
LINE
  5
179
100
AcDbEntity
  8
Sketch010
  6
ByLayer
 62
  256
370
   -1
100
AcDbLine
 10
116.828981458
 20
89.436296673
 11
116.828981458
 21
103.435280671
  0
LINE
  5
17A
100
AcDbEntity
  8
Sketch010
  6
ByLayer
 62
  256
370
   -1
100
AcDbLine
 10
97.77894335800001
 20
105.816281433
 11
111.778003556
 21
105.816281433
  0
LINE
  5
17B
100
AcDbEntity
  8
Sketch010
  6
ByLayer
 62
  256
370
   -1
100
AcDbLine
 10
111.778003556
 20
105.816281433
 11
111.778003556
 21
91.817297435
  0
LINE
  5
17C
100
AcDbEntity
  8
Sketch010
  6
ByLayer
 62
  256
370
   -1
100
AcDbLine
 10
111.778003556
 20
91.817297435
 11
97.77894335800001
 21
91.817297435
  0
LINE
  5
17D
100
AcDbEntity
  8
Sketch010
  6
ByLayer
 62
  256
370
   -1
100
AcDbLine
 10
97.77894335800001
 20
91.817297435
 11
97.77894335800001
 21
105.816281433
  0
LINE
  5
17E
100
AcDbEntity
  8
Sketch010
  6
ByLayer
 62
  256
370
   -1
100
AcDbLine
 10
78.72877825800001
 20
108.198298197
 11
92.72796545600001
 21
108.198298197
  0
LINE
  5
17F
100
AcDbEntity
  8
Sketch010
  6
ByLayer
 62
  256
370
   -1
100
AcDbLine
 10
92.72796545600001
 20
108.198298197
 11
92.72796545600001
 21
94.197307595
  0
LINE
  5
180
100
AcDbEntity
  8
Sketch010
  6
ByLayer
 62
  256
370
   -1
100
AcDbLine
 10
92.72796545600001
 20
94.197307595
 11
78.72877825800001
 21
94.197307595
  0
LINE
  5
181
100
AcDbEntity
  8
Sketch010
  6
ByLayer
 62
  256
370
   -1
100
AcDbLine
 10
78.72877825800001
 20
94.197307595
 11
78.72877825800001
 21
108.198298197
  0
LINE
  5
182
100
AcDbEntity
  8
Sketch010
  6
ByLayer
 62
  256
370
   -1
100
AcDbLine
 10
59.678740157
 20
105.816281433
 11
73.677927356
 21
105.816281433
  0
LINE
  5
183
100
AcDbEntity
  8
Sketch010
  6
ByLayer
 62
  256
370
   -1
100
AcDbLine
 10
73.677927356
 20
105.816281433
 11
73.677927356
 21
91.817297435
  0
LINE
  5
184
100
AcDbEntity
  8
Sketch010
  6
ByLayer
 62
  256
370
   -1
100
AcDbLine
 10
73.677927356
 20
91.817297435
 11
59.678740157
 21
91.817297435
  0
LINE
  5
185
100
AcDbEntity
  8
Sketch010
  6
ByLayer
 62
  256
370
   -1
100
AcDbLine
 10
59.678740157
 20
91.817297435
 11
59.678740157
 21
105.816281433
  0
LINE
  5
186
100
AcDbEntity
  8
Sketch010
  6
ByLayer
 62
  256
370
   -1
100
AcDbLine
 10
40.628829058
 20
98.673279147
 11
54.628016256
 21
98.673279147
  0
LINE
  5
187
100
AcDbEntity
  8
Sketch010
  6
ByLayer
 62
  256
370
   -1
100
AcDbLine
 10
54.628016256
 20
98.673279147
 11
54.628016256
 21
84.673710947
  0
LINE
  5
188
100
AcDbEntity
  8
Sketch010
  6
ByLayer
 62
  256
370
   -1
100
AcDbLine
 10
54.628016256
 20
84.673710947
 11
40.628829058
 21
84.673710947
  0
LINE
  5
189
100
AcDbEntity
  8
Sketch010
  6
ByLayer
 62
  256
370
   -1
100
AcDbLine
 10
40.628829058
 20
84.673710947
 11
40.628829058
 21
98.673279147
  0
LINE
  5
18A
100
AcDbEntity
  8
Sketch010
  6
ByLayer
 62
  256
370
   -1
100
AcDbLine
 10
21.58011176
 20
98.673279147
 11
35.580949962
 21
98.673279147
  0
LINE
  5
18B
100
AcDbEntity
  8
Sketch010
  6
ByLayer
 62
  256
370
   -1
100
AcDbLine
 10
35.580949962
 20
98.673279147
 11
35.580949962
 21
84.673710947
  0
LINE
  5
18C
100
AcDbEntity
  8
Sketch010
  6
ByLayer
 62
  256
370
   -1
100
AcDbLine
 10
35.580949962
 20
84.673710947
 11
21.58011176
 21
84.673710947
  0
LINE
  5
18D
100
AcDbEntity
  8
Sketch010
  6
ByLayer
 62
  256
370
   -1
100
AcDbLine
 10
21.58011176
 20
84.673710947
 11
21.58011176
 21
98.673279147
  0
LINE
  5
18E
100
AcDbEntity
  8
Sketch010
  6
ByLayer
 62
  256
370
   -1
100
AcDbLine
 10
21.578663957
 20
117.723317247
 11
35.577978156
 21
117.723317247
  0
LINE
  5
18F
100
AcDbEntity
  8
Sketch010
  6
ByLayer
 62
  256
370
   -1
100
AcDbLine
 10
35.577978156
 20
117.723317247
 11
35.577978156
 21
103.723317247
  0
LINE
  5
190
100
AcDbEntity
  8
Sketch010
  6
ByLayer
 62
  256
370
   -1
100
AcDbLine
 10
35.577978156
 20
103.723317247
 11
21.578663957
 21
103.723317247
  0
LINE
  5
191
100
AcDbEntity
  8
Sketch010
  6
ByLayer
 62
  256
370
   -1
100
AcDbLine
 10
21.578663957
 20
103.723317247
 11
21.578663957
 21
117.723317247
  0
LINE
  5
192
100
AcDbEntity
  8
Sketch010
  6
ByLayer
 62
  256
370
   -1
100
AcDbLine
 10
40.628829058
 20
117.723317247
 11
54.628016256
 21
117.723317247
  0
LINE
  5
193
100
AcDbEntity
  8
Sketch010
  6
ByLayer
 62
  256
370
   -1
100
AcDbLine
 10
54.628016256
 20
117.723317247
 11
54.628016256
 21
103.723317247
  0
LINE
  5
194
100
AcDbEntity
  8
Sketch010
  6
ByLayer
 62
  256
370
   -1
100
AcDbLine
 10
54.628016256
 20
103.723317247
 11
40.628829058
 21
103.723317247
  0
LINE
  5
195
100
AcDbEntity
  8
Sketch010
  6
ByLayer
 62
  256
370
   -1
100
AcDbLine
 10
40.628829058
 20
103.723317247
 11
40.628829058
 21
117.723317247
  0
LINE
  5
196
100
AcDbEntity
  8
Sketch010
  6
ByLayer
 62
  256
370
   -1
100
AcDbLine
 10
59.678740157
 20
124.866319533
 11
73.677927356
 21
124.866319533
  0
LINE
  5
197
100
AcDbEntity
  8
Sketch010
  6
ByLayer
 62
  256
370
   -1
100
AcDbLine
 10
73.677927356
 20
124.866319533
 11
73.677927356
 21
110.867284735
  0
LINE
  5
198
100
AcDbEntity
  8
Sketch010
  6
ByLayer
 62
  256
370
   -1
100
AcDbLine
 10
73.677927356
 20
110.867284735
 11
59.678740157
 21
110.867284735
  0
LINE
  5
199
100
AcDbEntity
  8
Sketch010
  6
ByLayer
 62
  256
370
   -1
100
AcDbLine
 10
59.678740157
 20
110.867284735
 11
59.678740157
 21
124.866319533
  0
LINE
  5
19A
100
AcDbEntity
  8
Sketch010
  6
ByLayer
 62
  256
370
   -1
100
AcDbLine
 10
78.72877825800001
 20
127.248260097
 11
92.72796545600001
 21
127.248260097
  0
LINE
  5
19B
100
AcDbEntity
  8
Sketch010
  6
ByLayer
 62
  256
370
   -1
100
AcDbLine
 10
92.72796545600001
 20
127.248260097
 11
92.72796545600001
 21
113.248285497
  0
LINE
  5
19C
100
AcDbEntity
  8
Sketch010
  6
ByLayer
 62
  256
370
   -1
100
AcDbLine
 10
92.72796545600001
 20
113.248285497
 11
78.72877825800001
 21
113.248285497
  0
LINE
  5
19D
100
AcDbEntity
  8
Sketch010
  6
ByLayer
 62
  256
370
   -1
100
AcDbLine
 10
78.72877825800001
 20
113.248285497
 11
78.72877825800001
 21
127.248260097
  0
LINE
  5
19E
100
AcDbEntity
  8
Sketch010
  6
ByLayer
 62
  256
370
   -1
100
AcDbLine
 10
97.77894335800001
 20
124.866319533
 11
111.778003556
 21
124.866319533
  0
LINE
  5
19F
100
AcDbEntity
  8
Sketch010
  6
ByLayer
 62
  256
370
   -1
100
AcDbLine
 10
111.778003556
 20
124.866319533
 11
111.778003556
 21
110.867284735
  0
LINE
  5
1A0
100
AcDbEntity
  8
Sketch010
  6
ByLayer
 62
  256
370
   -1
100
AcDbLine
 10
111.778003556
 20
110.867284735
 11
97.77894335800001
 21
110.867284735
  0
LINE
  5
1A1
100
AcDbEntity
  8
Sketch010
  6
ByLayer
 62
  256
370
   -1
100
AcDbLine
 10
97.77894335800001
 20
110.867284735
 11
97.77894335800001
 21
124.866319533
  0
LINE
  5
1A2
100
AcDbEntity
  8
Sketch010
  6
ByLayer
 62
  256
370
   -1
100
AcDbLine
 10
116.828981458
 20
122.485318771
 11
130.827914656
 21
122.485318771
  0
LINE
  5
1A3
100
AcDbEntity
  8
Sketch010
  6
ByLayer
 62
  256
370
   -1
100
AcDbLine
 10
130.827914656
 20
122.485318771
 11
130.827914656
 21
108.486258573
  0
LINE
  5
1A4
100
AcDbEntity
  8
Sketch010
  6
ByLayer
 62
  256
370
   -1
100
AcDbLine
 10
130.827914656
 20
108.486258573
 11
116.828981458
 21
108.486258573
  0
LINE
  5
1A5
100
AcDbEntity
  8
Sketch010
  6
ByLayer
 62
  256
370
   -1
100
AcDbLine
 10
116.828981458
 20
108.486258573
 11
116.828981458
 21
122.485318771
  0
LINE
  5
1A6
100
AcDbEntity
  8
Sketch010
  6
ByLayer
 62
  256
370
   -1
100
AcDbLine
 10
135.879019558
 20
122.485318771
 11
149.877952756
 21
122.485318771
  0
LINE
  5
1A7
100
AcDbEntity
  8
Sketch010
  6
ByLayer
 62
  256
370
   -1
100
AcDbLine
 10
149.877952756
 20
122.485318771
 11
149.877952756
 21
108.486258573
  0
LINE
  5
1A8
100
AcDbEntity
  8
Sketch010
  6
ByLayer
 62
  256
370
   -1
100
AcDbLine
 10
149.877952756
 20
108.486258573
 11
135.879019558
 21
108.486258573
  0
LINE
  5
1A9
100
AcDbEntity
  8
Sketch010
  6
ByLayer
 62
  256
370
   -1
100
AcDbLine
 10
135.879019558
 20
108.486258573
 11
135.879019558
 21
122.485318771
  0
LINE
  5
1AA
100
AcDbEntity
  8
Sketch010
  6
ByLayer
 62
  256
370
   -1
100
AcDbLine
 10
149.877952756
 20
141.535306071
 11
149.877952756
 21
127.536296673
  0
LINE
  5
1AB
100
AcDbEntity
  8
Sketch010
  6
ByLayer
 62
  256
370
   -1
100
AcDbLine
 10
149.877952756
 20
127.536296673
 11
135.879019558
 21
127.536296673
  0
LINE
  5
1AC
100
AcDbEntity
  8
Sketch010
  6
ByLayer
 62
  256
370
   -1
100
AcDbLine
 10
135.879019558
 20
127.536296673
 11
135.879019558
 21
141.535306071
  0
LINE
  5
1AD
100
AcDbEntity
  8
Sketch010
  6
ByLayer
 62
  256
370
   -1
100
AcDbLine
 10
135.879019558
 20
141.535306071
 11
149.877952756
 21
141.535306071
  0
LINE
  5
1AE
100
AcDbEntity
  8
Sketch010
  6
ByLayer
 62
  256
370
   -1
100
AcDbLine
 10
116.828981458
 20
141.535306071
 11
130.827914656
 21
141.535306071
  0
LINE
  5
1AF
100
AcDbEntity
  8
Sketch010
  6
ByLayer
 62
  256
370
   -1
100
AcDbLine
 10
130.827914656
 20
141.535306071
 11
130.827914656
 21
127.536296673
  0
LINE
  5
1B0
100
AcDbEntity
  8
Sketch010
  6
ByLayer
 62
  256
370
   -1
100
AcDbLine
 10
130.827914656
 20
127.536296673
 11
116.828981458
 21
127.536296673
  0
LINE
  5
1B1
100
AcDbEntity
  8
Sketch010
  6
ByLayer
 62
  256
370
   -1
100
AcDbLine
 10
116.828981458
 20
127.536296673
 11
116.828981458
 21
141.535306071
  0
LINE
  5
1B2
100
AcDbEntity
  8
Sketch010
  6
ByLayer
 62
  256
370
   -1
100
AcDbLine
 10
97.77894335800001
 20
143.916306833
 11
111.778003556
 21
143.916306833
  0
LINE
  5
1B3
100
AcDbEntity
  8
Sketch010
  6
ByLayer
 62
  256
370
   -1
100
AcDbLine
 10
111.778003556
 20
143.916306833
 11
111.778003556
 21
129.917322835
  0
LINE
  5
1B4
100
AcDbEntity
  8
Sketch010
  6
ByLayer
 62
  256
370
   -1
100
AcDbLine
 10
111.778003556
 20
129.917322835
 11
97.77894335800001
 21
129.917322835
  0
LINE
  5
1B5
100
AcDbEntity
  8
Sketch010
  6
ByLayer
 62
  256
370
   -1
100
AcDbLine
 10
97.77894335800001
 20
129.917322835
 11
97.77894335800001
 21
143.916306833
  0
LINE
  5
1B6
100
AcDbEntity
  8
Sketch010
  6
ByLayer
 62
  256
370
   -1
100
AcDbLine
 10
78.72877825800001
 20
146.298298197
 11
92.72796545600001
 21
146.298298197
  0
LINE
  5
1B7
100
AcDbEntity
  8
Sketch010
  6
ByLayer
 62
  256
370
   -1
100
AcDbLine
 10
92.72796545600001
 20
146.298298197
 11
92.72796545600001
 21
132.297256795
  0
LINE
  5
1B8
100
AcDbEntity
  8
Sketch010
  6
ByLayer
 62
  256
370
   -1
100
AcDbLine
 10
92.72796545600001
 20
132.297256795
 11
78.72877825800001
 21
132.297256795
  0
LINE
  5
1B9
100
AcDbEntity
  8
Sketch010
  6
ByLayer
 62
  256
370
   -1
100
AcDbLine
 10
78.72877825800001
 20
132.297256795
 11
78.72877825800001
 21
146.298298197
  0
LINE
  5
1BA
100
AcDbEntity
  8
Sketch010
  6
ByLayer
 62
  256
370
   -1
100
AcDbLine
 10
59.678740157
 20
143.916306833
 11
73.677927356
 21
143.916306833
  0
LINE
  5
1BB
100
AcDbEntity
  8
Sketch010
  6
ByLayer
 62
  256
370
   -1
100
AcDbLine
 10
73.677927356
 20
143.916306833
 11
73.677927356
 21
129.917322835
  0
LINE
  5
1BC
100
AcDbEntity
  8
Sketch010
  6
ByLayer
 62
  256
370
   -1
100
AcDbLine
 10
73.677927356
 20
129.917322835
 11
59.678740157
 21
129.917322835
  0
LINE
  5
1BD
100
AcDbEntity
  8
Sketch010
  6
ByLayer
 62
  256
370
   -1
100
AcDbLine
 10
59.678740157
 20
129.917322835
 11
59.678740157
 21
143.916306833
  0
LINE
  5
1BE
100
AcDbEntity
  8
Sketch010
  6
ByLayer
 62
  256
370
   -1
100
AcDbLine
 10
40.628829058
 20
136.773279147
 11
54.628016256
 21
136.773279147
  0
LINE
  5
1BF
100
AcDbEntity
  8
Sketch010
  6
ByLayer
 62
  256
370
   -1
100
AcDbLine
 10
54.628016256
 20
136.773279147
 11
54.628016256
 21
122.772313945
  0
LINE
  5
1C0
100
AcDbEntity
  8
Sketch010
  6
ByLayer
 62
  256
370
   -1
100
AcDbLine
 10
54.628016256
 20
122.772313945
 11
40.628829058
 21
122.772313945
  0
LINE
  5
1C1
100
AcDbEntity
  8
Sketch010
  6
ByLayer
 62
  256
370
   -1
100
AcDbLine
 10
40.628829058
 20
122.772313945
 11
40.628829058
 21
136.773279147
  0
LINE
  5
1C2
100
AcDbEntity
  8
Sketch010
  6
ByLayer
 62
  256
370
   -1
100
AcDbLine
 10
21.578663957
 20
136.773279147
 11
35.577978156
 21
136.773279147
  0
LINE
  5
1C3
100
AcDbEntity
  8
Sketch010
  6
ByLayer
 62
  256
370
   -1
100
AcDbLine
 10
35.577978156
 20
136.773279147
 11
35.577978156
 21
122.772313945
  0
LINE
  5
1C4
100
AcDbEntity
  8
Sketch010
  6
ByLayer
 62
  256
370
   -1
100
AcDbLine
 10
35.577978156
 20
122.772313945
 11
21.578663957
 21
122.772313945
  0
LINE
  5
1C5
100
AcDbEntity
  8
Sketch010
  6
ByLayer
 62
  256
370
   -1
100
AcDbLine
 10
21.578663957
 20
122.772313945
 11
21.578663957
 21
136.773279147
  0
LINE
  5
1C6
100
AcDbEntity
  8
Sketch010
  6
ByLayer
 62
  256
370
   -1
100
AcDbLine
 10
21.580365761
 20
51.272694945
 11
21.580365761
 21
46.572263145
  0
LINE
  5
1C7
100
AcDbEntity
  8
Sketch010
  6
ByLayer
 62
  256
370
   -1
100
AcDbLine
 10
21.580365761
 20
46.572263145
 11
35.579654559
 21
46.572263145
  0
LINE
  5
1C8
100
AcDbEntity
  8
Sketch010
  6
ByLayer
 62
  256
370
   -1
100
AcDbLine
 10
35.579654559
 20
46.572263145
 11
35.579654559
 21
51.272694945
  0
LINE
  5
1C9
100
AcDbEntity
  8
Sketch010
  6
ByLayer
 62
  256
370
   -1
100
AcDbLine
 10
35.57983236
 20
60.572745745
 11
21.57983236
 21
60.572745745
  0
LINE
  5
1CA
100
AcDbEntity
  8
Sketch010
  6
ByLayer
 62
  256
370
   -1
100
AcDbLine
 10
21.57983236
 20
60.572745745
 11
21.57983236
 21
46.572745745
  0
LINE
  5
1CB
100
AcDbEntity
  8
Sketch010
  6
ByLayer
 62
  256
370
   -1
100
AcDbLine
 10
21.57983236
 20
46.572745745
 11
35.57983236
 21
46.572745745
  0
LINE
  5
1CC
100
AcDbEntity
  8
Sketch010
  6
ByLayer
 62
  256
370
   -1
100
AcDbLine
 10
35.57983236
 20
46.572745745
 11
35.57983236
 21
60.572745745
  0
LINE
  5
1CD
100
AcDbEntity
  8
Sketch010
  6
ByLayer
 62
  256
370
   -1
100
AcDbLine
 10
21.580365761
 20
60.572974346
 11
21.580365761
 21
55.872542545
  0
LINE
  5
1CE
100
AcDbEntity
  8
Sketch010
  6
ByLayer
 62
  256
370
   -1
100
AcDbLine
 10
21.581381763
 20
27.522275845
 11
21.581381763
 21
41.522936246
  0
LINE
  5
1CF
100
AcDbEntity
  8
Sketch010
  6
ByLayer
 62
  256
370
   -1
100
AcDbLine
 10
21.581381763
 20
41.522936246
 11
35.580670561
 21
41.522936246
  0
LINE
  5
1D0
100
AcDbEntity
  8
Sketch010
  6
ByLayer
 62
  256
370
   -1
100
AcDbLine
 10
35.580670561
 20
41.522936246
 11
35.580670561
 21
27.522275845
  0
LINE
  5
1D1
100
AcDbEntity
  8
Sketch010
  6
ByLayer
 62
  256
370
   -1
100
AcDbLine
 10
21.580467361
 20
41.523469647
 11
35.580467361
 21
41.523469647
  0
LINE
  5
1D2
100
AcDbEntity
  8
Sketch010
  6
ByLayer
 62
  256
370
   -1
100
AcDbLine
 10
35.580467361
 20
41.523469647
 11
35.580467361
 21
27.523469647
  0
LINE
  5
1D3
100
AcDbEntity
  8
Sketch010
  6
ByLayer
 62
  256
370
   -1
100
AcDbLine
 10
35.580467361
 20
27.523469647
 11
21.580467361
 21
27.523469647
  0
LINE
  5
1D4
100
AcDbEntity
  8
Sketch010
  6
ByLayer
 62
  256
370
   -1
100
AcDbLine
 10
21.580467361
 20
27.523469647
 11
21.580467361
 21
41.523469647
  0
LINE
  5
1D5
100
AcDbEntity
  8
Sketch010
  6
ByLayer
 62
  256
370
   -1
100
AcDbLine
 10
21.580467361
 20
41.523469647
 11
21.580467361
 21
27.523469647
  0
LINE
  5
1D6
100
AcDbEntity
  8
Sketch010
  6
ByLayer
 62
  256
370
   -1
100
AcDbLine
 10
21.580467361
 20
27.523469647
 11
35.580467361
 21
27.523469647
  0
LINE
  5
1D7
100
AcDbEntity
  8
Sketch010
  6
ByLayer
 62
  256
370
   -1
100
AcDbLine
 10
35.580467361
 20
27.523469647
 11
35.580467361
 21
41.523469647
  0
LINE
  5
1D8
100
AcDbEntity
  8
Sketch010
  6
ByLayer
 62
  256
370
   -1
100
AcDbLine
 10
35.580467361
 20
41.523469647
 11
21.580467361
 21
41.523469647
  0
LINE
  5
1D9
100
AcDbEntity
  8
Sketch010
  6
ByLayer
 62
  256
370
   -1
100
AcDbLine
 10
153.138862078
 20
89.53522986999999
 11
175.138938278
 21
89.53522986999999
  0
LINE
  5
1DA
100
AcDbEntity
  8
Sketch010
  6
ByLayer
 62
  256
370
   -1
100
AcDbLine
 10
175.138938278
 20
89.53522986999999
 11
175.138938278
 21
141.535331471
  0
LINE
  5
1DB
100
AcDbEntity
  8
Sketch010
  6
ByLayer
 62
  256
370
   -1
100
AcDbLine
 10
153.138912878
 20
141.535306071
 11
175.138963678
 21
141.535306071
  0
LINE
  5
1DC
100
AcDbEntity
  8
Sketch010
  6
ByLayer
 62
  256
370
   -1
100
AcDbLine
 10
153.138912878
 20
141.535306071
 11
153.138912878
 21
89.535255271
  0
LINE
  5
1DD
100
AcDbEntity
  8
Sketch010
  6
ByLayer
 62
  256
370
   -1
100
AcDbLine
 10
153.138912878
 20
89.535255271
 11
175.138963678
 21
89.535255271
  0
LINE
  5
1DE
100
AcDbEntity
  8
Sketch010
  6
ByLayer
 62
  256
370
   -1
100
AcDbLine
 10
123.025958852
 20
22.933426467
 11
119.6636475184467
 21
17.10769633219842
  0
LINE
  5
1DF
100
AcDbEntity
  8
Sketch010
  6
ByLayer
 62
  256
370
   -1
100
AcDbLine
 10
134.92491745
 20
43.543307087
 11
131.5668886331136
 21
37.71784977098951
  0
LINE
  5
1E0
100
AcDbEntity
  8
Sketch010
  6
ByLayer
 62
  256
370
   -1
100
AcDbLine
 10
151.422910846
 20
34.018288037
 11
148.0645592683369
 21
28.19295821451303
  0
LINE
  5
1E1
100
AcDbEntity
  8
Sketch010
  6
ByLayer
 62
  256
370
   -1
100
AcDbLine
 10
139.523952248
 20
13.408407417
 11
136.1613185933819
 21
7.582804678525846
  0
LINE
  5
1E2
100
AcDbEntity
  8
Sketch010
  6
ByLayer
 62
  256
370
   -1
100
AcDbLine
 10
158.7169820251042
 20
22.04253214892366
 11
162.07493015
 21
27.868021336
  0
LINE
  5
1E3
100
AcDbEntity
  8
Sketch010
  6
ByLayer
 62
  256
370
   -1
100
AcDbLine
 10
142.2188441886868
 20
31.56761981878171
 11
145.576936754
 21
37.392989586
  0
LINE
  5
1E4
100
AcDbEntity
  8
Sketch010
  6
ByLayer
 62
  256
370
   -1
100
AcDbLine
 10
146.8115532563815
 20
1.435041796030554
 11
150.175971552
 21
7.258191516
  0
LINE
  5
1E5
100
AcDbEntity
  8
Sketch010
  6
ByLayer
 62
  256
370
   -1
100
AcDbLine
 10
130.3138822339265
 20
10.95993329807634
 11
133.677978156
 21
16.783210566
  0
ENDSEC
  0
SECTION
  2
OBJECTS
  0
DICTIONARY
  5
C
330
0
100
AcDbDictionary
281
    1
  3
ACAD_GROUP
350
D
  0
DICTIONARY
  5
D
330
C
100
AcDbDictionary
281
    1
  0
PLOTSETTINGS
  5
1E6
100
AcDbPlotSettings
  6
1x1
 40
0
 41
0
 42
0
 43
0
  0
ENDSEC
  0
EOF
