999
FreeCAD v1.0 Unknown
  0
SECTION
  2
HEADER
  9
$ACADVER
  1
AC1014
  9
$ACADMAINTVER
 70
     9
  9
$DWGCODEPAGE
  3
ANSI_1252
  9
$TEXTSTYLE
  7
STANDARD
  9
$DIMSTYLE
  2
STANDARD
  9
$DIMTXSTY
  7
STANDARD
  9
$CMLSTYLE
  2
STANDARD
  9
$LUNITS
 70
2
  9
$INSUNITS
 70
4
  9
$PEXTMAX
 10
50
 20
50
 30
50
  9
$PEXTMIN
 10
0
 20
0
 30
0
  9
$HANDSEED
  5
FFFF
  0
ENDSEC
  0
SECTION
  2
CLASSES
  0
CLASS
  1
ACDBDICTIONARYWDFLT
  2
AcDbDictionaryWithDefault
  3
ObjectDBX Classes
 90
        0
280
     0
281
     0
  0
CLASS
  1
XRECORD
  2
AcDbXrecord
  3
ObjectDBX Classes
 90
        0
280
     0
281
     0
  0
CLASS
  1
LWPOLYLINE
  2
AcDbPolyline
  3
ObjectDBX Classes
 90
        0
280
     0
281
     1
  0
ENDSEC
  0
SECTION
  2
TABLES
  0
TABLE
  2
VPORT
  5
20
330
0
100
AcDbSymbolTable
 70
     1
  0
VPORT
  5
21
330
20
100
AcDbSymbolTableRecord
100
AcDbViewportTableRecord
  2
*ACTIVE
 70
     0
  0
ENDTAB
  0
TABLE
  2
LTYPE
  5
22
330
0
100
AcDbSymbolTable
 70
     1
  0
LTYPE
  5
23
330
21
100
AcDbSymbolTableRecord
100
AcDbLinetypeTableRecord
  2
BYBLOCK
 70
     0
  3

 72
    65
 73
     0
 40
0.0
  0
LTYPE
  5
24
330
21
100
AcDbSymbolTableRecord
100
AcDbLinetypeTableRecord
  2
BYLAYER
 70
     0
  3

 72
    65
 73
     0
 40
0.0
  0
LTYPE
  5
25
330
21
100
AcDbSymbolTableRecord
100
AcDbLinetypeTableRecord
  2
CONTINUOUS
 70
     0
  3
Solid line
 72
    65
 73
     0
 40
0.0
  0
ENDTAB
  0
TABLE
  2
LAYER
  5
BB5
330
0
100
AcDbSymbolTable
 70
5
  0
LAYER
  5
BB6
330
BB5
100
AcDbSymbolTableRecord
100
AcDbLayerTableRecord
  2
0
 70
   0
 62
   7
  6
CONTINUOUS
  0
LAYER
  5
BB7
330
BB5
100
AcDbSymbolTableRecord
100
AcDbLayerTableRecord
  2
none
 70
    0
 62
    7
  6
CONTINUOUS
  0
LAYER
  5
BB8
330
BB5
100
AcDbSymbolTableRecord
100
AcDbLayerTableRecord
  2
Fillet
 70
    0
 62
    7
  6
CONTINUOUS
  0
LAYER
  5
BB9
330
BB5
100
AcDbSymbolTableRecord
100
AcDbLayerTableRecord
  2
Sketch005
 70
    0
 62
    7
  6
CONTINUOUS
  0
LAYER
  5
BBA
330
BB5
100
AcDbSymbolTableRecord
100
AcDbLayerTableRecord
  2
Sketch010
 70
    0
 62
    7
  6
CONTINUOUS
  0
ENDTAB
  0
TABLE
  2
STYLE
  5
70
330
0
100
AcDbSymbolTable
 70
     2
  0
STYLE
  5
71
330
70
100
AcDbSymbolTableRecord
100
AcDbTextStyleTableRecord
  2
STANDARD
 70
     0
 40
0.0
 41
1.0
 50
0.0
 71
     0
 42
2.5
  3
arial.ttf
  4

  0
STYLE
  5
72
330
70
100
AcDbSymbolTableRecord
100
AcDbTextStyleTableRecord
  2
ANNOTATIVE
 70
     0
 40
0.0
 41
1.0
 50
0.0
 71
     0
 42
2.5
  3
arial.ttf
  4

  0
ENDTAB
  0
TABLE
  2
VIEW
  5
73
330
0
100
AcDbSymbolTable
 70
     0
  0
ENDTAB
  0
TABLE
  2
UCS
  5
74
330
0
100
AcDbSymbolTable
 70
     0
  0
ENDTAB
  0
TABLE
  2
APPID
  5
75
330
0
100
AcDbSymbolTable
 70
     2
  0
APPID
  5
76
330
75
100
AcDbSymbolTableRecord
100
AcDbRegAppTableRecord
  2
ACAD
 70
     0
  0
APPID
  5
77
330
75
100
AcDbSymbolTableRecord
100
AcDbRegAppTableRecord
  2
ACADANNOTATIVE
 70
     0
  0
ENDTAB
  0
TABLE
  2
DIMSTYLE
  5
78
330
0
100
AcDbSymbolTable
 70
     2
  0
DIMSTYLE
105
79
330
78
100
AcDbSymbolTableRecord
100
AcDbDimStyleTableRecord
  2
STANDARD
 70
     0
  3

  4

  5

  6

  7

 40
0.0
 41
2.5
 42
0.625
 43
3.75
 44
1.25
 45
0.0
 46
0.0
 47
0.0
 48
0.0
140
2.5
141
2.5
142
0.0
143
0.03937007874016
144
1.0
145
0.0
146
1.0
147
0.625
 71
     0
 72
     0
 73
     0
 74
     0
 75
     0
 76
     0
 77
     1
 78
     8
170
     0
171
     3
172
     1
173
     0
174
     0
175
     0
176
     0
177
     0
178
     0
270
     2
271
     2
272
     2
273
     2
274
     3
340
71
275
     0
280
     0
281
     0
282
     0
283
     0
284
     8
285
     0
286
     0
287
     3
288
     0
  0
ENDTAB
  0
TABLE
  2
BLOCK_RECORD
  5
A01
330
0
100
AcDbSymbolTable
  70
5
  0
BLOCK_RECORD
  5
A02
330
A01
100
AcDbSymbolTableRecord
100
AcDbBlockTableRecord
  2
*MODEL_SPACE
  0
BLOCK_RECORD
  5
A03
330
A01
100
AcDbSymbolTableRecord
100
AcDbBlockTableRecord
  2
*PAPER_SPACE
  0
ENDTAB
  0
ENDSEC
  0
SECTION
  2
BLOCKS
  0
BLOCK
  5
A04
330
A02
100
AcDbEntity
  8
0
100
AcDbBlockBegin
  2
*MODEL_SPACE
 70
   0
 10
0
 20
0
 30
0
  3
*MODEL_SPACE
  1
 
  0
ENDBLK
  5
A05
330
A02
100
AcDbEntity
  8
0
100
AcDbBlockEnd
  0
BLOCK
  5
A06
330
A03
100
AcDbEntity
 67
1
  8
0
100
AcDbBlockBegin
  2
*PAPER_SPACE
 70
   0
 10
0
 20
0
 30
0
  3
*PAPER_SPACE
  1
 
  0
ENDBLK
  5
A07
330
A03
100
AcDbEntity
 67
    1
  8
0
100
AcDbBlockEnd
  0
ENDSEC
  0
SECTION
  2
ENTITIES
  0
LINE
  5
A08
330
A02
100
AcDbEntity
  8
Fillet
100
AcDbLine
 10
158.304076233
 20
1.408987526
 30
-2.000000000
 11
181.950530359
 21
42.328817680
 31
-2.000000000
  0
LINE
  5
A09
330
A02
100
AcDbEntity
  8
Fillet
100
AcDbLine
 10
181.950530359
 20
42.328817680
 30
-2.000000000
 11
181.950530359
 21
42.328817680
 31
0.000000000
  0
LINE
  5
A0A
330
A02
100
AcDbEntity
  8
Fillet
100
AcDbLine
 10
158.304076233
 20
1.408987526
 30
-2.000000000
 11
158.304076233
 21
1.408987526
 31
0.000000000
  0
LINE
  5
A0B
330
A02
100
AcDbEntity
  8
Fillet
100
AcDbLine
 10
158.304076233
 20
1.408987526
 30
0.000000000
 11
181.950530359
 21
42.328817680
 31
0.000000000
  0
LINE
  5
A0C
330
A02
100
AcDbEntity
  8
Fillet
100
AcDbLine
 10
158.304076233
 20
1.408987526
 30
-2.000000000
 11
181.950530359
 21
42.328817680
 31
-2.000000000
  0
ARC
  5
A0D
330
A02
100
AcDbEntity
  8
Fillet
100
AcDbCircle
 10
174.694879506
 20
46.521660475
 30
-2.000000000
 40
8.380000000
100
AcDbArc
 50
-30.022446192
 51
-0.000028363
  0
LINE
  5
A0E
330
A02
100
AcDbEntity
  8
Fillet
100
AcDbLine
 10
158.304076233
 20
1.408987526
 30
-2.000000000
 11
152.243311776
 21
-9.079073427
 31
-2.000000000
  0
LINE
  5
A0F
330
A02
100
AcDbEntity
  8
Fillet
100
AcDbLine
 10
183.074879506
 20
46.521656327
 30
-2.000000000
 11
183.074932536
 21
153.645271872
 31
-2.000000000
  0
ARC
  5
A10
330
A02
100
AcDbEntity
  8
Fillet
100
AcDbCircle
 10
150.182637668
 20
-7.888266046
 30
-2.000000000
 40
2.380000000
100
AcDbArc
 50
-119.942786869
 51
-30.022446192
  0
ARC
  5
A11
330
A02
100
AcDbEntity
  8
Fillet
100
AcDbCircle
 10
180.694932536
 20
153.645273051
 30
-2.000000000
 40
2.380000000
100
AcDbArc
 50
-0.000028363
 51
90.000000000
  0
LINE
  5
A12
330
A02
100
AcDbEntity
  8
Fillet
100
AcDbLine
 10
148.994696428
 20
-9.950593762
 30
-2.000000000
 11
90.361934715
 21
23.823027704
 31
-2.000000000
  0
LINE
  5
A13
330
A02
100
AcDbEntity
  8
Fillet
100
AcDbLine
 10
180.694932536
 20
156.025273051
 30
-2.000000000
 11
71.382540005
 21
156.025273051
 31
-2.000000000
  0
ARC
  5
A14
330
A02
100
AcDbEntity
  8
Fillet
100
AcDbCircle
 10
86.179183627
 20
16.561554483
 30
-2.000000000
 40
8.380000000
100
AcDbArc
 50
60.057213131
 51
90.000000000
  0
ARC
  5
A15
330
A02
100
AcDbEntity
  8
Fillet
100
AcDbCircle
 10
71.382540005
 20
153.645273051
 30
-2.000000000
 40
2.380000000
100
AcDbArc
 50
90.000000000
 51
180.000000000
  0
LINE
  5
A16
330
A02
100
AcDbEntity
  8
Fillet
100
AcDbLine
 10
76.203911608
 20
24.941554483
 30
-2.000000000
 11
86.179183627
 21
24.941554483
 31
-2.000000000
  0
LINE
  5
A17
330
A02
100
AcDbEntity
  8
Fillet
100
AcDbLine
 10
69.002540005
 20
153.645273051
 30
-2.000000000
 11
69.002540005
 21
153.643281687
 31
-2.000000000
  0
LINE
  5
A18
330
A02
100
AcDbEntity
  8
Fillet
100
AcDbLine
 10
66.734000508
 20
24.941554483
 30
-2.000000000
 11
76.203911608
 21
24.941554483
 31
-2.000000000
  0
LINE
  5
A19
330
A02
100
AcDbEntity
  8
Fillet
100
AcDbLine
 10
69.002540005
 20
153.643281687
 30
-2.000000000
 11
52.332628905
 21
153.643281687
 31
-2.000000000
  0
ARC
  5
A1A
330
A02
100
AcDbEntity
  8
Fillet
100
AcDbCircle
 10
66.734000508
 20
22.561554483
 30
-2.000000000
 40
2.380000000
100
AcDbArc
 50
90.000000000
 51
180.000000000
  0
ARC
  5
A1B
330
A02
100
AcDbEntity
  8
Fillet
100
AcDbCircle
 10
52.332628905
 20
151.263281687
 30
-2.000000000
 40
2.380000000
100
AcDbArc
 50
90.000000000
 51
180.000000000
  0
LINE
  5
A1C
330
A02
100
AcDbEntity
  8
Fillet
100
AcDbLine
 10
64.354000508
 20
20.176012192
 30
-2.000000000
 11
64.354000508
 21
22.561554483
 31
-2.000000000
  0
LINE
  5
A1D
330
A02
100
AcDbEntity
  8
Fillet
100
AcDbLine
 10
49.952628905
 20
151.263281687
 30
-2.000000000
 11
49.952628905
 21
148.880254001
 31
-2.000000000
  0
ARC
  5
A1E
330
A02
100
AcDbEntity
  8
Fillet
100
AcDbCircle
 10
61.974000508
 20
20.176012192
 30
-2.000000000
 40
2.380000000
100
AcDbArc
 50
-90.000000000
 51
-0.000000000
  0
ARC
  5
A1F
330
A02
100
AcDbEntity
  8
Fillet
100
AcDbCircle
 10
47.572628905
 20
148.880254001
 30
-2.000000000
 40
2.380000000
100
AcDbArc
 50
-90.000000000
 51
0.000000000
  0
LINE
  5
A20
330
A02
100
AcDbEntity
  8
Fillet
100
AcDbLine
 10
14.233009906
 20
17.796012192
 30
-2.000000000
 11
61.974000508
 21
17.796012192
 31
-2.000000000
  0
LINE
  5
A21
330
A02
100
AcDbEntity
  8
Fillet
100
AcDbLine
 10
47.572628905
 20
146.500254001
 30
-2.000000000
 11
14.233009906
 21
146.500254001
 31
-2.000000000
  0
ARC
  5
A22
330
A02
100
AcDbEntity
  8
Fillet
100
AcDbCircle
 10
14.233009906
 20
20.176012192
 30
-2.000000000
 40
2.380000000
100
AcDbArc
 50
180.000000000
 51
-90.000000000
  0
ARC
  5
A23
330
A02
100
AcDbEntity
  8
Fillet
100
AcDbCircle
 10
14.233009906
 20
144.120254001
 30
-2.000000000
 40
2.380000000
100
AcDbArc
 50
90.000000000
 51
180.000000000
  0
LINE
  5
A24
330
A02
100
AcDbEntity
  8
Fillet
100
AcDbLine
 10
11.853009906
 20
144.120254001
 30
-2.000000000
 11
11.853009906
 21
20.176012192
 31
-2.000000000
  0
ARC
  5
A25
330
A02
100
AcDbEntity
  8
Fillet
100
AcDbCircle
 10
174.694879506
 20
46.521660475
 30
-2.000000000
 40
8.380000000
100
AcDbArc
 50
-30.022446192
 51
-0.000028363
  0
LINE
  5
A26
330
A02
100
AcDbEntity
  8
Fillet
100
AcDbLine
 10
181.950530359
 20
42.328817680
 30
-2.000000000
 11
181.950530359
 21
42.328817680
 31
0.000000000
  0
LINE
  5
A27
330
A02
100
AcDbEntity
  8
Fillet
100
AcDbLine
 10
183.074879506
 20
46.521656327
 30
-2.000000000
 11
183.074879506
 21
46.521656327
 31
0.000000000
  0
ARC
  5
A28
330
A02
100
AcDbEntity
  8
Fillet
100
AcDbCircle
 10
174.694879506
 20
46.521660475
 30
0.000000000
 40
8.380000000
100
AcDbArc
 50
-30.022446192
 51
-0.000028363
  0
LINE
  5
A29
330
A02
100
AcDbEntity
  8
Fillet
100
AcDbLine
 10
158.304076233
 20
1.408987526
 30
-2.000000000
 11
152.243311776
 21
-9.079073427
 31
-2.000000000
  0
LINE
  5
A2A
330
A02
100
AcDbEntity
  8
Fillet
100
AcDbLine
 10
152.243311776
 20
-9.079073427
 30
-2.000000000
 11
152.243311776
 21
-9.079073427
 31
0.000000000
  0
LINE
  5
A2B
330
A02
100
AcDbEntity
  8
Fillet
100
AcDbLine
 10
158.304076233
 20
1.408987526
 30
-2.000000000
 11
158.304076233
 21
1.408987526
 31
0.000000000
  0
LINE
  5
A2C
330
A02
100
AcDbEntity
  8
Fillet
100
AcDbLine
 10
158.304076233
 20
1.408987526
 30
0.000000000
 11
152.243311776
 21
-9.079073427
 31
0.000000000
  0
LINE
  5
A2D
330
A02
100
AcDbEntity
  8
Fillet
100
AcDbLine
 10
158.304076233
 20
1.408987526
 30
0.000000000
 11
181.950530359
 21
42.328817680
 31
0.000000000
  0
ARC
  5
A2E
330
A02
100
AcDbEntity
  8
Fillet
100
AcDbCircle
 10
174.694879506
 20
46.521660475
 30
0.000000000
 40
8.380000000
100
AcDbArc
 50
-30.022446192
 51
-0.000028363
  0
LINE
  5
A2F
330
A02
100
AcDbEntity
  8
Fillet
100
AcDbLine
 10
158.304076233
 20
1.408987526
 30
0.000000000
 11
152.243311776
 21
-9.079073427
 31
0.000000000
  0
LINE
  5
A30
330
A02
100
AcDbEntity
  8
Fillet
100
AcDbLine
 10
183.074879506
 20
46.521656327
 30
0.000000000
 11
183.074932536
 21
153.645271872
 31
0.000000000
  0
ARC
  5
A31
330
A02
100
AcDbEntity
  8
Fillet
100
AcDbCircle
 10
150.182637668
 20
-7.888266046
 30
0.000000000
 40
2.380000000
100
AcDbArc
 50
-119.942786869
 51
-30.022446192
  0
ARC
  5
A32
330
A02
100
AcDbEntity
  8
Fillet
100
AcDbCircle
 10
180.694932536
 20
153.645273051
 30
0.000000000
 40
2.380000000
100
AcDbArc
 50
-0.000028363
 51
90.000000000
  0
LINE
  5
A33
330
A02
100
AcDbEntity
  8
Fillet
100
AcDbLine
 10
148.994696428
 20
-9.950593762
 30
0.000000000
 11
90.361934715
 21
23.823027704
 31
0.000000000
  0
LINE
  5
A34
330
A02
100
AcDbEntity
  8
Fillet
100
AcDbLine
 10
180.694932536
 20
156.025273051
 30
0.000000000
 11
71.382540005
 21
156.025273051
 31
0.000000000
  0
ARC
  5
A35
330
A02
100
AcDbEntity
  8
Fillet
100
AcDbCircle
 10
86.179183627
 20
16.561554483
 30
0.000000000
 40
8.380000000
100
AcDbArc
 50
60.057213131
 51
90.000000000
  0
ARC
  5
A36
330
A02
100
AcDbEntity
  8
Fillet
100
AcDbCircle
 10
71.382540005
 20
153.645273051
 30
0.000000000
 40
2.380000000
100
AcDbArc
 50
90.000000000
 51
180.000000000
  0
LINE
  5
A37
330
A02
100
AcDbEntity
  8
Fillet
100
AcDbLine
 10
76.203911608
 20
24.941554483
 30
0.000000000
 11
86.179183627
 21
24.941554483
 31
0.000000000
  0
LINE
  5
A38
330
A02
100
AcDbEntity
  8
Fillet
100
AcDbLine
 10
69.002540005
 20
153.645273051
 30
0.000000000
 11
69.002540005
 21
153.643281687
 31
0.000000000
  0
LINE
  5
A39
330
A02
100
AcDbEntity
  8
Fillet
100
AcDbLine
 10
66.734000508
 20
24.941554483
 30
0.000000000
 11
76.203911608
 21
24.941554483
 31
0.000000000
  0
LINE
  5
A3A
330
A02
100
AcDbEntity
  8
Fillet
100
AcDbLine
 10
69.002540005
 20
153.643281687
 30
0.000000000
 11
52.332628905
 21
153.643281687
 31
0.000000000
  0
ARC
  5
A3B
330
A02
100
AcDbEntity
  8
Fillet
100
AcDbCircle
 10
66.734000508
 20
22.561554483
 30
0.000000000
 40
2.380000000
100
AcDbArc
 50
90.000000000
 51
180.000000000
  0
ARC
  5
A3C
330
A02
100
AcDbEntity
  8
Fillet
100
AcDbCircle
 10
52.332628905
 20
151.263281687
 30
0.000000000
 40
2.380000000
100
AcDbArc
 50
90.000000000
 51
180.000000000
  0
LINE
  5
A3D
330
A02
100
AcDbEntity
  8
Fillet
100
AcDbLine
 10
64.354000508
 20
20.176012192
 30
0.000000000
 11
64.354000508
 21
22.561554483
 31
0.000000000
  0
LINE
  5
A3E
330
A02
100
AcDbEntity
  8
Fillet
100
AcDbLine
 10
49.952628905
 20
151.263281687
 30
0.000000000
 11
49.952628905
 21
148.880254001
 31
0.000000000
  0
ARC
  5
A3F
330
A02
100
AcDbEntity
  8
Fillet
100
AcDbCircle
 10
61.974000508
 20
20.176012192
 30
0.000000000
 40
2.380000000
100
AcDbArc
 50
-90.000000000
 51
-0.000000000
  0
ARC
  5
A40
330
A02
100
AcDbEntity
  8
Fillet
100
AcDbCircle
 10
47.572628905
 20
148.880254001
 30
0.000000000
 40
2.380000000
100
AcDbArc
 50
-90.000000000
 51
0.000000000
  0
LINE
  5
A41
330
A02
100
AcDbEntity
  8
Fillet
100
AcDbLine
 10
14.233009906
 20
17.796012192
 30
0.000000000
 11
61.974000508
 21
17.796012192
 31
0.000000000
  0
LINE
  5
A42
330
A02
100
AcDbEntity
  8
Fillet
100
AcDbLine
 10
47.572628905
 20
146.500254001
 30
0.000000000
 11
14.233009906
 21
146.500254001
 31
0.000000000
  0
ARC
  5
A43
330
A02
100
AcDbEntity
  8
Fillet
100
AcDbCircle
 10
14.233009906
 20
20.176012192
 30
0.000000000
 40
2.380000000
100
AcDbArc
 50
180.000000000
 51
-90.000000000
  0
ARC
  5
A44
330
A02
100
AcDbEntity
  8
Fillet
100
AcDbCircle
 10
14.233009906
 20
144.120254001
 30
0.000000000
 40
2.380000000
100
AcDbArc
 50
90.000000000
 51
180.000000000
  0
LINE
  5
A45
330
A02
100
AcDbEntity
  8
Fillet
100
AcDbLine
 10
11.853009906
 20
144.120254001
 30
0.000000000
 11
11.853009906
 21
20.176012192
 31
0.000000000
  0
LINE
  5
A46
330
A02
100
AcDbEntity
  8
Fillet
100
AcDbLine
 10
183.074879506
 20
46.521656327
 30
-2.000000000
 11
183.074932536
 21
153.645271872
 31
-2.000000000
  0
LINE
  5
A47
330
A02
100
AcDbEntity
  8
Fillet
100
AcDbLine
 10
183.074879506
 20
46.521656327
 30
-2.000000000
 11
183.074879506
 21
46.521656327
 31
0.000000000
  0
LINE
  5
A48
330
A02
100
AcDbEntity
  8
Fillet
100
AcDbLine
 10
183.074932536
 20
153.645271872
 30
-2.000000000
 11
183.074932536
 21
153.645271872
 31
0.000000000
  0
LINE
  5
A49
330
A02
100
AcDbEntity
  8
Fillet
100
AcDbLine
 10
183.074879506
 20
46.521656327
 30
0.000000000
 11
183.074932536
 21
153.645271872
 31
0.000000000
  0
ARC
  5
A4A
330
A02
100
AcDbEntity
  8
Fillet
100
AcDbCircle
 10
150.182637668
 20
-7.888266046
 30
-2.000000000
 40
2.380000000
100
AcDbArc
 50
-119.942786869
 51
-30.022446192
  0
LINE
  5
A4B
330
A02
100
AcDbEntity
  8
Fillet
100
AcDbLine
 10
148.994696428
 20
-9.950593762
 30
-2.000000000
 11
148.994696428
 21
-9.950593762
 31
0.000000000
  0
LINE
  5
A4C
330
A02
100
AcDbEntity
  8
Fillet
100
AcDbLine
 10
152.243311776
 20
-9.079073427
 30
-2.000000000
 11
152.243311776
 21
-9.079073427
 31
0.000000000
  0
ARC
  5
A4D
330
A02
100
AcDbEntity
  8
Fillet
100
AcDbCircle
 10
150.182637668
 20
-7.888266046
 30
0.000000000
 40
2.380000000
100
AcDbArc
 50
-119.942786869
 51
-30.022446192
  0
ARC
  5
A4E
330
A02
100
AcDbEntity
  8
Fillet
100
AcDbCircle
 10
180.694932536
 20
153.645273051
 30
-2.000000000
 40
2.380000000
100
AcDbArc
 50
-0.000028363
 51
90.000000000
  0
LINE
  5
A4F
330
A02
100
AcDbEntity
  8
Fillet
100
AcDbLine
 10
183.074932536
 20
153.645271872
 30
-2.000000000
 11
183.074932536
 21
153.645271872
 31
0.000000000
  0
LINE
  5
A50
330
A02
100
AcDbEntity
  8
Fillet
100
AcDbLine
 10
180.694932536
 20
156.025273051
 30
-2.000000000
 11
180.694932536
 21
156.025273051
 31
0.000000000
  0
ARC
  5
A51
330
A02
100
AcDbEntity
  8
Fillet
100
AcDbCircle
 10
180.694932536
 20
153.645273051
 30
0.000000000
 40
2.380000000
100
AcDbArc
 50
-0.000028363
 51
90.000000000
  0
LINE
  5
A52
330
A02
100
AcDbEntity
  8
Fillet
100
AcDbLine
 10
148.994696428
 20
-9.950593762
 30
-2.000000000
 11
90.361934715
 21
23.823027704
 31
-2.000000000
  0
LINE
  5
A53
330
A02
100
AcDbEntity
  8
Fillet
100
AcDbLine
 10
148.994696428
 20
-9.950593762
 30
-2.000000000
 11
148.994696428
 21
-9.950593762
 31
0.000000000
  0
LINE
  5
A54
330
A02
100
AcDbEntity
  8
Fillet
100
AcDbLine
 10
90.361934715
 20
23.823027704
 30
-2.000000000
 11
90.361934715
 21
23.823027704
 31
0.000000000
  0
LINE
  5
A55
330
A02
100
AcDbEntity
  8
Fillet
100
AcDbLine
 10
148.994696428
 20
-9.950593762
 30
0.000000000
 11
90.361934715
 21
23.823027704
 31
0.000000000
  0
LINE
  5
A56
330
A02
100
AcDbEntity
  8
Fillet
100
AcDbLine
 10
180.694932536
 20
156.025273051
 30
-2.000000000
 11
71.382540005
 21
156.025273051
 31
-2.000000000
  0
LINE
  5
A57
330
A02
100
AcDbEntity
  8
Fillet
100
AcDbLine
 10
180.694932536
 20
156.025273051
 30
-2.000000000
 11
180.694932536
 21
156.025273051
 31
0.000000000
  0
LINE
  5
A58
330
A02
100
AcDbEntity
  8
Fillet
100
AcDbLine
 10
71.382540005
 20
156.025273051
 30
-2.000000000
 11
71.382540005
 21
156.025273051
 31
0.000000000
  0
LINE
  5
A59
330
A02
100
AcDbEntity
  8
Fillet
100
AcDbLine
 10
180.694932536
 20
156.025273051
 30
0.000000000
 11
71.382540005
 21
156.025273051
 31
0.000000000
  0
ARC
  5
A5A
330
A02
100
AcDbEntity
  8
Fillet
100
AcDbCircle
 10
86.179183627
 20
16.561554483
 30
-2.000000000
 40
8.380000000
100
AcDbArc
 50
60.057213131
 51
90.000000000
  0
LINE
  5
A5B
330
A02
100
AcDbEntity
  8
Fillet
100
AcDbLine
 10
86.179183627
 20
24.941554483
 30
-2.000000000
 11
86.179183627
 21
24.941554483
 31
0.000000000
  0
LINE
  5
A5C
330
A02
100
AcDbEntity
  8
Fillet
100
AcDbLine
 10
90.361934715
 20
23.823027704
 30
-2.000000000
 11
90.361934715
 21
23.823027704
 31
0.000000000
  0
ARC
  5
A5D
330
A02
100
AcDbEntity
  8
Fillet
100
AcDbCircle
 10
86.179183627
 20
16.561554483
 30
0.000000000
 40
8.380000000
100
AcDbArc
 50
60.057213131
 51
90.000000000
  0
ARC
  5
A5E
330
A02
100
AcDbEntity
  8
Fillet
100
AcDbCircle
 10
71.382540005
 20
153.645273051
 30
-2.000000000
 40
2.380000000
100
AcDbArc
 50
90.000000000
 51
180.000000000
  0
LINE
  5
A5F
330
A02
100
AcDbEntity
  8
Fillet
100
AcDbLine
 10
71.382540005
 20
156.025273051
 30
-2.000000000
 11
71.382540005
 21
156.025273051
 31
0.000000000
  0
LINE
  5
A60
330
A02
100
AcDbEntity
  8
Fillet
100
AcDbLine
 10
69.002540005
 20
153.645273051
 30
-2.000000000
 11
69.002540005
 21
153.645273051
 31
0.000000000
  0
ARC
  5
A61
330
A02
100
AcDbEntity
  8
Fillet
100
AcDbCircle
 10
71.382540005
 20
153.645273051
 30
0.000000000
 40
2.380000000
100
AcDbArc
 50
90.000000000
 51
180.000000000
  0
LINE
  5
A62
330
A02
100
AcDbEntity
  8
Fillet
100
AcDbLine
 10
76.203911608
 20
24.941554483
 30
-2.000000000
 11
86.179183627
 21
24.941554483
 31
-2.000000000
  0
LINE
  5
A63
330
A02
100
AcDbEntity
  8
Fillet
100
AcDbLine
 10
86.179183627
 20
24.941554483
 30
-2.000000000
 11
86.179183627
 21
24.941554483
 31
0.000000000
  0
LINE
  5
A64
330
A02
100
AcDbEntity
  8
Fillet
100
AcDbLine
 10
76.203911608
 20
24.941554483
 30
-2.000000000
 11
76.203911608
 21
24.941554483
 31
0.000000000
  0
LINE
  5
A65
330
A02
100
AcDbEntity
  8
Fillet
100
AcDbLine
 10
76.203911608
 20
24.941554483
 30
0.000000000
 11
86.179183627
 21
24.941554483
 31
0.000000000
  0
LINE
  5
A66
330
A02
100
AcDbEntity
  8
Fillet
100
AcDbLine
 10
69.002540005
 20
153.645273051
 30
-2.000000000
 11
69.002540005
 21
153.643281687
 31
-2.000000000
  0
LINE
  5
A67
330
A02
100
AcDbEntity
  8
Fillet
100
AcDbLine
 10
69.002540005
 20
153.645273051
 30
-2.000000000
 11
69.002540005
 21
153.645273051
 31
0.000000000
  0
LINE
  5
A68
330
A02
100
AcDbEntity
  8
Fillet
100
AcDbLine
 10
69.002540005
 20
153.643281687
 30
-2.000000000
 11
69.002540005
 21
153.643281687
 31
0.000000000
  0
LINE
  5
A69
330
A02
100
AcDbEntity
  8
Fillet
100
AcDbLine
 10
69.002540005
 20
153.645273051
 30
0.000000000
 11
69.002540005
 21
153.643281687
 31
0.000000000
  0
LINE
  5
A6A
330
A02
100
AcDbEntity
  8
Fillet
100
AcDbLine
 10
66.734000508
 20
24.941554483
 30
-2.000000000
 11
76.203911608
 21
24.941554483
 31
-2.000000000
  0
LINE
  5
A6B
330
A02
100
AcDbEntity
  8
Fillet
100
AcDbLine
 10
66.734000508
 20
24.941554483
 30
-2.000000000
 11
66.734000508
 21
24.941554483
 31
0.000000000
  0
LINE
  5
A6C
330
A02
100
AcDbEntity
  8
Fillet
100
AcDbLine
 10
76.203911608
 20
24.941554483
 30
-2.000000000
 11
76.203911608
 21
24.941554483
 31
0.000000000
  0
LINE
  5
A6D
330
A02
100
AcDbEntity
  8
Fillet
100
AcDbLine
 10
66.734000508
 20
24.941554483
 30
0.000000000
 11
76.203911608
 21
24.941554483
 31
0.000000000
  0
LINE
  5
A6E
330
A02
100
AcDbEntity
  8
Fillet
100
AcDbLine
 10
69.002540005
 20
153.643281687
 30
-2.000000000
 11
52.332628905
 21
153.643281687
 31
-2.000000000
  0
LINE
  5
A6F
330
A02
100
AcDbEntity
  8
Fillet
100
AcDbLine
 10
52.332628905
 20
153.643281687
 30
-2.000000000
 11
52.332628905
 21
153.643281687
 31
0.000000000
  0
LINE
  5
A70
330
A02
100
AcDbEntity
  8
Fillet
100
AcDbLine
 10
69.002540005
 20
153.643281687
 30
-2.000000000
 11
69.002540005
 21
153.643281687
 31
0.000000000
  0
LINE
  5
A71
330
A02
100
AcDbEntity
  8
Fillet
100
AcDbLine
 10
69.002540005
 20
153.643281687
 30
0.000000000
 11
52.332628905
 21
153.643281687
 31
0.000000000
  0
ARC
  5
A72
330
A02
100
AcDbEntity
  8
Fillet
100
AcDbCircle
 10
66.734000508
 20
22.561554483
 30
-2.000000000
 40
2.380000000
100
AcDbArc
 50
90.000000000
 51
180.000000000
  0
LINE
  5
A73
330
A02
100
AcDbEntity
  8
Fillet
100
AcDbLine
 10
64.354000508
 20
22.561554483
 30
-2.000000000
 11
64.354000508
 21
22.561554483
 31
0.000000000
  0
LINE
  5
A74
330
A02
100
AcDbEntity
  8
Fillet
100
AcDbLine
 10
66.734000508
 20
24.941554483
 30
-2.000000000
 11
66.734000508
 21
24.941554483
 31
0.000000000
  0
ARC
  5
A75
330
A02
100
AcDbEntity
  8
Fillet
100
AcDbCircle
 10
66.734000508
 20
22.561554483
 30
0.000000000
 40
2.380000000
100
AcDbArc
 50
90.000000000
 51
180.000000000
  0
ARC
  5
A76
330
A02
100
AcDbEntity
  8
Fillet
100
AcDbCircle
 10
52.332628905
 20
151.263281687
 30
-2.000000000
 40
2.380000000
100
AcDbArc
 50
90.000000000
 51
180.000000000
  0
LINE
  5
A77
330
A02
100
AcDbEntity
  8
Fillet
100
AcDbLine
 10
52.332628905
 20
153.643281687
 30
-2.000000000
 11
52.332628905
 21
153.643281687
 31
0.000000000
  0
LINE
  5
A78
330
A02
100
AcDbEntity
  8
Fillet
100
AcDbLine
 10
49.952628905
 20
151.263281687
 30
-2.000000000
 11
49.952628905
 21
151.263281687
 31
0.000000000
  0
ARC
  5
A79
330
A02
100
AcDbEntity
  8
Fillet
100
AcDbCircle
 10
52.332628905
 20
151.263281687
 30
0.000000000
 40
2.380000000
100
AcDbArc
 50
90.000000000
 51
180.000000000
  0
LINE
  5
A7A
330
A02
100
AcDbEntity
  8
Fillet
100
AcDbLine
 10
64.354000508
 20
20.176012192
 30
-2.000000000
 11
64.354000508
 21
22.561554483
 31
-2.000000000
  0
LINE
  5
A7B
330
A02
100
AcDbEntity
  8
Fillet
100
AcDbLine
 10
64.354000508
 20
20.176012192
 30
-2.000000000
 11
64.354000508
 21
20.176012192
 31
0.000000000
  0
LINE
  5
A7C
330
A02
100
AcDbEntity
  8
Fillet
100
AcDbLine
 10
64.354000508
 20
22.561554483
 30
-2.000000000
 11
64.354000508
 21
22.561554483
 31
0.000000000
  0
LINE
  5
A7D
330
A02
100
AcDbEntity
  8
Fillet
100
AcDbLine
 10
64.354000508
 20
20.176012192
 30
0.000000000
 11
64.354000508
 21
22.561554483
 31
0.000000000
  0
LINE
  5
A7E
330
A02
100
AcDbEntity
  8
Fillet
100
AcDbLine
 10
49.952628905
 20
151.263281687
 30
-2.000000000
 11
49.952628905
 21
148.880254001
 31
-2.000000000
  0
LINE
  5
A7F
330
A02
100
AcDbEntity
  8
Fillet
100
AcDbLine
 10
49.952628905
 20
151.263281687
 30
-2.000000000
 11
49.952628905
 21
151.263281687
 31
0.000000000
  0
LINE
  5
A80
330
A02
100
AcDbEntity
  8
Fillet
100
AcDbLine
 10
49.952628905
 20
148.880254001
 30
-2.000000000
 11
49.952628905
 21
148.880254001
 31
0.000000000
  0
LINE
  5
A81
330
A02
100
AcDbEntity
  8
Fillet
100
AcDbLine
 10
49.952628905
 20
151.263281687
 30
0.000000000
 11
49.952628905
 21
148.880254001
 31
0.000000000
  0
ARC
  5
A82
330
A02
100
AcDbEntity
  8
Fillet
100
AcDbCircle
 10
61.974000508
 20
20.176012192
 30
-2.000000000
 40
2.380000000
100
AcDbArc
 50
-90.000000000
 51
-0.000000000
  0
LINE
  5
A83
330
A02
100
AcDbEntity
  8
Fillet
100
AcDbLine
 10
61.974000508
 20
17.796012192
 30
-2.000000000
 11
61.974000508
 21
17.796012192
 31
0.000000000
  0
LINE
  5
A84
330
A02
100
AcDbEntity
  8
Fillet
100
AcDbLine
 10
64.354000508
 20
20.176012192
 30
-2.000000000
 11
64.354000508
 21
20.176012192
 31
0.000000000
  0
ARC
  5
A85
330
A02
100
AcDbEntity
  8
Fillet
100
AcDbCircle
 10
61.974000508
 20
20.176012192
 30
0.000000000
 40
2.380000000
100
AcDbArc
 50
-90.000000000
 51
-0.000000000
  0
ARC
  5
A86
330
A02
100
AcDbEntity
  8
Fillet
100
AcDbCircle
 10
47.572628905
 20
148.880254001
 30
-2.000000000
 40
2.380000000
100
AcDbArc
 50
-90.000000000
 51
0.000000000
  0
LINE
  5
A87
330
A02
100
AcDbEntity
  8
Fillet
100
AcDbLine
 10
49.952628905
 20
148.880254001
 30
-2.000000000
 11
49.952628905
 21
148.880254001
 31
0.000000000
  0
LINE
  5
A88
330
A02
100
AcDbEntity
  8
Fillet
100
AcDbLine
 10
47.572628905
 20
146.500254001
 30
-2.000000000
 11
47.572628905
 21
146.500254001
 31
0.000000000
  0
ARC
  5
A89
330
A02
100
AcDbEntity
  8
Fillet
100
AcDbCircle
 10
47.572628905
 20
148.880254001
 30
0.000000000
 40
2.380000000
100
AcDbArc
 50
-90.000000000
 51
0.000000000
  0
LINE
  5
A8A
330
A02
100
AcDbEntity
  8
Fillet
100
AcDbLine
 10
14.233009906
 20
17.796012192
 30
-2.000000000
 11
61.974000508
 21
17.796012192
 31
-2.000000000
  0
LINE
  5
A8B
330
A02
100
AcDbEntity
  8
Fillet
100
AcDbLine
 10
14.233009906
 20
17.796012192
 30
-2.000000000
 11
14.233009906
 21
17.796012192
 31
0.000000000
  0
LINE
  5
A8C
330
A02
100
AcDbEntity
  8
Fillet
100
AcDbLine
 10
61.974000508
 20
17.796012192
 30
-2.000000000
 11
61.974000508
 21
17.796012192
 31
0.000000000
  0
LINE
  5
A8D
330
A02
100
AcDbEntity
  8
Fillet
100
AcDbLine
 10
14.233009906
 20
17.796012192
 30
0.000000000
 11
61.974000508
 21
17.796012192
 31
0.000000000
  0
LINE
  5
A8E
330
A02
100
AcDbEntity
  8
Fillet
100
AcDbLine
 10
47.572628905
 20
146.500254001
 30
-2.000000000
 11
14.233009906
 21
146.500254001
 31
-2.000000000
  0
LINE
  5
A8F
330
A02
100
AcDbEntity
  8
Fillet
100
AcDbLine
 10
47.572628905
 20
146.500254001
 30
-2.000000000
 11
47.572628905
 21
146.500254001
 31
0.000000000
  0
LINE
  5
A90
330
A02
100
AcDbEntity
  8
Fillet
100
AcDbLine
 10
14.233009906
 20
146.500254001
 30
-2.000000000
 11
14.233009906
 21
146.500254001
 31
0.000000000
  0
LINE
  5
A91
330
A02
100
AcDbEntity
  8
Fillet
100
AcDbLine
 10
47.572628905
 20
146.500254001
 30
0.000000000
 11
14.233009906
 21
146.500254001
 31
0.000000000
  0
ARC
  5
A92
330
A02
100
AcDbEntity
  8
Fillet
100
AcDbCircle
 10
14.233009906
 20
20.176012192
 30
-2.000000000
 40
2.380000000
100
AcDbArc
 50
180.000000000
 51
-90.000000000
  0
LINE
  5
A93
330
A02
100
AcDbEntity
  8
Fillet
100
AcDbLine
 10
11.853009906
 20
20.176012192
 30
-2.000000000
 11
11.853009906
 21
20.176012192
 31
0.000000000
  0
LINE
  5
A94
330
A02
100
AcDbEntity
  8
Fillet
100
AcDbLine
 10
14.233009906
 20
17.796012192
 30
-2.000000000
 11
14.233009906
 21
17.796012192
 31
0.000000000
  0
ARC
  5
A95
330
A02
100
AcDbEntity
  8
Fillet
100
AcDbCircle
 10
14.233009906
 20
20.176012192
 30
0.000000000
 40
2.380000000
100
AcDbArc
 50
180.000000000
 51
-90.000000000
  0
ARC
  5
A96
330
A02
100
AcDbEntity
  8
Fillet
100
AcDbCircle
 10
14.233009906
 20
144.120254001
 30
-2.000000000
 40
2.380000000
100
AcDbArc
 50
90.000000000
 51
180.000000000
  0
LINE
  5
A97
330
A02
100
AcDbEntity
  8
Fillet
100
AcDbLine
 10
14.233009906
 20
146.500254001
 30
-2.000000000
 11
14.233009906
 21
146.500254001
 31
0.000000000
  0
LINE
  5
A98
330
A02
100
AcDbEntity
  8
Fillet
100
AcDbLine
 10
11.853009906
 20
144.120254001
 30
-2.000000000
 11
11.853009906
 21
144.120254001
 31
0.000000000
  0
ARC
  5
A99
330
A02
100
AcDbEntity
  8
Fillet
100
AcDbCircle
 10
14.233009906
 20
144.120254001
 30
0.000000000
 40
2.380000000
100
AcDbArc
 50
90.000000000
 51
180.000000000
  0
LINE
  5
A9A
330
A02
100
AcDbEntity
  8
Fillet
100
AcDbLine
 10
11.853009906
 20
144.120254001
 30
-2.000000000
 11
11.853009906
 21
20.176012192
 31
-2.000000000
  0
LINE
  5
A9B
330
A02
100
AcDbEntity
  8
Fillet
100
AcDbLine
 10
11.853009906
 20
144.120254001
 30
-2.000000000
 11
11.853009906
 21
144.120254001
 31
0.000000000
  0
LINE
  5
A9C
330
A02
100
AcDbEntity
  8
Fillet
100
AcDbLine
 10
11.853009906
 20
20.176012192
 30
-2.000000000
 11
11.853009906
 21
20.176012192
 31
0.000000000
  0
LINE
  5
A9D
330
A02
100
AcDbEntity
  8
Fillet
100
AcDbLine
 10
11.853009906
 20
144.120254001
 30
0.000000000
 11
11.853009906
 21
20.176012192
 31
0.000000000
  0
CIRCLE
  5
A9E
330
A02
100
AcDbEntity
  8
Sketch005
100
AcDbCircle
 10
150.175313960
 20
-7.860966731
 30
0.000000000
 40
1.000000000
  0
CIRCLE
  5
A9F
330
A02
100
AcDbEntity
  8
Sketch005
100
AcDbCircle
 10
180.674878713
 20
44.918067402
 30
0.000000000
 40
1.000000000
  0
CIRCLE
  5
AA0
330
A02
100
AcDbEntity
  8
Sketch005
100
AcDbCircle
 10
180.674905619
 20
99.271670226
 30
0.000000000
 40
1.000000000
  0
CIRCLE
  5
AA1
330
A02
100
AcDbEntity
  8
Sketch005
100
AcDbCircle
 10
180.674932526
 20
153.625273051
 30
0.000000000
 40
1.000000000
  0
CIRCLE
  5
AA2
330
A02
100
AcDbEntity
  8
Sketch005
100
AcDbCircle
 10
107.524948000
 20
153.625273051
 30
0.000000000
 40
1.000000000
  0
CIRCLE
  5
AA3
330
A02
100
AcDbEntity
  8
Sketch005
100
AcDbCircle
 10
143.930008000
 20
153.625273051
 30
0.000000000
 40
1.000000000
  0
CIRCLE
  5
AA4
330
A02
100
AcDbEntity
  8
Sketch005
100
AcDbCircle
 10
71.402540005
 20
153.625273051
 30
0.000000000
 40
1.000000000
  0
CIRCLE
  5
AA5
330
A02
100
AcDbEntity
  8
Sketch005
100
AcDbCircle
 10
52.352628905
 20
151.243281687
 30
0.000000000
 40
1.000000000
  0
CIRCLE
  5
AA6
330
A02
100
AcDbEntity
  8
Sketch005
100
AcDbCircle
 10
14.253009906
 20
144.100254001
 30
0.000000000
 40
1.000000000
  0
CIRCLE
  5
AA7
330
A02
100
AcDbEntity
  8
Sketch005
100
AcDbCircle
 10
14.253009906
 20
91.468437000
 30
0.000000000
 40
1.000000000
  0
CIRCLE
  5
AA8
330
A02
100
AcDbEntity
  8
Sketch005
100
AcDbCircle
 10
14.253009906
 20
53.019207000
 30
0.000000000
 40
1.000000000
  0
CIRCLE
  5
AA9
330
A02
100
AcDbEntity
  8
Sketch005
100
AcDbCircle
 10
14.253009906
 20
20.196012192
 30
0.000000000
 40
1.000000000
  0
CIRCLE
  5
AAA
330
A02
100
AcDbEntity
  8
Sketch005
100
AcDbCircle
 10
61.954000508
 20
20.196012192
 30
0.000000000
 40
1.000000000
  0
CIRCLE
  5
AAB
330
A02
100
AcDbEntity
  8
Sketch005
100
AcDbCircle
 10
89.061908041
 20
27.341554483
 30
0.000000000
 40
1.000000000
  0
CIRCLE
  5
AAC
330
A02
100
AcDbEntity
  8
Sketch005
100
AcDbCircle
 10
112.020186233
 20
14.117135668
 30
0.000000000
 40
1.000000000
  0
LINE
  5
AAD
330
A02
100
AcDbEntity
  8
Sketch010
100
AcDbLine
 10
40.628829058
 20
41.522961646
 30
0.000000000
 11
54.628016256
 21
41.522961646
 31
0.000000000
  0
LINE
  5
AAE
330
A02
100
AcDbEntity
  8
Sketch010
100
AcDbLine
 10
54.628016256
 20
41.522961646
 30
0.000000000
 11
54.628016256
 21
27.522301245
 31
0.000000000
  0
LINE
  5
AAF
330
A02
100
AcDbEntity
  8
Sketch010
100
AcDbLine
 10
54.628016256
 20
27.522301245
 30
0.000000000
 11
40.628829058
 21
27.522301245
 31
0.000000000
  0
LINE
  5
AB0
330
A02
100
AcDbEntity
  8
Sketch010
100
AcDbLine
 10
40.628829058
 20
27.522301245
 30
0.000000000
 11
40.628829058
 21
41.522961646
 31
0.000000000
  0
LINE
  5
AB1
330
A02
100
AcDbEntity
  8
Sketch010
100
AcDbLine
 10
59.678740157
 20
48.666725933
 30
0.000000000
 11
73.677927356
 21
48.666725933
 31
0.000000000
  0
LINE
  5
AB2
330
A02
100
AcDbEntity
  8
Sketch010
100
AcDbLine
 10
73.677927356
 20
48.666725933
 30
0.000000000
 11
73.677927356
 21
34.667487935
 31
0.000000000
  0
LINE
  5
AB3
330
A02
100
AcDbEntity
  8
Sketch010
100
AcDbLine
 10
73.677927356
 20
34.667487935
 30
0.000000000
 11
59.678740157
 21
34.667487935
 31
0.000000000
  0
LINE
  5
AB4
330
A02
100
AcDbEntity
  8
Sketch010
100
AcDbLine
 10
59.678740157
 20
34.667487935
 30
0.000000000
 11
59.678740157
 21
48.666725933
 31
0.000000000
  0
LINE
  5
AB5
330
A02
100
AcDbEntity
  8
Sketch010
100
AcDbLine
 10
78.728778258
 20
51.047980696
 30
0.000000000
 11
92.727965456
 21
51.047980696
 31
0.000000000
  0
LINE
  5
AB6
330
A02
100
AcDbEntity
  8
Sketch010
100
AcDbLine
 10
92.727965456
 20
51.047980696
 30
0.000000000
 11
92.727965456
 21
37.047320295
 31
0.000000000
  0
LINE
  5
AB7
330
A02
100
AcDbEntity
  8
Sketch010
100
AcDbLine
 10
92.727965456
 20
37.047320295
 30
0.000000000
 11
78.728778258
 21
37.047320295
 31
0.000000000
  0
LINE
  5
AB8
330
A02
100
AcDbEntity
  8
Sketch010
100
AcDbLine
 10
78.728778258
 20
37.047320295
 30
0.000000000
 11
78.728778258
 21
51.047980696
 31
0.000000000
  0
LINE
  5
AB9
330
A02
100
AcDbEntity
  8
Sketch010
100
AcDbLine
 10
101.876936754
 20
33.825374651
 30
0.000000000
 11
115.399974600
 21
30.202692405
 31
0.000000000
  0
LINE
  5
ABA
330
A02
100
AcDbEntity
  8
Sketch010
100
AcDbLine
 10
115.399974600
 20
30.202692405
 30
0.000000000
 11
119.021971044
 21
43.725374651
 31
0.000000000
  0
LINE
  5
ABB
330
A02
100
AcDbEntity
  8
Sketch010
100
AcDbLine
 10
119.021971044
 20
43.725374651
 30
0.000000000
 11
105.499923800
 21
47.349479299
 31
0.000000000
  0
LINE
  5
ABC
330
A02
100
AcDbEntity
  8
Sketch010
100
AcDbLine
 10
105.499923800
 20
47.349479299
 30
0.000000000
 11
101.876936754
 21
33.825374651
 31
0.000000000
  0
LINE
  5
ABD
330
A02
100
AcDbEntity
  8
Sketch010
100
AcDbLine
 10
134.063931928
 20
42.049682499
 30
0.000000000
 11
133.265963932
 21
42.509702819
 31
0.000000000
  0
LINE
  5
ABE
330
A02
100
AcDbEntity
  8
Sketch010
100
AcDbLine
 10
133.265963932
 20
42.509702819
 30
0.000000000
 11
131.616941834
 21
39.651816104
 31
0.000000000
  0
LINE
  5
ABF
330
A02
100
AcDbEntity
  8
Sketch010
100
AcDbLine
 10
131.616941834
 20
39.651816104
 30
0.000000000
 11
132.412928626
 21
39.191516383
 31
0.000000000
  0
LINE
  5
AC0
330
A02
100
AcDbEntity
  8
Sketch010
100
AcDbLine
 10
132.412928626
 20
39.191516383
 30
0.000000000
 11
131.549860300
 21
37.699187198
 31
0.000000000
  0
LINE
  5
AC1
330
A02
100
AcDbEntity
  8
Sketch010
100
AcDbLine
 10
131.549860300
 20
37.699187198
 30
0.000000000
 11
134.348945898
 21
36.083896368
 31
0.000000000
  0
LINE
  5
AC2
330
A02
100
AcDbEntity
  8
Sketch010
100
AcDbLine
 10
134.348945898
 20
36.083896368
 30
0.000000000
 11
133.585953772
 21
34.762306325
 31
0.000000000
  0
LINE
  5
AC3
330
A02
100
AcDbEntity
  8
Sketch010
100
AcDbLine
 10
133.585953772
 20
34.762306325
 30
0.000000000
 11
129.514986030
 21
37.113309627
 31
0.000000000
  0
LINE
  5
AC4
330
A02
100
AcDbEntity
  8
Sketch010
100
AcDbLine
 10
129.514986030
 20
37.113309627
 30
0.000000000
 11
122.515849632
 21
24.989306579
 31
0.000000000
  0
LINE
  5
AC5
330
A02
100
AcDbEntity
  8
Sketch010
100
AcDbLine
 10
122.515849632
 20
24.989306579
 30
0.000000000
 11
126.586918974
 21
22.638506477
 31
0.000000000
  0
LINE
  5
AC6
330
A02
100
AcDbEntity
  8
Sketch010
100
AcDbLine
 10
126.586918974
 20
22.638506477
 30
0.000000000
 11
125.822936246
 21
21.318262637
 31
0.000000000
  0
LINE
  5
AC7
330
A02
100
AcDbEntity
  8
Sketch010
100
AcDbLine
 10
125.822936246
 20
21.318262637
 30
0.000000000
 11
123.025958852
 21
22.933426467
 31
0.000000000
  0
LINE
  5
AC8
330
A02
100
AcDbEntity
  8
Sketch010
100
AcDbLine
 10
123.025958852
 20
22.933426467
 30
0.000000000
 11
122.162992126
 21
21.438201676
 31
0.000000000
  0
LINE
  5
AC9
330
A02
100
AcDbEntity
  8
Sketch010
100
AcDbLine
 10
122.162992126
 20
21.438201676
 30
0.000000000
 11
121.367005334
 21
21.898450597
 31
0.000000000
  0
LINE
  5
ACA
330
A02
100
AcDbEntity
  8
Sketch010
100
AcDbLine
 10
121.367005334
 20
21.898450597
 30
0.000000000
 11
119.716992634
 21
19.040513081
 31
0.000000000
  0
LINE
  5
ACB
330
A02
100
AcDbEntity
  8
Sketch010
100
AcDbLine
 10
119.716992634
 20
19.040513081
 30
0.000000000
 11
120.513970028
 21
18.580187960
 31
0.000000000
  0
LINE
  5
ACC
330
A02
100
AcDbEntity
  8
Sketch010
100
AcDbLine
 10
120.513970028
 20
18.580187960
 30
0.000000000
 11
119.651028702
 21
17.086385573
 31
0.000000000
  0
LINE
  5
ACD
330
A02
100
AcDbEntity
  8
Sketch010
100
AcDbLine
 10
119.651028702
 20
17.086385573
 30
0.000000000
 11
122.448006096
 21
15.471297943
 31
0.000000000
  0
LINE
  5
ACE
330
A02
100
AcDbEntity
  8
Sketch010
100
AcDbLine
 10
122.448006096
 20
15.471297943
 30
0.000000000
 11
122.035001270
 21
14.757480315
 31
0.000000000
  0
LINE
  5
ACF
330
A02
100
AcDbEntity
  8
Sketch010
100
AcDbLine
 10
122.035001270
 20
14.757480315
 30
0.000000000
 11
124.459918720
 21
13.357378715
 31
0.000000000
  0
LINE
  5
AD0
330
A02
100
AcDbEntity
  8
Sketch010
100
AcDbLine
 10
124.459918720
 20
13.357378715
 30
0.000000000
 11
124.871932944
 21
14.071196342
 31
0.000000000
  0
LINE
  5
AD1
330
A02
100
AcDbEntity
  8
Sketch010
100
AcDbLine
 10
124.871932944
 20
14.071196342
 30
0.000000000
 11
130.302921006
 21
10.936195072
 31
0.000000000
  0
LINE
  5
AD2
330
A02
100
AcDbEntity
  8
Sketch010
100
AcDbLine
 10
130.302921006
 20
10.936195072
 30
0.000000000
 11
131.165989332
 21
12.431419863
 31
0.000000000
  0
LINE
  5
AD3
330
A02
100
AcDbEntity
  8
Sketch010
100
AcDbLine
 10
131.165989332
 20
12.431419863
 30
0.000000000
 11
132.013944628
 21
11.940767082
 31
0.000000000
  0
LINE
  5
AD4
330
A02
100
AcDbEntity
  8
Sketch010
100
AcDbLine
 10
132.013944628
 20
11.940767082
 30
0.000000000
 11
133.663957328
 21
14.798780798
 31
0.000000000
  0
LINE
  5
AD5
330
A02
100
AcDbEntity
  8
Sketch010
100
AcDbLine
 10
133.663957328
 20
14.798780798
 30
0.000000000
 11
132.815011430
 21
15.289408179
 31
0.000000000
  0
LINE
  5
AD6
330
A02
100
AcDbEntity
  8
Sketch010
100
AcDbLine
 10
132.815011430
 20
15.289408179
 30
0.000000000
 11
133.677978156
 21
16.783210566
 31
0.000000000
  0
LINE
  5
AD7
330
A02
100
AcDbEntity
  8
Sketch010
100
AcDbLine
 10
133.677978156
 20
16.783210566
 30
0.000000000
 11
129.806832614
 21
19.018364237
 31
0.000000000
  0
LINE
  5
AD8
330
A02
100
AcDbEntity
  8
Sketch010
100
AcDbLine
 10
129.806832614
 20
19.018364237
 30
0.000000000
 11
130.568834138
 21
20.338608077
 31
0.000000000
  0
LINE
  5
AD9
330
A02
100
AcDbEntity
  8
Sketch010
100
AcDbLine
 10
130.568834138
 20
20.338608077
 30
0.000000000
 11
134.640030480
 21
17.988976378
 31
0.000000000
  0
LINE
  5
ADA
330
A02
100
AcDbEntity
  8
Sketch010
100
AcDbLine
 10
134.640030480
 20
17.988976378
 30
0.000000000
 11
141.638938278
 21
30.113106426
 31
0.000000000
  0
LINE
  5
ADB
330
A02
100
AcDbEntity
  8
Sketch010
100
AcDbLine
 10
141.638938278
 20
30.113106426
 30
0.000000000
 11
137.567970536
 21
32.462611125
 31
0.000000000
  0
LINE
  5
ADC
330
A02
100
AcDbEntity
  8
Sketch010
100
AcDbLine
 10
137.567970536
 20
32.462611125
 30
0.000000000
 11
138.331851664
 21
33.785496571
 31
0.000000000
  0
LINE
  5
ADD
330
A02
100
AcDbEntity
  8
Sketch010
100
AcDbLine
 10
138.331851664
 20
33.785496571
 30
0.000000000
 11
142.202006604
 21
31.548920498
 31
0.000000000
  0
LINE
  5
ADE
330
A02
100
AcDbEntity
  8
Sketch010
100
AcDbLine
 10
142.202006604
 20
31.548920498
 30
0.000000000
 11
143.064947930
 21
33.041122682
 31
0.000000000
  0
LINE
  5
ADF
330
A02
100
AcDbEntity
  8
Sketch010
100
AcDbLine
 10
143.064947930
 20
33.041122682
 30
0.000000000
 11
143.914020828
 21
32.553568707
 31
0.000000000
  0
LINE
  5
AE0
330
A02
100
AcDbEntity
  8
Sketch010
100
AcDbLine
 10
143.914020828
 20
32.553568707
 30
0.000000000
 11
145.565024130
 21
35.410083820
 31
0.000000000
  0
LINE
  5
AE1
330
A02
100
AcDbEntity
  8
Sketch010
100
AcDbLine
 10
145.565024130
 20
35.410083820
 30
0.000000000
 11
144.715951232
 21
35.899415799
 31
0.000000000
  0
LINE
  5
AE2
330
A02
100
AcDbEntity
  8
Sketch010
100
AcDbLine
 10
144.715951232
 20
35.899415799
 30
0.000000000
 11
145.576936754
 21
37.392989586
 31
0.000000000
  0
LINE
  5
AE3
330
A02
100
AcDbEntity
  8
Sketch010
100
AcDbLine
 10
145.576936754
 20
37.392989586
 30
0.000000000
 11
140.147929896
 21
40.528168656
 31
0.000000000
  0
LINE
  5
AE4
330
A02
100
AcDbEntity
  8
Sketch010
100
AcDbLine
 10
140.147929896
 20
40.528168656
 30
0.000000000
 11
140.559918720
 21
41.243180086
 31
0.000000000
  0
LINE
  5
AE5
330
A02
100
AcDbEntity
  8
Sketch010
100
AcDbLine
 10
140.559918720
 20
41.243180086
 30
0.000000000
 11
138.135890272
 21
42.643408687
 31
0.000000000
  0
LINE
  5
AE6
330
A02
100
AcDbEntity
  8
Sketch010
100
AcDbLine
 10
138.135890272
 20
42.643408687
 30
0.000000000
 11
137.724003048
 21
41.928270257
 31
0.000000000
  0
LINE
  5
AE7
330
A02
100
AcDbEntity
  8
Sketch010
100
AcDbLine
 10
137.724003048
 20
41.928270257
 30
0.000000000
 11
134.924917450
 21
43.543307087
 31
0.000000000
  0
LINE
  5
AE8
330
A02
100
AcDbEntity
  8
Sketch010
100
AcDbLine
 10
134.924917450
 20
43.543307087
 30
0.000000000
 11
134.063931928
 21
42.049682499
 31
0.000000000
  0
LINE
  5
AE9
330
A02
100
AcDbEntity
  8
Sketch010
100
AcDbLine
 10
150.561823724
 20
32.524663449
 30
0.000000000
 11
149.764846330
 21
32.984683769
 31
0.000000000
  0
LINE
  5
AEA
330
A02
100
AcDbEntity
  8
Sketch010
100
AcDbLine
 10
149.764846330
 20
32.984683769
 30
0.000000000
 11
148.113843028
 21
30.126924054
 31
0.000000000
  0
LINE
  5
AEB
330
A02
100
AcDbEntity
  8
Sketch010
100
AcDbLine
 10
148.113843028
 20
30.126924054
 30
0.000000000
 11
148.911811024
 21
29.666497333
 31
0.000000000
  0
LINE
  5
AEC
330
A02
100
AcDbEntity
  8
Sketch010
100
AcDbLine
 10
148.911811024
 20
29.666497333
 30
0.000000000
 11
148.047980696
 21
28.174168148
 31
0.000000000
  0
LINE
  5
AED
330
A02
100
AcDbEntity
  8
Sketch010
100
AcDbLine
 10
148.047980696
 20
28.174168148
 30
0.000000000
 11
150.844958090
 21
26.558877318
 31
0.000000000
  0
LINE
  5
AEE
330
A02
100
AcDbEntity
  8
Sketch010
100
AcDbLine
 10
150.844958090
 20
26.558877318
 30
0.000000000
 11
150.081965964
 21
25.237414275
 31
0.000000000
  0
LINE
  5
AEF
330
A02
100
AcDbEntity
  8
Sketch010
100
AcDbLine
 10
150.081965964
 20
25.237414275
 30
0.000000000
 11
146.013004826
 21
27.588290577
 31
0.000000000
  0
LINE
  5
AF0
330
A02
100
AcDbEntity
  8
Sketch010
100
AcDbLine
 10
146.013004826
 20
27.588290577
 30
0.000000000
 11
139.011988824
 21
15.464465329
 31
0.000000000
  0
LINE
  5
AF1
330
A02
100
AcDbEntity
  8
Sketch010
100
AcDbLine
 10
139.011988824
 20
15.464465329
 30
0.000000000
 11
143.082931166
 21
13.113487427
 31
0.000000000
  0
LINE
  5
AF2
330
A02
100
AcDbEntity
  8
Sketch010
100
AcDbLine
 10
143.082931166
 20
13.113487427
 30
0.000000000
 11
142.320929642
 21
11.793319787
 31
0.000000000
  0
LINE
  5
AF3
330
A02
100
AcDbEntity
  8
Sketch010
100
AcDbLine
 10
142.320929642
 20
11.793319787
 30
0.000000000
 11
139.523952248
 21
13.408407417
 31
0.000000000
  0
LINE
  5
AF4
330
A02
100
AcDbEntity
  8
Sketch010
100
AcDbLine
 10
139.523952248
 20
13.408407417
 30
0.000000000
 11
138.660883922
 21
11.913182626
 31
0.000000000
  0
LINE
  5
AF5
330
A02
100
AcDbEntity
  8
Sketch010
100
AcDbLine
 10
138.660883922
 20
11.913182626
 30
0.000000000
 11
137.863906528
 21
12.373482347
 31
0.000000000
  0
LINE
  5
AF6
330
A02
100
AcDbEntity
  8
Sketch010
100
AcDbLine
 10
137.863906528
 20
12.373482347
 30
0.000000000
 11
136.215011430
 21
9.515494031
 31
0.000000000
  0
LINE
  5
AF7
330
A02
100
AcDbEntity
  8
Sketch010
100
AcDbLine
 10
136.215011430
 20
9.515494031
 30
0.000000000
 11
137.011861824
 21
9.055168910
 31
0.000000000
  0
LINE
  5
AF8
330
A02
100
AcDbEntity
  8
Sketch010
100
AcDbLine
 10
137.011861824
 20
9.055168910
 30
0.000000000
 11
136.149022098
 21
7.561366523
 31
0.000000000
  0
LINE
  5
AF9
330
A02
100
AcDbEntity
  8
Sketch010
100
AcDbLine
 10
136.149022098
 20
7.561366523
 30
0.000000000
 11
138.945999492
 21
5.946278893
 31
0.000000000
  0
LINE
  5
AFA
330
A02
100
AcDbEntity
  8
Sketch010
100
AcDbLine
 10
138.945999492
 20
5.946278893
 30
0.000000000
 11
138.533883668
 21
5.232512065
 31
0.000000000
  0
LINE
  5
AFB
330
A02
100
AcDbEntity
  8
Sketch010
100
AcDbLine
 10
138.533883668
 20
5.232512065
 30
0.000000000
 11
140.957912116
 21
3.832410465
 31
0.000000000
  0
LINE
  5
AFC
330
A02
100
AcDbEntity
  8
Sketch010
100
AcDbLine
 10
140.957912116
 20
3.832410465
 30
0.000000000
 11
141.369926340
 21
4.546177292
 31
0.000000000
  0
LINE
  5
AFD
330
A02
100
AcDbEntity
  8
Sketch010
100
AcDbLine
 10
141.369926340
 20
4.546177292
 30
0.000000000
 11
146.800914402
 21
1.411176022
 31
0.000000000
  0
LINE
  5
AFE
330
A02
100
AcDbEntity
  8
Sketch010
100
AcDbLine
 10
146.800914402
 20
1.411176022
 30
0.000000000
 11
147.664008128
 21
2.906400813
 31
0.000000000
  0
LINE
  5
AFF
330
A02
100
AcDbEntity
  8
Sketch010
100
AcDbLine
 10
147.664008128
 20
2.906400813
 30
0.000000000
 11
148.510845822
 21
2.415824232
 31
0.000000000
  0
LINE
  5
B00
330
A02
100
AcDbEntity
  8
Sketch010
100
AcDbLine
 10
148.510845822
 20
2.415824232
 30
0.000000000
 11
150.161849124
 21
5.273812548
 31
0.000000000
  0
LINE
  5
B01
330
A02
100
AcDbEntity
  8
Sketch010
100
AcDbLine
 10
150.161849124
 20
5.273812548
 30
0.000000000
 11
149.312903226
 21
5.764389129
 31
0.000000000
  0
LINE
  5
B02
330
A02
100
AcDbEntity
  8
Sketch010
100
AcDbLine
 10
149.312903226
 20
5.764389129
 30
0.000000000
 11
150.175971552
 21
7.258191516
 31
0.000000000
  0
LINE
  5
B03
330
A02
100
AcDbEntity
  8
Sketch010
100
AcDbLine
 10
150.175971552
 20
7.258191516
 30
0.000000000
 11
146.304953010
 21
9.493421387
 31
0.000000000
  0
LINE
  5
B04
330
A02
100
AcDbEntity
  8
Sketch010
100
AcDbLine
 10
146.304953010
 20
9.493421387
 30
0.000000000
 11
147.066954534
 21
10.813589027
 31
0.000000000
  0
LINE
  5
B05
330
A02
100
AcDbEntity
  8
Sketch010
100
AcDbLine
 10
147.066954534
 20
10.813589027
 30
0.000000000
 11
151.138023876
 21
8.463957328
 31
0.000000000
  0
LINE
  5
B06
330
A02
100
AcDbEntity
  8
Sketch010
100
AcDbLine
 10
151.138023876
 20
8.463957328
 30
0.000000000
 11
158.137922276
 21
20.588011176
 31
0.000000000
  0
LINE
  5
B07
330
A02
100
AcDbEntity
  8
Sketch010
100
AcDbLine
 10
158.137922276
 20
20.588011176
 30
0.000000000
 11
154.065862332
 21
22.937515875
 31
0.000000000
  0
LINE
  5
B08
330
A02
100
AcDbEntity
  8
Sketch010
100
AcDbLine
 10
154.065862332
 20
22.937515875
 30
0.000000000
 11
154.828981458
 21
24.259055118
 31
0.000000000
  0
LINE
  5
B09
330
A02
100
AcDbEntity
  8
Sketch010
100
AcDbLine
 10
154.828981458
 20
24.259055118
 30
0.000000000
 11
158.700000000
 21
22.023901448
 31
0.000000000
  0
LINE
  5
B0A
330
A02
100
AcDbEntity
  8
Sketch010
100
AcDbLine
 10
158.700000000
 20
22.023901448
 30
0.000000000
 11
159.562966726
 21
23.516281433
 31
0.000000000
  0
LINE
  5
B0B
330
A02
100
AcDbEntity
  8
Sketch010
100
AcDbLine
 10
159.562966726
 20
23.516281433
 30
0.000000000
 11
160.412014224
 21
23.027076454
 31
0.000000000
  0
LINE
  5
B0C
330
A02
100
AcDbEntity
  8
Sketch010
100
AcDbLine
 10
160.412014224
 20
23.027076454
 30
0.000000000
 11
162.061036322
 21
25.885064770
 31
0.000000000
  0
LINE
  5
B0D
330
A02
100
AcDbEntity
  8
Sketch010
100
AcDbLine
 10
162.061036322
 20
25.885064770
 30
0.000000000
 11
161.213970028
 21
26.374396749
 31
0.000000000
  0
LINE
  5
B0E
330
A02
100
AcDbEntity
  8
Sketch010
100
AcDbLine
 10
161.213970028
 20
26.374396749
 30
0.000000000
 11
162.074930150
 21
27.868021336
 31
0.000000000
  0
LINE
  5
B0F
330
A02
100
AcDbEntity
  8
Sketch010
100
AcDbLine
 10
162.074930150
 20
27.868021336
 30
0.000000000
 11
156.645923292
 21
31.004572009
 31
0.000000000
  0
LINE
  5
B10
330
A02
100
AcDbEntity
  8
Sketch010
100
AcDbLine
 10
156.645923292
 20
31.004572009
 30
0.000000000
 11
157.058928118
 21
31.718211836
 31
0.000000000
  0
LINE
  5
B11
330
A02
100
AcDbEntity
  8
Sketch010
100
AcDbLine
 10
157.058928118
 20
31.718211836
 30
0.000000000
 11
154.634010668
 21
33.118389637
 31
0.000000000
  0
LINE
  5
B12
330
A02
100
AcDbEntity
  8
Sketch010
100
AcDbLine
 10
154.634010668
 20
33.118389637
 30
0.000000000
 11
154.220015240
 21
32.403251207
 31
0.000000000
  0
LINE
  5
B13
330
A02
100
AcDbEntity
  8
Sketch010
100
AcDbLine
 10
154.220015240
 20
32.403251207
 30
0.000000000
 11
151.422910846
 21
34.018288037
 31
0.000000000
  0
LINE
  5
B14
330
A02
100
AcDbEntity
  8
Sketch010
100
AcDbLine
 10
151.422910846
 20
34.018288037
 30
0.000000000
 11
150.561823724
 21
32.524663449
 31
0.000000000
  0
LINE
  5
B15
330
A02
100
AcDbEntity
  8
Sketch010
100
AcDbLine
 10
135.879019558
 20
65.335509271
 30
0.000000000
 11
149.877952756
 21
65.335509271
 31
0.000000000
  0
LINE
  5
B16
330
A02
100
AcDbEntity
  8
Sketch010
100
AcDbLine
 10
149.877952756
 20
65.335509271
 30
0.000000000
 11
149.877952756
 21
51.336220472
 31
0.000000000
  0
LINE
  5
B17
330
A02
100
AcDbEntity
  8
Sketch010
100
AcDbLine
 10
149.877952756
 20
51.336220472
 30
0.000000000
 11
135.879019558
 21
51.336220472
 31
0.000000000
  0
LINE
  5
B18
330
A02
100
AcDbEntity
  8
Sketch010
100
AcDbLine
 10
135.879019558
 20
51.336220472
 30
0.000000000
 11
135.879019558
 21
65.335509271
 31
0.000000000
  0
LINE
  5
B19
330
A02
100
AcDbEntity
  8
Sketch010
100
AcDbLine
 10
116.828981458
 20
65.335509271
 30
0.000000000
 11
130.827914656
 21
65.335509271
 31
0.000000000
  0
LINE
  5
B1A
330
A02
100
AcDbEntity
  8
Sketch010
100
AcDbLine
 10
130.827914656
 20
65.335509271
 30
0.000000000
 11
130.827914656
 21
51.336220472
 31
0.000000000
  0
LINE
  5
B1B
330
A02
100
AcDbEntity
  8
Sketch010
100
AcDbLine
 10
130.827914656
 20
51.336220472
 30
0.000000000
 11
116.828981458
 21
51.336220472
 31
0.000000000
  0
LINE
  5
B1C
330
A02
100
AcDbEntity
  8
Sketch010
100
AcDbLine
 10
116.828981458
 20
51.336220472
 30
0.000000000
 11
116.828981458
 21
65.335509271
 31
0.000000000
  0
LINE
  5
B1D
330
A02
100
AcDbEntity
  8
Sketch010
100
AcDbLine
 10
97.778943358
 20
67.716713233
 30
0.000000000
 11
111.778003556
 21
67.716713233
 31
0.000000000
  0
LINE
  5
B1E
330
A02
100
AcDbEntity
  8
Sketch010
100
AcDbLine
 10
111.778003556
 20
67.716713233
 30
0.000000000
 11
111.778003556
 21
53.717526035
 31
0.000000000
  0
LINE
  5
B1F
330
A02
100
AcDbEntity
  8
Sketch010
100
AcDbLine
 10
111.778003556
 20
53.717526035
 30
0.000000000
 11
97.778943358
 21
53.717526035
 31
0.000000000
  0
LINE
  5
B20
330
A02
100
AcDbEntity
  8
Sketch010
100
AcDbLine
 10
97.778943358
 20
53.717526035
 30
0.000000000
 11
97.778943358
 21
67.716713233
 31
0.000000000
  0
LINE
  5
B21
330
A02
100
AcDbEntity
  8
Sketch010
100
AcDbLine
 10
78.728778258
 20
70.098018796
 30
0.000000000
 11
92.727965456
 21
70.098018796
 31
0.000000000
  0
LINE
  5
B22
330
A02
100
AcDbEntity
  8
Sketch010
100
AcDbLine
 10
92.727965456
 20
70.098018796
 30
0.000000000
 11
92.727965456
 21
56.097307595
 31
0.000000000
  0
LINE
  5
B23
330
A02
100
AcDbEntity
  8
Sketch010
100
AcDbLine
 10
92.727965456
 20
56.097307595
 30
0.000000000
 11
78.728778258
 21
56.097307595
 31
0.000000000
  0
LINE
  5
B24
330
A02
100
AcDbEntity
  8
Sketch010
100
AcDbLine
 10
78.728778258
 20
56.097307595
 30
0.000000000
 11
78.728778258
 21
70.098018796
 31
0.000000000
  0
LINE
  5
B25
330
A02
100
AcDbEntity
  8
Sketch010
100
AcDbLine
 10
21.580543561
 20
79.622987046
 30
0.000000000
 11
35.581203962
 21
79.622987046
 31
0.000000000
  0
LINE
  5
B26
330
A02
100
AcDbEntity
  8
Sketch010
100
AcDbLine
 10
35.581203962
 20
79.622987046
 30
0.000000000
 11
35.581203962
 21
65.622250445
 31
0.000000000
  0
LINE
  5
B27
330
A02
100
AcDbEntity
  8
Sketch010
100
AcDbLine
 10
35.581203962
 20
65.622250445
 30
0.000000000
 11
21.580543561
 21
65.622250445
 31
0.000000000
  0
LINE
  5
B28
330
A02
100
AcDbEntity
  8
Sketch010
100
AcDbLine
 10
21.580543561
 20
65.622250445
 30
0.000000000
 11
21.580543561
 21
79.622987046
 31
0.000000000
  0
LINE
  5
B29
330
A02
100
AcDbEntity
  8
Sketch010
100
AcDbLine
 10
40.628829058
 20
60.572999746
 30
0.000000000
 11
54.628016256
 21
60.572999746
 31
0.000000000
  0
LINE
  5
B2A
330
A02
100
AcDbEntity
  8
Sketch010
100
AcDbLine
 10
54.628016256
 20
60.572999746
 30
0.000000000
 11
54.628016256
 21
46.572288545
 31
0.000000000
  0
LINE
  5
B2B
330
A02
100
AcDbEntity
  8
Sketch010
100
AcDbLine
 10
54.628016256
 20
46.572288545
 30
0.000000000
 11
40.628829058
 21
46.572288545
 31
0.000000000
  0
LINE
  5
B2C
330
A02
100
AcDbEntity
  8
Sketch010
100
AcDbLine
 10
40.628829058
 20
46.572288545
 30
0.000000000
 11
40.628829058
 21
60.572999746
 31
0.000000000
  0
LINE
  5
B2D
330
A02
100
AcDbEntity
  8
Sketch010
100
AcDbLine
 10
59.678740157
 20
67.716713233
 30
0.000000000
 11
73.677927356
 21
67.716713233
 31
0.000000000
  0
LINE
  5
B2E
330
A02
100
AcDbEntity
  8
Sketch010
100
AcDbLine
 10
73.677927356
 20
67.716713233
 30
0.000000000
 11
73.677927356
 21
53.717526035
 31
0.000000000
  0
LINE
  5
B2F
330
A02
100
AcDbEntity
  8
Sketch010
100
AcDbLine
 10
73.677927356
 20
53.717526035
 30
0.000000000
 11
59.678740157
 21
53.717526035
 31
0.000000000
  0
LINE
  5
B30
330
A02
100
AcDbEntity
  8
Sketch010
100
AcDbLine
 10
59.678740157
 20
53.717526035
 30
0.000000000
 11
59.678740157
 21
67.716713233
 31
0.000000000
  0
LINE
  5
B31
330
A02
100
AcDbEntity
  8
Sketch010
100
AcDbLine
 10
40.628829058
 20
79.622987046
 30
0.000000000
 11
54.628016256
 21
79.622987046
 31
0.000000000
  0
LINE
  5
B32
330
A02
100
AcDbEntity
  8
Sketch010
100
AcDbLine
 10
54.628016256
 20
79.622987046
 30
0.000000000
 11
54.628016256
 21
65.622250445
 31
0.000000000
  0
LINE
  5
B33
330
A02
100
AcDbEntity
  8
Sketch010
100
AcDbLine
 10
54.628016256
 20
65.622250445
 30
0.000000000
 11
40.628829058
 21
65.622250445
 31
0.000000000
  0
LINE
  5
B34
330
A02
100
AcDbEntity
  8
Sketch010
100
AcDbLine
 10
40.628829058
 20
65.622250445
 30
0.000000000
 11
40.628829058
 21
79.622987046
 31
0.000000000
  0
LINE
  5
B35
330
A02
100
AcDbEntity
  8
Sketch010
100
AcDbLine
 10
59.678740157
 20
86.766675133
 30
0.000000000
 11
73.677927356
 21
86.766675133
 31
0.000000000
  0
LINE
  5
B36
330
A02
100
AcDbEntity
  8
Sketch010
100
AcDbLine
 10
73.677927356
 20
86.766675133
 30
0.000000000
 11
73.677927356
 21
72.767513335
 31
0.000000000
  0
LINE
  5
B37
330
A02
100
AcDbEntity
  8
Sketch010
100
AcDbLine
 10
73.677927356
 20
72.767513335
 30
0.000000000
 11
59.678740157
 21
72.767513335
 31
0.000000000
  0
LINE
  5
B38
330
A02
100
AcDbEntity
  8
Sketch010
100
AcDbLine
 10
59.678740157
 20
72.767513335
 30
0.000000000
 11
59.678740157
 21
86.766675133
 31
0.000000000
  0
LINE
  5
B39
330
A02
100
AcDbEntity
  8
Sketch010
100
AcDbLine
 10
78.728778258
 20
89.148310897
 30
0.000000000
 11
92.727965456
 21
89.148310897
 31
0.000000000
  0
LINE
  5
B3A
330
A02
100
AcDbEntity
  8
Sketch010
100
AcDbLine
 10
92.727965456
 20
89.148310897
 30
0.000000000
 11
92.727965456
 21
75.147269495
 31
0.000000000
  0
LINE
  5
B3B
330
A02
100
AcDbEntity
  8
Sketch010
100
AcDbLine
 10
92.727965456
 20
75.147269495
 30
0.000000000
 11
78.728778258
 21
75.147269495
 31
0.000000000
  0
LINE
  5
B3C
330
A02
100
AcDbEntity
  8
Sketch010
100
AcDbLine
 10
78.728778258
 20
75.147269495
 30
0.000000000
 11
78.728778258
 21
89.148310897
 31
0.000000000
  0
LINE
  5
B3D
330
A02
100
AcDbEntity
  8
Sketch010
100
AcDbLine
 10
97.778943358
 20
86.766675133
 30
0.000000000
 11
111.778003556
 21
86.766675133
 31
0.000000000
  0
LINE
  5
B3E
330
A02
100
AcDbEntity
  8
Sketch010
100
AcDbLine
 10
111.778003556
 20
86.766675133
 30
0.000000000
 11
111.778003556
 21
72.767513335
 31
0.000000000
  0
LINE
  5
B3F
330
A02
100
AcDbEntity
  8
Sketch010
100
AcDbLine
 10
111.778003556
 20
72.767513335
 30
0.000000000
 11
97.778943358
 21
72.767513335
 31
0.000000000
  0
LINE
  5
B40
330
A02
100
AcDbEntity
  8
Sketch010
100
AcDbLine
 10
97.778943358
 20
72.767513335
 30
0.000000000
 11
97.778943358
 21
86.766675133
 31
0.000000000
  0
LINE
  5
B41
330
A02
100
AcDbEntity
  8
Sketch010
100
AcDbLine
 10
116.828981458
 20
84.385496571
 30
0.000000000
 11
130.827914656
 21
84.385496571
 31
0.000000000
  0
LINE
  5
B42
330
A02
100
AcDbEntity
  8
Sketch010
100
AcDbLine
 10
130.827914656
 20
84.385496571
 30
0.000000000
 11
130.827914656
 21
70.386182372
 31
0.000000000
  0
LINE
  5
B43
330
A02
100
AcDbEntity
  8
Sketch010
100
AcDbLine
 10
130.827914656
 20
70.386182372
 30
0.000000000
 11
116.828981458
 21
70.386182372
 31
0.000000000
  0
LINE
  5
B44
330
A02
100
AcDbEntity
  8
Sketch010
100
AcDbLine
 10
116.828981458
 20
70.386182372
 30
0.000000000
 11
116.828981458
 21
84.385496571
 31
0.000000000
  0
LINE
  5
B45
330
A02
100
AcDbEntity
  8
Sketch010
100
AcDbLine
 10
135.879019558
 20
84.385496571
 30
0.000000000
 11
149.877952756
 21
84.385496571
 31
0.000000000
  0
LINE
  5
B46
330
A02
100
AcDbEntity
  8
Sketch010
100
AcDbLine
 10
149.877952756
 20
84.385496571
 30
0.000000000
 11
149.877952756
 21
70.386182372
 31
0.000000000
  0
LINE
  5
B47
330
A02
100
AcDbEntity
  8
Sketch010
100
AcDbLine
 10
149.877952756
 20
70.386182372
 30
0.000000000
 11
135.879019558
 21
70.386182372
 31
0.000000000
  0
LINE
  5
B48
330
A02
100
AcDbEntity
  8
Sketch010
100
AcDbLine
 10
135.879019558
 20
70.386182372
 30
0.000000000
 11
135.879019558
 21
84.385496571
 31
0.000000000
  0
LINE
  5
B49
330
A02
100
AcDbEntity
  8
Sketch010
100
AcDbLine
 10
135.879019558
 20
103.435280671
 30
0.000000000
 11
149.877952756
 21
103.435280671
 31
0.000000000
  0
LINE
  5
B4A
330
A02
100
AcDbEntity
  8
Sketch010
100
AcDbLine
 10
149.877952756
 20
103.435280671
 30
0.000000000
 11
149.877952756
 21
89.436296673
 31
0.000000000
  0
LINE
  5
B4B
330
A02
100
AcDbEntity
  8
Sketch010
100
AcDbLine
 10
149.877952756
 20
89.436296673
 30
0.000000000
 11
135.879019558
 21
89.436296673
 31
0.000000000
  0
LINE
  5
B4C
330
A02
100
AcDbEntity
  8
Sketch010
100
AcDbLine
 10
135.879019558
 20
89.436296673
 30
0.000000000
 11
135.879019558
 21
103.435280671
 31
0.000000000
  0
LINE
  5
B4D
330
A02
100
AcDbEntity
  8
Sketch010
100
AcDbLine
 10
116.828981458
 20
103.435280671
 30
0.000000000
 11
130.827914656
 21
103.435280671
 31
0.000000000
  0
LINE
  5
B4E
330
A02
100
AcDbEntity
  8
Sketch010
100
AcDbLine
 10
130.827914656
 20
103.435280671
 30
0.000000000
 11
130.827914656
 21
89.436296673
 31
0.000000000
  0
LINE
  5
B4F
330
A02
100
AcDbEntity
  8
Sketch010
100
AcDbLine
 10
130.827914656
 20
89.436296673
 30
0.000000000
 11
116.828981458
 21
89.436296673
 31
0.000000000
  0
LINE
  5
B50
330
A02
100
AcDbEntity
  8
Sketch010
100
AcDbLine
 10
116.828981458
 20
89.436296673
 30
0.000000000
 11
116.828981458
 21
103.435280671
 31
0.000000000
  0
LINE
  5
B51
330
A02
100
AcDbEntity
  8
Sketch010
100
AcDbLine
 10
97.778943358
 20
105.816281433
 30
0.000000000
 11
111.778003556
 21
105.816281433
 31
0.000000000
  0
LINE
  5
B52
330
A02
100
AcDbEntity
  8
Sketch010
100
AcDbLine
 10
111.778003556
 20
105.816281433
 30
0.000000000
 11
111.778003556
 21
91.817297435
 31
0.000000000
  0
LINE
  5
B53
330
A02
100
AcDbEntity
  8
Sketch010
100
AcDbLine
 10
111.778003556
 20
91.817297435
 30
0.000000000
 11
97.778943358
 21
91.817297435
 31
0.000000000
  0
LINE
  5
B54
330
A02
100
AcDbEntity
  8
Sketch010
100
AcDbLine
 10
97.778943358
 20
91.817297435
 30
0.000000000
 11
97.778943358
 21
105.816281433
 31
0.000000000
  0
LINE
  5
B55
330
A02
100
AcDbEntity
  8
Sketch010
100
AcDbLine
 10
78.728778258
 20
108.198298197
 30
0.000000000
 11
92.727965456
 21
108.198298197
 31
0.000000000
  0
LINE
  5
B56
330
A02
100
AcDbEntity
  8
Sketch010
100
AcDbLine
 10
92.727965456
 20
108.198298197
 30
0.000000000
 11
92.727965456
 21
94.197307595
 31
0.000000000
  0
LINE
  5
B57
330
A02
100
AcDbEntity
  8
Sketch010
100
AcDbLine
 10
92.727965456
 20
94.197307595
 30
0.000000000
 11
78.728778258
 21
94.197307595
 31
0.000000000
  0
LINE
  5
B58
330
A02
100
AcDbEntity
  8
Sketch010
100
AcDbLine
 10
78.728778258
 20
94.197307595
 30
0.000000000
 11
78.728778258
 21
108.198298197
 31
0.000000000
  0
LINE
  5
B59
330
A02
100
AcDbEntity
  8
Sketch010
100
AcDbLine
 10
59.678740157
 20
105.816281433
 30
0.000000000
 11
73.677927356
 21
105.816281433
 31
0.000000000
  0
LINE
  5
B5A
330
A02
100
AcDbEntity
  8
Sketch010
100
AcDbLine
 10
73.677927356
 20
105.816281433
 30
0.000000000
 11
73.677927356
 21
91.817297435
 31
0.000000000
  0
LINE
  5
B5B
330
A02
100
AcDbEntity
  8
Sketch010
100
AcDbLine
 10
73.677927356
 20
91.817297435
 30
0.000000000
 11
59.678740157
 21
91.817297435
 31
0.000000000
  0
LINE
  5
B5C
330
A02
100
AcDbEntity
  8
Sketch010
100
AcDbLine
 10
59.678740157
 20
91.817297435
 30
0.000000000
 11
59.678740157
 21
105.816281433
 31
0.000000000
  0
LINE
  5
B5D
330
A02
100
AcDbEntity
  8
Sketch010
100
AcDbLine
 10
40.628829058
 20
98.673279147
 30
0.000000000
 11
54.628016256
 21
98.673279147
 31
0.000000000
  0
LINE
  5
B5E
330
A02
100
AcDbEntity
  8
Sketch010
100
AcDbLine
 10
54.628016256
 20
98.673279147
 30
0.000000000
 11
54.628016256
 21
84.673710947
 31
0.000000000
  0
LINE
  5
B5F
330
A02
100
AcDbEntity
  8
Sketch010
100
AcDbLine
 10
54.628016256
 20
84.673710947
 30
0.000000000
 11
40.628829058
 21
84.673710947
 31
0.000000000
  0
LINE
  5
B60
330
A02
100
AcDbEntity
  8
Sketch010
100
AcDbLine
 10
40.628829058
 20
84.673710947
 30
0.000000000
 11
40.628829058
 21
98.673279147
 31
0.000000000
  0
LINE
  5
B61
330
A02
100
AcDbEntity
  8
Sketch010
100
AcDbLine
 10
21.580111760
 20
98.673279147
 30
0.000000000
 11
35.580949962
 21
98.673279147
 31
0.000000000
  0
LINE
  5
B62
330
A02
100
AcDbEntity
  8
Sketch010
100
AcDbLine
 10
35.580949962
 20
98.673279147
 30
0.000000000
 11
35.580949962
 21
84.673710947
 31
0.000000000
  0
LINE
  5
B63
330
A02
100
AcDbEntity
  8
Sketch010
100
AcDbLine
 10
35.580949962
 20
84.673710947
 30
0.000000000
 11
21.580111760
 21
84.673710947
 31
0.000000000
  0
LINE
  5
B64
330
A02
100
AcDbEntity
  8
Sketch010
100
AcDbLine
 10
21.580111760
 20
84.673710947
 30
0.000000000
 11
21.580111760
 21
98.673279147
 31
0.000000000
  0
LINE
  5
B65
330
A02
100
AcDbEntity
  8
Sketch010
100
AcDbLine
 10
21.578663957
 20
117.723317247
 30
0.000000000
 11
35.577978156
 21
117.723317247
 31
0.000000000
  0
LINE
  5
B66
330
A02
100
AcDbEntity
  8
Sketch010
100
AcDbLine
 10
35.577978156
 20
117.723317247
 30
0.000000000
 11
35.577978156
 21
103.723317247
 31
0.000000000
  0
LINE
  5
B67
330
A02
100
AcDbEntity
  8
Sketch010
100
AcDbLine
 10
35.577978156
 20
103.723317247
 30
0.000000000
 11
21.578663957
 21
103.723317247
 31
0.000000000
  0
LINE
  5
B68
330
A02
100
AcDbEntity
  8
Sketch010
100
AcDbLine
 10
21.578663957
 20
103.723317247
 30
0.000000000
 11
21.578663957
 21
117.723317247
 31
0.000000000
  0
LINE
  5
B69
330
A02
100
AcDbEntity
  8
Sketch010
100
AcDbLine
 10
40.628829058
 20
117.723317247
 30
0.000000000
 11
54.628016256
 21
117.723317247
 31
0.000000000
  0
LINE
  5
B6A
330
A02
100
AcDbEntity
  8
Sketch010
100
AcDbLine
 10
54.628016256
 20
117.723317247
 30
0.000000000
 11
54.628016256
 21
103.723317247
 31
0.000000000
  0
LINE
  5
B6B
330
A02
100
AcDbEntity
  8
Sketch010
100
AcDbLine
 10
54.628016256
 20
103.723317247
 30
0.000000000
 11
40.628829058
 21
103.723317247
 31
0.000000000
  0
LINE
  5
B6C
330
A02
100
AcDbEntity
  8
Sketch010
100
AcDbLine
 10
40.628829058
 20
103.723317247
 30
0.000000000
 11
40.628829058
 21
117.723317247
 31
0.000000000
  0
LINE
  5
B6D
330
A02
100
AcDbEntity
  8
Sketch010
100
AcDbLine
 10
59.678740157
 20
124.866319533
 30
0.000000000
 11
73.677927356
 21
124.866319533
 31
0.000000000
  0
LINE
  5
B6E
330
A02
100
AcDbEntity
  8
Sketch010
100
AcDbLine
 10
73.677927356
 20
124.866319533
 30
0.000000000
 11
73.677927356
 21
110.867284735
 31
0.000000000
  0
LINE
  5
B6F
330
A02
100
AcDbEntity
  8
Sketch010
100
AcDbLine
 10
73.677927356
 20
110.867284735
 30
0.000000000
 11
59.678740157
 21
110.867284735
 31
0.000000000
  0
LINE
  5
B70
330
A02
100
AcDbEntity
  8
Sketch010
100
AcDbLine
 10
59.678740157
 20
110.867284735
 30
0.000000000
 11
59.678740157
 21
124.866319533
 31
0.000000000
  0
LINE
  5
B71
330
A02
100
AcDbEntity
  8
Sketch010
100
AcDbLine
 10
78.728778258
 20
127.248260097
 30
0.000000000
 11
92.727965456
 21
127.248260097
 31
0.000000000
  0
LINE
  5
B72
330
A02
100
AcDbEntity
  8
Sketch010
100
AcDbLine
 10
92.727965456
 20
127.248260097
 30
0.000000000
 11
92.727965456
 21
113.248285497
 31
0.000000000
  0
LINE
  5
B73
330
A02
100
AcDbEntity
  8
Sketch010
100
AcDbLine
 10
92.727965456
 20
113.248285497
 30
0.000000000
 11
78.728778258
 21
113.248285497
 31
0.000000000
  0
LINE
  5
B74
330
A02
100
AcDbEntity
  8
Sketch010
100
AcDbLine
 10
78.728778258
 20
113.248285497
 30
0.000000000
 11
78.728778258
 21
127.248260097
 31
0.000000000
  0
LINE
  5
B75
330
A02
100
AcDbEntity
  8
Sketch010
100
AcDbLine
 10
97.778943358
 20
124.866319533
 30
0.000000000
 11
111.778003556
 21
124.866319533
 31
0.000000000
  0
LINE
  5
B76
330
A02
100
AcDbEntity
  8
Sketch010
100
AcDbLine
 10
111.778003556
 20
124.866319533
 30
0.000000000
 11
111.778003556
 21
110.867284735
 31
0.000000000
  0
LINE
  5
B77
330
A02
100
AcDbEntity
  8
Sketch010
100
AcDbLine
 10
111.778003556
 20
110.867284735
 30
0.000000000
 11
97.778943358
 21
110.867284735
 31
0.000000000
  0
LINE
  5
B78
330
A02
100
AcDbEntity
  8
Sketch010
100
AcDbLine
 10
97.778943358
 20
110.867284735
 30
0.000000000
 11
97.778943358
 21
124.866319533
 31
0.000000000
  0
LINE
  5
B79
330
A02
100
AcDbEntity
  8
Sketch010
100
AcDbLine
 10
116.828981458
 20
122.485318771
 30
0.000000000
 11
130.827914656
 21
122.485318771
 31
0.000000000
  0
LINE
  5
B7A
330
A02
100
AcDbEntity
  8
Sketch010
100
AcDbLine
 10
130.827914656
 20
122.485318771
 30
0.000000000
 11
130.827914656
 21
108.486258573
 31
0.000000000
  0
LINE
  5
B7B
330
A02
100
AcDbEntity
  8
Sketch010
100
AcDbLine
 10
130.827914656
 20
108.486258573
 30
0.000000000
 11
116.828981458
 21
108.486258573
 31
0.000000000
  0
LINE
  5
B7C
330
A02
100
AcDbEntity
  8
Sketch010
100
AcDbLine
 10
116.828981458
 20
108.486258573
 30
0.000000000
 11
116.828981458
 21
122.485318771
 31
0.000000000
  0
LINE
  5
B7D
330
A02
100
AcDbEntity
  8
Sketch010
100
AcDbLine
 10
135.879019558
 20
122.485318771
 30
0.000000000
 11
149.877952756
 21
122.485318771
 31
0.000000000
  0
LINE
  5
B7E
330
A02
100
AcDbEntity
  8
Sketch010
100
AcDbLine
 10
149.877952756
 20
122.485318771
 30
0.000000000
 11
149.877952756
 21
108.486258573
 31
0.000000000
  0
LINE
  5
B7F
330
A02
100
AcDbEntity
  8
Sketch010
100
AcDbLine
 10
149.877952756
 20
108.486258573
 30
0.000000000
 11
135.879019558
 21
108.486258573
 31
0.000000000
  0
LINE
  5
B80
330
A02
100
AcDbEntity
  8
Sketch010
100
AcDbLine
 10
135.879019558
 20
108.486258573
 30
0.000000000
 11
135.879019558
 21
122.485318771
 31
0.000000000
  0
LINE
  5
B81
330
A02
100
AcDbEntity
  8
Sketch010
100
AcDbLine
 10
149.877952756
 20
141.535306071
 30
0.000000000
 11
149.877952756
 21
127.536296673
 31
0.000000000
  0
LINE
  5
B82
330
A02
100
AcDbEntity
  8
Sketch010
100
AcDbLine
 10
149.877952756
 20
127.536296673
 30
0.000000000
 11
135.879019558
 21
127.536296673
 31
0.000000000
  0
LINE
  5
B83
330
A02
100
AcDbEntity
  8
Sketch010
100
AcDbLine
 10
135.879019558
 20
127.536296673
 30
0.000000000
 11
135.879019558
 21
141.535306071
 31
0.000000000
  0
LINE
  5
B84
330
A02
100
AcDbEntity
  8
Sketch010
100
AcDbLine
 10
135.879019558
 20
141.535306071
 30
0.000000000
 11
149.877952756
 21
141.535306071
 31
0.000000000
  0
LINE
  5
B85
330
A02
100
AcDbEntity
  8
Sketch010
100
AcDbLine
 10
116.828981458
 20
141.535306071
 30
0.000000000
 11
130.827914656
 21
141.535306071
 31
0.000000000
  0
LINE
  5
B86
330
A02
100
AcDbEntity
  8
Sketch010
100
AcDbLine
 10
130.827914656
 20
141.535306071
 30
0.000000000
 11
130.827914656
 21
127.536296673
 31
0.000000000
  0
LINE
  5
B87
330
A02
100
AcDbEntity
  8
Sketch010
100
AcDbLine
 10
130.827914656
 20
127.536296673
 30
0.000000000
 11
116.828981458
 21
127.536296673
 31
0.000000000
  0
LINE
  5
B88
330
A02
100
AcDbEntity
  8
Sketch010
100
AcDbLine
 10
116.828981458
 20
127.536296673
 30
0.000000000
 11
116.828981458
 21
141.535306071
 31
0.000000000
  0
LINE
  5
B89
330
A02
100
AcDbEntity
  8
Sketch010
100
AcDbLine
 10
97.778943358
 20
143.916306833
 30
0.000000000
 11
111.778003556
 21
143.916306833
 31
0.000000000
  0
LINE
  5
B8A
330
A02
100
AcDbEntity
  8
Sketch010
100
AcDbLine
 10
111.778003556
 20
143.916306833
 30
0.000000000
 11
111.778003556
 21
129.917322835
 31
0.000000000
  0
LINE
  5
B8B
330
A02
100
AcDbEntity
  8
Sketch010
100
AcDbLine
 10
111.778003556
 20
129.917322835
 30
0.000000000
 11
97.778943358
 21
129.917322835
 31
0.000000000
  0
LINE
  5
B8C
330
A02
100
AcDbEntity
  8
Sketch010
100
AcDbLine
 10
97.778943358
 20
129.917322835
 30
0.000000000
 11
97.778943358
 21
143.916306833
 31
0.000000000
  0
LINE
  5
B8D
330
A02
100
AcDbEntity
  8
Sketch010
100
AcDbLine
 10
78.728778258
 20
146.298298197
 30
0.000000000
 11
92.727965456
 21
146.298298197
 31
0.000000000
  0
LINE
  5
B8E
330
A02
100
AcDbEntity
  8
Sketch010
100
AcDbLine
 10
92.727965456
 20
146.298298197
 30
0.000000000
 11
92.727965456
 21
132.297256795
 31
0.000000000
  0
LINE
  5
B8F
330
A02
100
AcDbEntity
  8
Sketch010
100
AcDbLine
 10
92.727965456
 20
132.297256795
 30
0.000000000
 11
78.728778258
 21
132.297256795
 31
0.000000000
  0
LINE
  5
B90
330
A02
100
AcDbEntity
  8
Sketch010
100
AcDbLine
 10
78.728778258
 20
132.297256795
 30
0.000000000
 11
78.728778258
 21
146.298298197
 31
0.000000000
  0
LINE
  5
B91
330
A02
100
AcDbEntity
  8
Sketch010
100
AcDbLine
 10
59.678740157
 20
143.916306833
 30
0.000000000
 11
73.677927356
 21
143.916306833
 31
0.000000000
  0
LINE
  5
B92
330
A02
100
AcDbEntity
  8
Sketch010
100
AcDbLine
 10
73.677927356
 20
143.916306833
 30
0.000000000
 11
73.677927356
 21
129.917322835
 31
0.000000000
  0
LINE
  5
B93
330
A02
100
AcDbEntity
  8
Sketch010
100
AcDbLine
 10
73.677927356
 20
129.917322835
 30
0.000000000
 11
59.678740157
 21
129.917322835
 31
0.000000000
  0
LINE
  5
B94
330
A02
100
AcDbEntity
  8
Sketch010
100
AcDbLine
 10
59.678740157
 20
129.917322835
 30
0.000000000
 11
59.678740157
 21
143.916306833
 31
0.000000000
  0
LINE
  5
B95
330
A02
100
AcDbEntity
  8
Sketch010
100
AcDbLine
 10
40.628829058
 20
136.773279147
 30
0.000000000
 11
54.628016256
 21
136.773279147
 31
0.000000000
  0
LINE
  5
B96
330
A02
100
AcDbEntity
  8
Sketch010
100
AcDbLine
 10
54.628016256
 20
136.773279147
 30
0.000000000
 11
54.628016256
 21
122.772313945
 31
0.000000000
  0
LINE
  5
B97
330
A02
100
AcDbEntity
  8
Sketch010
100
AcDbLine
 10
54.628016256
 20
122.772313945
 30
0.000000000
 11
40.628829058
 21
122.772313945
 31
0.000000000
  0
LINE
  5
B98
330
A02
100
AcDbEntity
  8
Sketch010
100
AcDbLine
 10
40.628829058
 20
122.772313945
 30
0.000000000
 11
40.628829058
 21
136.773279147
 31
0.000000000
  0
LINE
  5
B99
330
A02
100
AcDbEntity
  8
Sketch010
100
AcDbLine
 10
21.578663957
 20
136.773279147
 30
0.000000000
 11
35.577978156
 21
136.773279147
 31
0.000000000
  0
LINE
  5
B9A
330
A02
100
AcDbEntity
  8
Sketch010
100
AcDbLine
 10
35.577978156
 20
136.773279147
 30
0.000000000
 11
35.577978156
 21
122.772313945
 31
0.000000000
  0
LINE
  5
B9B
330
A02
100
AcDbEntity
  8
Sketch010
100
AcDbLine
 10
35.577978156
 20
122.772313945
 30
0.000000000
 11
21.578663957
 21
122.772313945
 31
0.000000000
  0
LINE
  5
B9C
330
A02
100
AcDbEntity
  8
Sketch010
100
AcDbLine
 10
21.578663957
 20
122.772313945
 30
0.000000000
 11
21.578663957
 21
136.773279147
 31
0.000000000
  0
LINE
  5
B9D
330
A02
100
AcDbEntity
  8
Sketch010
100
AcDbLine
 10
21.580365761
 20
51.272694945
 30
0.000000000
 11
21.580365761
 21
46.572263145
 31
0.000000000
  0
LINE
  5
B9E
330
A02
100
AcDbEntity
  8
Sketch010
100
AcDbLine
 10
21.580365761
 20
46.572263145
 30
0.000000000
 11
35.579654559
 21
46.572263145
 31
0.000000000
  0
LINE
  5
B9F
330
A02
100
AcDbEntity
  8
Sketch010
100
AcDbLine
 10
35.579654559
 20
46.572263145
 30
0.000000000
 11
35.579654559
 21
51.272694945
 31
0.000000000
  0
LINE
  5
BA0
330
A02
100
AcDbEntity
  8
Sketch010
100
AcDbLine
 10
35.579832360
 20
60.572745745
 30
0.000000000
 11
21.579832360
 21
60.572745745
 31
0.000000000
  0
LINE
  5
BA1
330
A02
100
AcDbEntity
  8
Sketch010
100
AcDbLine
 10
21.579832360
 20
60.572745745
 30
0.000000000
 11
21.579832360
 21
46.572745745
 31
0.000000000
  0
LINE
  5
BA2
330
A02
100
AcDbEntity
  8
Sketch010
100
AcDbLine
 10
21.579832360
 20
46.572745745
 30
0.000000000
 11
35.579832360
 21
46.572745745
 31
0.000000000
  0
LINE
  5
BA3
330
A02
100
AcDbEntity
  8
Sketch010
100
AcDbLine
 10
35.579832360
 20
46.572745745
 30
0.000000000
 11
35.579832360
 21
60.572745745
 31
0.000000000
  0
LINE
  5
BA4
330
A02
100
AcDbEntity
  8
Sketch010
100
AcDbLine
 10
21.580365761
 20
60.572974346
 30
0.000000000
 11
21.580365761
 21
55.872542545
 31
0.000000000
  0
LINE
  5
BA5
330
A02
100
AcDbEntity
  8
Sketch010
100
AcDbLine
 10
21.581381763
 20
27.522275845
 30
0.000000000
 11
21.581381763
 21
41.522936246
 31
0.000000000
  0
LINE
  5
BA6
330
A02
100
AcDbEntity
  8
Sketch010
100
AcDbLine
 10
21.581381763
 20
41.522936246
 30
0.000000000
 11
35.580670561
 21
41.522936246
 31
0.000000000
  0
LINE
  5
BA7
330
A02
100
AcDbEntity
  8
Sketch010
100
AcDbLine
 10
35.580670561
 20
41.522936246
 30
0.000000000
 11
35.580670561
 21
27.522275845
 31
0.000000000
  0
LINE
  5
BA8
330
A02
100
AcDbEntity
  8
Sketch010
100
AcDbLine
 10
21.580467361
 20
41.523469647
 30
0.000000000
 11
35.580467361
 21
41.523469647
 31
0.000000000
  0
LINE
  5
BA9
330
A02
100
AcDbEntity
  8
Sketch010
100
AcDbLine
 10
35.580467361
 20
41.523469647
 30
0.000000000
 11
35.580467361
 21
27.523469647
 31
0.000000000
  0
LINE
  5
BAA
330
A02
100
AcDbEntity
  8
Sketch010
100
AcDbLine
 10
35.580467361
 20
27.523469647
 30
0.000000000
 11
21.580467361
 21
27.523469647
 31
0.000000000
  0
LINE
  5
BAB
330
A02
100
AcDbEntity
  8
Sketch010
100
AcDbLine
 10
21.580467361
 20
27.523469647
 30
0.000000000
 11
21.580467361
 21
41.523469647
 31
0.000000000
  0
LINE
  5
BAC
330
A02
100
AcDbEntity
  8
Sketch010
100
AcDbLine
 10
21.580467361
 20
41.523469647
 30
0.000000000
 11
21.580467361
 21
27.523469647
 31
0.000000000
  0
LINE
  5
BAD
330
A02
100
AcDbEntity
  8
Sketch010
100
AcDbLine
 10
21.580467361
 20
27.523469647
 30
0.000000000
 11
35.580467361
 21
27.523469647
 31
0.000000000
  0
LINE
  5
BAE
330
A02
100
AcDbEntity
  8
Sketch010
100
AcDbLine
 10
35.580467361
 20
27.523469647
 30
0.000000000
 11
35.580467361
 21
41.523469647
 31
0.000000000
  0
LINE
  5
BAF
330
A02
100
AcDbEntity
  8
Sketch010
100
AcDbLine
 10
35.580467361
 20
41.523469647
 30
0.000000000
 11
21.580467361
 21
41.523469647
 31
0.000000000
  0
LINE
  5
BB0
330
A02
100
AcDbEntity
  8
Sketch010
100
AcDbLine
 10
153.138862078
 20
89.535229870
 30
0.000000000
 11
175.138938278
 21
89.535229870
 31
0.000000000
  0
LINE
  5
BB1
330
A02
100
AcDbEntity
  8
Sketch010
100
AcDbLine
 10
175.138938278
 20
89.535229870
 30
0.000000000
 11
175.138938278
 21
141.535331471
 31
0.000000000
  0
LINE
  5
BB2
330
A02
100
AcDbEntity
  8
Sketch010
100
AcDbLine
 10
153.138912878
 20
141.535306071
 30
0.000000000
 11
175.138963678
 21
141.535306071
 31
0.000000000
  0
LINE
  5
BB3
330
A02
100
AcDbEntity
  8
Sketch010
100
AcDbLine
 10
153.138912878
 20
141.535306071
 30
0.000000000
 11
153.138912878
 21
89.535255271
 31
0.000000000
  0
LINE
  5
BB4
330
A02
100
AcDbEntity
  8
Sketch010
100
AcDbLine
 10
153.138912878
 20
89.535255271
 30
0.000000000
 11
175.138963678
 21
89.535255271
 31
0.000000000
  0
ENDSEC
  0
SECTION
  2
OBJECTS
  0
DICTIONARY
  5
F000
330
0
100
AcDbDictionary
  3
ACAD_GROUP
350
F001
  0
DICTIONARY
  5
F001
330
F000
100
AcDbDictionary
  0
ENDSEC
  0
EOF